
<svg id="visual" viewBox="0 0 900 100" width="900" height="100" xmlns="http://www.w3.org/2000/svg" xmlns:xlink="http://www.w3.org/1999/xlink" version="1.1"><rect x="0" y="0" width="900" height="100" fill="#fff"></rect><path d="M0 73L9.3 71.3C18.7 69.7 37.3 66.3 56.2 67.2C75 68 94 73 112.8 76C131.7 79 150.3 80 169 76.5C187.7 73 206.3 65 225 64.7C243.7 64.3 262.3 71.7 281.2 73.7C300 75.7 319 72.3 337.8 71.3C356.7 70.3 375.3 71.7 394 72.5C412.7 73.3 431.3 73.7 450 73.8C468.7 74 487.3 74 506.2 70.8C525 67.7 544 61.3 562.8 61.2C581.7 61 600.3 67 619 68C637.7 69 656.3 65 675 64.7C693.7 64.3 712.3 67.7 731.2 69.2C750 70.7 769 70.3 787.8 69C806.7 67.7 825.3 65.3 844 64.2C862.7 63 881.3 63 890.7 63L900 63L900 0L890.7 0C881.3 0 862.7 0 844 0C825.3 0 806.7 0 787.8 0C769 0 750 0 731.2 0C712.3 0 693.7 0 675 0C656.3 0 637.7 0 619 0C600.3 0 581.7 0 562.8 0C544 0 525 0 506.2 0C487.3 0 468.7 0 450 0C431.3 0 412.7 0 394 0C375.3 0 356.7 0 337.8 0C319 0 300 0 281.2 0C262.3 0 243.7 0 225 0C206.3 0 187.7 0 169 0C150.3 0 131.7 0 112.8 0C94 0 75 0 56.2 0C37.3 0 18.7 0 9.3 0L0 0Z" fill="#ffffff"></path><path d="M0 60L9.3 57.2C18.7 54.3 37.3 48.7 56.2 47.8C75 47 94 51 112.8 53.5C131.7 56 150.3 57 169 59.2C187.7 61.3 206.3 64.7 225 62.2C243.7 59.7 262.3 51.3 281.2 49.5C300 47.7 319 52.3 337.8 54.7C356.7 57 375.3 57 394 58.3C412.7 59.7 431.3 62.3 450 62.8C468.7 63.3 487.3 61.7 506.2 59.7C525 57.7 544 55.3 562.8 53.5C581.7 51.7 600.3 50.3 619 50C637.7 49.7 656.3 50.3 675 52.3C693.7 54.3 712.3 57.7 731.2 57.3C750 57 769 53 787.8 51.8C806.7 50.7 825.3 52.3 844 51.2C862.7 50 881.3 46 890.7 44L900 42L900 0L890.7 0C881.3 0 862.7 0 844 0C825.3 0 806.7 0 787.8 0C769 0 750 0 731.2 0C712.3 0 693.7 0 675 0C656.3 0 637.7 0 619 0C600.3 0 581.7 0 562.8 0C544 0 525 0 506.2 0C487.3 0 468.7 0 450 0C431.3 0 412.7 0 394 0C375.3 0 356.7 0 337.8 0C319 0 300 0 281.2 0C262.3 0 243.7 0 225 0C206.3 0 187.7 0 169 0C150.3 0 131.7 0 112.8 0C94 0 75 0 56.2 0C37.3 0 18.7 0 9.3 0L0 0Z" fill="#bbbbbb"></path><path d="M0 32L9.3 32.7C18.7 33.3 37.3 34.7 56.2 34.7C75 34.7 94 33.3 112.8 33.5C131.7 33.7 150.3 35.3 169 35.2C187.7 35 206.3 33 225 33.2C243.7 33.3 262.3 35.7 281.2 38.5C300 41.3 319 44.7 337.8 45C356.7 45.3 375.3 42.7 394 40.7C412.7 38.7 431.3 37.3 450 36.5C468.7 35.7 487.3 35.3 506.2 37.8C525 40.3 544 45.7 562.8 48.8C581.7 52 600.3 53 619 50.5C637.7 48 656.3 42 675 41.2C693.7 40.3 712.3 44.7 731.2 46.7C750 48.7 769 48.3 787.8 47.8C806.7 47.3 825.3 46.7 844 47C862.7 47.3 881.3 48.7 890.7 49.3L900 50L900 0L890.7 0C881.3 0 862.7 0 844 0C825.3 0 806.7 0 787.8 0C769 0 750 0 731.2 0C712.3 0 693.7 0 675 0C656.3 0 637.7 0 619 0C600.3 0 581.7 0 562.8 0C544 0 525 0 506.2 0C487.3 0 468.7 0 450 0C431.3 0 412.7 0 394 0C375.3 0 356.7 0 337.8 0C319 0 300 0 281.2 0C262.3 0 243.7 0 225 0C206.3 0 187.7 0 169 0C150.3 0 131.7 0 112.8 0C94 0 75 0 56.2 0C37.3 0 18.7 0 9.3 0L0 0Z" fill="#7c7c7c"></path><path d="M0 26L9.3 27C18.7 28 37.3 30 56.2 29.5C75 29 94 26 112.8 24.5C131.7 23 150.3 23 169 24.5C187.7 26 206.3 29 225 30C243.7 31 262.3 30 281.2 29.8C300 29.7 319 30.3 337.8 31.2C356.7 32 375.3 33 394 32.8C412.7 32.7 431.3 31.3 450 31.5C468.7 31.7 487.3 33.3 506.2 32C525 30.7 544 26.3 562.8 24.8C581.7 23.3 600.3 24.7 619 25.5C637.7 26.3 656.3 26.7 675 28.2C693.7 29.7 712.3 32.3 731.2 34.2C750 36 769 37 787.8 35.8C806.7 34.7 825.3 31.3 844 29.8C862.7 28.3 881.3 28.7 890.7 28.8L900 29L900 0L890.7 0C881.3 0 862.7 0 844 0C825.3 0 806.7 0 787.8 0C769 0 750 0 731.2 0C712.3 0 693.7 0 675 0C656.3 0 637.7 0 619 0C600.3 0 581.7 0 562.8 0C544 0 525 0 506.2 0C487.3 0 468.7 0 450 0C431.3 0 412.7 0 394 0C375.3 0 356.7 0 337.8 0C319 0 300 0 281.2 0C262.3 0 243.7 0 225 0C206.3 0 187.7 0 169 0C150.3 0 131.7 0 112.8 0C94 0 75 0 56.2 0C37.3 0 18.7 0 9.3 0L0 0Z" fill="#424242"></path><path d="M0 11L9.3 10.5C18.7 10 37.3 9 56.2 10.2C75 11.3 94 14.7 112.8 17.3C131.7 20 150.3 22 169 20.8C187.7 19.7 206.3 15.3 225 13.5C243.7 11.7 262.3 12.3 281.2 13.8C300 15.3 319 17.7 337.8 17.8C356.7 18 375.3 16 394 15.5C412.7 15 431.3 16 450 17.3C468.7 18.7 487.3 20.3 506.2 20.8C525 21.3 544 20.7 562.8 19.3C581.7 18 600.3 16 619 15C637.7 14 656.3 14 675 15C693.7 16 712.3 18 731.2 19.3C750 20.7 769 21.3 787.8 21.7C806.7 22 825.3 22 844 21.8C862.7 21.7 881.3 21.3 890.7 21.2L900 21L900 0L890.7 0C881.3 0 862.7 0 844 0C825.3 0 806.7 0 787.8 0C769 0 750 0 731.2 0C712.3 0 693.7 0 675 0C656.3 0 637.7 0 619 0C600.3 0 581.7 0 562.8 0C544 0 525 0 506.2 0C487.3 0 468.7 0 450 0C431.3 0 412.7 0 394 0C375.3 0 356.7 0 337.8 0C319 0 300 0 281.2 0C262.3 0 243.7 0 225 0C206.3 0 187.7 0 169 0C150.3 0 131.7 0 112.8 0C94 0 75 0 56.2 0C37.3 0 18.7 0 9.3 0L0 0Z" fill="#0d0d0d"></path></svg>