
<svg id="visual" viewBox="0 0 900 100" width="900" height="100" xmlns="http://www.w3.org/2000/svg" xmlns:xlink="http://www.w3.org/1999/xlink" version="1.1"><rect x="0" y="0" width="900" height="100" fill="#ffffff"></rect><path d="M0 36L10 32.7C20 29.3 40 22.7 60 19.3C80 16 100 16 120 17.2C140 18.3 160 20.7 180 21.5C200 22.3 220 21.7 240 23.3C260 25 280 29 300 29.5C320 30 340 27 360 23.3C380 19.7 400 15.3 420 13.3C440 11.3 460 11.7 480 16.3C500 21 520 30 540 32C560 34 580 29 600 27.2C620 25.3 640 26.7 660 28C680 29.3 700 30.7 720 33.2C740 35.7 760 39.3 780 39.2C800 39 820 35 840 35C860 35 880 39 890 41L900 43L900 101L890 101C880 101 860 101 840 101C820 101 800 101 780 101C760 101 740 101 720 101C700 101 680 101 660 101C640 101 620 101 600 101C580 101 560 101 540 101C520 101 500 101 480 101C460 101 440 101 420 101C400 101 380 101 360 101C340 101 320 101 300 101C280 101 260 101 240 101C220 101 200 101 180 101C160 101 140 101 120 101C100 101 80 101 60 101C40 101 20 101 10 101L0 101Z" fill="#ffffff"></path><path d="M0 50L10 51.3C20 52.7 40 55.3 60 52.3C80 49.3 100 40.7 120 38C140 35.3 160 38.7 180 38.7C200 38.7 220 35.3 240 37C260 38.7 280 45.3 300 48.5C320 51.7 340 51.3 360 52.3C380 53.3 400 55.7 420 51.7C440 47.7 460 37.3 480 35.8C500 34.3 520 41.7 540 42.3C560 43 580 37 600 33.7C620 30.3 640 29.7 660 29C680 28.3 700 27.7 720 27.8C740 28 760 29 780 30.7C800 32.3 820 34.7 840 35.7C860 36.7 880 36.3 890 36.2L900 36L900 101L890 101C880 101 860 101 840 101C820 101 800 101 780 101C760 101 740 101 720 101C700 101 680 101 660 101C640 101 620 101 600 101C580 101 560 101 540 101C520 101 500 101 480 101C460 101 440 101 420 101C400 101 380 101 360 101C340 101 320 101 300 101C280 101 260 101 240 101C220 101 200 101 180 101C160 101 140 101 120 101C100 101 80 101 60 101C40 101 20 101 10 101L0 101Z" fill="#bbbbbb"></path><path d="M0 69L10 64.8C20 60.7 40 52.3 60 51.8C80 51.3 100 58.7 120 62C140 65.3 160 64.7 180 61.3C200 58 220 52 240 51.8C260 51.7 280 57.3 300 57.3C320 57.3 340 51.7 360 49.3C380 47 400 48 420 50.2C440 52.3 460 55.7 480 54.8C500 54 520 49 540 49.2C560 49.3 580 54.7 600 55.2C620 55.7 640 51.3 660 48.7C680 46 700 45 720 48.5C740 52 760 60 780 61C800 62 820 56 840 51.8C860 47.7 880 45.3 890 44.2L900 43L900 101L890 101C880 101 860 101 840 101C820 101 800 101 780 101C760 101 740 101 720 101C700 101 680 101 660 101C640 101 620 101 600 101C580 101 560 101 540 101C520 101 500 101 480 101C460 101 440 101 420 101C400 101 380 101 360 101C340 101 320 101 300 101C280 101 260 101 240 101C220 101 200 101 180 101C160 101 140 101 120 101C100 101 80 101 60 101C40 101 20 101 10 101L0 101Z" fill="#7c7c7c"></path><path d="M0 78L10 77.7C20 77.3 40 76.7 60 75.8C80 75 100 74 120 72.2C140 70.3 160 67.7 180 65.8C200 64 220 63 240 62.7C260 62.3 280 62.7 300 63.2C320 63.7 340 64.3 360 66.7C380 69 400 73 420 74.7C440 76.3 460 75.7 480 75.7C500 75.7 520 76.3 540 75.8C560 75.3 580 73.7 600 73.2C620 72.7 640 73.3 660 71.5C680 69.7 700 65.3 720 65C740 64.7 760 68.3 780 68.8C800 69.3 820 66.7 840 66.3C860 66 880 68 890 69L900 70L900 101L890 101C880 101 860 101 840 101C820 101 800 101 780 101C760 101 740 101 720 101C700 101 680 101 660 101C640 101 620 101 600 101C580 101 560 101 540 101C520 101 500 101 480 101C460 101 440 101 420 101C400 101 380 101 360 101C340 101 320 101 300 101C280 101 260 101 240 101C220 101 200 101 180 101C160 101 140 101 120 101C100 101 80 101 60 101C40 101 20 101 10 101L0 101Z" fill="#424242"></path><path d="M0 81L10 82.7C20 84.3 40 87.7 60 88.2C80 88.7 100 86.3 120 84C140 81.7 160 79.3 180 78.7C200 78 220 79 240 81C260 83 280 86 300 85.5C320 85 340 81 360 79.2C380 77.3 400 77.7 420 79.7C440 81.7 460 85.3 480 86.3C500 87.3 520 85.7 540 83.5C560 81.3 580 78.7 600 79.7C620 80.7 640 85.3 660 87.8C680 90.3 700 90.7 720 90.5C740 90.3 760 89.7 780 88C800 86.3 820 83.7 840 81.5C860 79.3 880 77.7 890 76.8L900 76L900 101L890 101C880 101 860 101 840 101C820 101 800 101 780 101C760 101 740 101 720 101C700 101 680 101 660 101C640 101 620 101 600 101C580 101 560 101 540 101C520 101 500 101 480 101C460 101 440 101 420 101C400 101 380 101 360 101C340 101 320 101 300 101C280 101 260 101 240 101C220 101 200 101 180 101C160 101 140 101 120 101C100 101 80 101 60 101C40 101 20 101 10 101L0 101Z" fill="#0d0d0d"></path></svg>