
<svg id="visual" viewBox="0 0 900 100" width="900" height="100" xmlns="http://www.w3.org/2000/svg" xmlns:xlink="http://www.w3.org/1999/xlink" version="1.1"><rect x="0" y="0" width="900" height="100" fill="#0d0d0d"></rect><path d="M0 79L9.3 76.8C18.7 74.7 37.3 70.3 56.2 70.7C75 71 94 76 112.8 78.7C131.7 81.3 150.3 81.7 169 81.8C187.7 82 206.3 82 225 82.3C243.7 82.7 262.3 83.3 281.2 79.2C300 75 319 66 337.8 64.3C356.7 62.7 375.3 68.3 394 72.7C412.7 77 431.3 80 450 80.5C468.7 81 487.3 79 506.2 76.3C525 73.7 544 70.3 562.8 71.3C581.7 72.3 600.3 77.7 619 79C637.7 80.3 656.3 77.7 675 75.2C693.7 72.7 712.3 70.3 731.2 70C750 69.7 769 71.3 787.8 71.2C806.7 71 825.3 69 844 67.8C862.7 66.7 881.3 66.3 890.7 66.2L900 66L900 0L890.7 0C881.3 0 862.7 0 844 0C825.3 0 806.7 0 787.8 0C769 0 750 0 731.2 0C712.3 0 693.7 0 675 0C656.3 0 637.7 0 619 0C600.3 0 581.7 0 562.8 0C544 0 525 0 506.2 0C487.3 0 468.7 0 450 0C431.3 0 412.7 0 394 0C375.3 0 356.7 0 337.8 0C319 0 300 0 281.2 0C262.3 0 243.7 0 225 0C206.3 0 187.7 0 169 0C150.3 0 131.7 0 112.8 0C94 0 75 0 56.2 0C37.3 0 18.7 0 9.3 0L0 0Z" fill="#ffffff"></path><path d="M0 47L9.3 46.3C18.7 45.7 37.3 44.3 56.2 45.8C75 47.3 94 51.7 112.8 55.8C131.7 60 150.3 64 169 63.5C187.7 63 206.3 58 225 54.7C243.7 51.3 262.3 49.7 281.2 48.7C300 47.7 319 47.3 337.8 46.5C356.7 45.7 375.3 44.3 394 45.5C412.7 46.7 431.3 50.3 450 53.3C468.7 56.3 487.3 58.7 506.2 57.7C525 56.7 544 52.3 562.8 52.3C581.7 52.3 600.3 56.7 619 56.7C637.7 56.7 656.3 52.3 675 50.8C693.7 49.3 712.3 50.7 731.2 49.8C750 49 769 46 787.8 48.5C806.7 51 825.3 59 844 62C862.7 65 881.3 63 890.7 62L900 61L900 0L890.7 0C881.3 0 862.7 0 844 0C825.3 0 806.7 0 787.8 0C769 0 750 0 731.2 0C712.3 0 693.7 0 675 0C656.3 0 637.7 0 619 0C600.3 0 581.7 0 562.8 0C544 0 525 0 506.2 0C487.3 0 468.7 0 450 0C431.3 0 412.7 0 394 0C375.3 0 356.7 0 337.8 0C319 0 300 0 281.2 0C262.3 0 243.7 0 225 0C206.3 0 187.7 0 169 0C150.3 0 131.7 0 112.8 0C94 0 75 0 56.2 0C37.3 0 18.7 0 9.3 0L0 0Z" fill="#bbbbbb"></path><path d="M0 47L9.3 44.7C18.7 42.3 37.3 37.7 56.2 35.7C75 33.7 94 34.3 112.8 34.8C131.7 35.3 150.3 35.7 169 38C187.7 40.3 206.3 44.7 225 45.5C243.7 46.3 262.3 43.7 281.2 44.3C300 45 319 49 337.8 49C356.7 49 375.3 45 394 44.8C412.7 44.7 431.3 48.3 450 49.2C468.7 50 487.3 48 506.2 46.2C525 44.3 544 42.7 562.8 43.7C581.7 44.7 600.3 48.3 619 47.5C637.7 46.7 656.3 41.3 675 38.5C693.7 35.7 712.3 35.3 731.2 38.2C750 41 769 47 787.8 49.5C806.7 52 825.3 51 844 49.7C862.7 48.3 881.3 46.7 890.7 45.8L900 45L900 0L890.7 0C881.3 0 862.7 0 844 0C825.3 0 806.7 0 787.8 0C769 0 750 0 731.2 0C712.3 0 693.7 0 675 0C656.3 0 637.7 0 619 0C600.3 0 581.7 0 562.8 0C544 0 525 0 506.2 0C487.3 0 468.7 0 450 0C431.3 0 412.7 0 394 0C375.3 0 356.7 0 337.8 0C319 0 300 0 281.2 0C262.3 0 243.7 0 225 0C206.3 0 187.7 0 169 0C150.3 0 131.7 0 112.8 0C94 0 75 0 56.2 0C37.3 0 18.7 0 9.3 0L0 0Z" fill="#7c7c7c"></path><path d="M0 29L9.3 29.8C18.7 30.7 37.3 32.3 56.2 33C75 33.7 94 33.3 112.8 34C131.7 34.7 150.3 36.3 169 35.5C187.7 34.7 206.3 31.3 225 29C243.7 26.7 262.3 25.3 281.2 25C300 24.7 319 25.3 337.8 26.2C356.7 27 375.3 28 394 29.3C412.7 30.7 431.3 32.3 450 31.8C468.7 31.3 487.3 28.7 506.2 29C525 29.3 544 32.7 562.8 33.7C581.7 34.7 600.3 33.3 619 32.8C637.7 32.3 656.3 32.7 675 31.2C693.7 29.7 712.3 26.3 731.2 26.5C750 26.7 769 30.3 787.8 29.8C806.7 29.3 825.3 24.7 844 22.3C862.7 20 881.3 20 890.7 20L900 20L900 0L890.7 0C881.3 0 862.7 0 844 0C825.3 0 806.7 0 787.8 0C769 0 750 0 731.2 0C712.3 0 693.7 0 675 0C656.3 0 637.7 0 619 0C600.3 0 581.7 0 562.8 0C544 0 525 0 506.2 0C487.3 0 468.7 0 450 0C431.3 0 412.7 0 394 0C375.3 0 356.7 0 337.8 0C319 0 300 0 281.2 0C262.3 0 243.7 0 225 0C206.3 0 187.7 0 169 0C150.3 0 131.7 0 112.8 0C94 0 75 0 56.2 0C37.3 0 18.7 0 9.3 0L0 0Z" fill="#424242"></path><path d="M0 11L9.3 11.7C18.7 12.3 37.3 13.7 56.2 15.5C75 17.3 94 19.7 112.8 19.8C131.7 20 150.3 18 169 16.2C187.7 14.3 206.3 12.7 225 14C243.7 15.3 262.3 19.7 281.2 20.2C300 20.7 319 17.3 337.8 16.5C356.7 15.7 375.3 17.3 394 18.5C412.7 19.7 431.3 20.3 450 19C468.7 17.7 487.3 14.3 506.2 14.3C525 14.3 544 17.7 562.8 18.5C581.7 19.3 600.3 17.7 619 17C637.7 16.3 656.3 16.7 675 16.5C693.7 16.3 712.3 15.7 731.2 16.8C750 18 769 21 787.8 22.3C806.7 23.7 825.3 23.3 844 21.7C862.7 20 881.3 17 890.7 15.5L900 14L900 0L890.7 0C881.3 0 862.7 0 844 0C825.3 0 806.7 0 787.8 0C769 0 750 0 731.2 0C712.3 0 693.7 0 675 0C656.3 0 637.7 0 619 0C600.3 0 581.7 0 562.8 0C544 0 525 0 506.2 0C487.3 0 468.7 0 450 0C431.3 0 412.7 0 394 0C375.3 0 356.7 0 337.8 0C319 0 300 0 281.2 0C262.3 0 243.7 0 225 0C206.3 0 187.7 0 169 0C150.3 0 131.7 0 112.8 0C94 0 75 0 56.2 0C37.3 0 18.7 0 9.3 0L0 0Z" fill="#0d0d0d"></path></svg>