
<svg xmlns="http://www.w3.org/2000/svg" width="1784.76" height="112.492" viewBox="0 0 1784.76 112.492"><defs><style>.a{fill:#fff;}</style></defs><path class="a" d="M47.523,85.844,70.308,36.516H94.972L59.028,106.3V146H36.094V106.3L.15,36.516H24.89Zm145.2,7.9q0,16.167-5.715,28.349a43.038,43.038,0,0,1-16.355,18.8,45.241,45.241,0,0,1-24.4,6.617,45.549,45.549,0,0,1-24.288-6.542,43.461,43.461,0,0,1-16.543-18.686q-5.865-12.144-5.94-27.935V88.927q0-16.167,5.828-28.461a43.39,43.39,0,0,1,16.468-18.874,45.3,45.3,0,0,1,24.326-6.58,45.3,45.3,0,0,1,24.326,6.58A43.39,43.39,0,0,1,186.9,60.465q5.828,12.294,5.828,28.386Zm-22.859-4.963q0-17.22-6.166-26.168T146.1,53.66q-11.354,0-17.521,8.835t-6.241,25.9v5.339q0,16.769,6.166,26.018t17.746,9.249q11.354,0,17.445-8.911t6.166-25.98ZM291.983,36.516v72.112q0,17.972-11.242,28.424T250.024,147.5q-19.175,0-30.454-10.151t-11.5-27.9V36.516h22.559v72.263q0,10.753,5.151,15.678t14.25,4.925q19.024,0,19.325-20V36.516Zm143.473,95.648q-6.091,7.294-17.22,11.317a72.113,72.113,0,0,1-24.664,4.023q-14.212,0-24.927-6.2A41.377,41.377,0,0,1,352.1,123.291q-5.828-11.806-5.978-27.747V88.1q0-16.393,5.527-28.386a40.885,40.885,0,0,1,15.941-18.348q10.415-6.354,24.4-6.354,19.476,0,30.454,9.287t13.009,27.033H413.5q-1.5-9.4-6.655-13.761T392.67,53.209q-11.5,0-17.521,8.647t-6.091,25.717v6.993q0,17.22,6.542,26.018t19.175,8.8q12.708,0,18.122-5.414V105.094H392.369V88.476h43.087Zm58.8-26.243H476.287V146H453.729V36.516h40.681q19.4,0,29.928,8.647T534.864,69.6q0,11.2-4.85,18.686t-14.7,11.918L539,144.947V146H514.787ZM476.287,87.648h18.2q8.5,0,13.159-4.324t4.662-11.918q0-7.745-4.4-12.182t-13.5-4.437H476.287Zm141.593,10.9H574.567v29.326H625.4V146H552.009V36.516h73.24V54.788H574.567V80.881H617.88Zm82.564,24.89H660.892L653.372,146H629.385L670.141,36.516h20.9L732.026,146H708.039Zm-33.462-18.272h27.371L680.593,64.188ZM771.729,36.516l28.123,79.406,27.973-79.406h29.627V146H834.818V116.072l2.256-51.659L807.522,146h-15.49L762.556,64.488l2.256,51.584V146H742.253V36.516ZM939.49,146H916.932V36.516H939.49Zm101.138-91.212h-33.537V146H984.532V54.788H951.446V36.516h89.182Zm-6.843,80.534a10.94,10.94,0,0,1,3.5-8.422,13.586,13.586,0,0,1,17.6,0,10.94,10.94,0,0,1,3.5,8.422,10.791,10.791,0,0,1-3.459,8.309,13.811,13.811,0,0,1-17.671,0A10.791,10.791,0,0,1,1033.785,135.322ZM1141.164,146h-22.559V36.516h22.559Zm59.254,0V36.516h38.35q19.927,0,30.229,7.632t10.3,22.371a24.736,24.736,0,0,1-4.136,14.174,23.889,23.889,0,0,1-11.5,8.986,23.113,23.113,0,0,1,13.272,8.5,25.121,25.121,0,0,1,4.85,15.641q0,15.791-10.076,23.912T1242.979,146Zm22.559-47.674v29.552H1242.3q7.971,0,12.445-3.8t4.474-10.49q0-15.039-15.565-15.265Zm0-15.941h16.693q17.069-.3,17.069-13.61,0-7.444-4.324-10.715t-13.648-3.271h-15.791Zm158.587-45.869v72.112q0,17.972-11.242,28.424T1339.6,147.5q-19.175,0-30.454-10.151t-11.5-27.9V36.516H1320.2v72.263q0,10.753,5.151,15.678t14.25,4.925q19.024,0,19.325-20V36.516ZM1424.049,146H1401.49V36.516h22.559Zm43.463-18.122h47.9V146h-70.458V36.516h22.559Zm127.832-73.09h-33.537V146h-22.559V54.788h-33.086V36.516h89.182ZM1666.027,146h-22.559V36.516h22.559Zm101.138-91.212h-33.537V146h-22.559V54.788h-33.086V36.516h89.182Zm-6.843,80.534a10.94,10.94,0,0,1,3.5-8.422,13.586,13.586,0,0,1,17.6,0,10.94,10.94,0,0,1,3.5,8.422,10.791,10.791,0,0,1-3.459,8.309,13.811,13.811,0,0,1-17.671,0A10.791,10.791,0,0,1,1760.322,135.322Z" transform="translate(-0.15 -35.012)"/></svg>