
<svg xmlns="http://www.w3.org/2000/svg" viewBox="0 0 765.74 739.76"><defs><style>.cls-1{fill:#707070;}.cls-2{fill:#b3b3b3;}</style></defs><g id="Layer_2" data-name="Layer 2"><g id="Layer_1-2" data-name="Layer 1"><path class="cls-1" d="M618.07,158.27c-1.37-3.31-5-7.56-10.92-12.69a136,136,0,0,0-10.84-8.45l-.4-.28.12.47a8,8,0,0,1-1.36,6.22,13.42,13.42,0,0,1-2,2.46c-1.89-7.39-6.55-14.23-13.86-20.32a59.72,59.72,0,0,0-11.17-7.37,21.13,21.13,0,0,1,6.06-.86,34.57,34.57,0,0,1,14.84,3.9,53.34,53.34,0,0,1,10.17,6.57,48,48,0,0,1,15.06,16.55A40,40,0,0,1,618.07,158.27Z"/><path class="cls-2" d="M555.73,166.72s-.13.76-.44,2a41.41,41.41,0,0,1-1.38,4.42,29.55,29.55,0,0,0-1.16-3.62c-.52-1.33-1-2.37-1-2.38a43,43,0,0,0-3.73-5.88c-2.13-2.8-5.46-6.37-9.29-7.46-3.07-.88-5.81.23-7.92,3.2a17.39,17.39,0,0,0-2.23,4.61c-3.78-.52-5.94-4.24-7.09-7.3a30,30,0,0,1-1.63-6.73,16.55,16.55,0,0,1,3.82-7.16c2.41-2.63,6.69-5.48,14-5.48a33,33,0,0,1,4.57.34c8.11,1.16,12.85,6.79,14.08,16.73A51.12,51.12,0,0,1,555.73,166.72Z"/><path class="cls-2" d="M567.13,118.49h0c10.9,6.11,15.61,13.87,17.67,19.31a27.11,27.11,0,0,1,1.87,10.26c-1.22-.15-2.46-1.16-3.68-3a22.15,22.15,0,0,1-2-4l-.35.12a7.15,7.15,0,0,1,.3,2.47,18.86,18.86,0,0,1-.28,2.52v.08c-.11.67-.23,1.38-.37,2.06a13.84,13.84,0,0,1-.59,2.08,6.13,6.13,0,0,1-.64,1.2c-.26.38-.56.75-.85,1.1s-.37.48-.6.79l-.36.52-.2.28a16.14,16.14,0,0,0-.84,1.4c-.28.53-.54,1.05-.73,1.45s-.35.68-.52,1l-.5,1c0,.1-.13.27-.2.43a1.07,1.07,0,0,0-.09.19c-5.39-3.91-7-7.54-7.44-9.91a7.34,7.34,0,0,1,.39-4.24l.57-1.1-.86.88a4.39,4.39,0,0,1-4.79,1.26,6.86,6.86,0,0,1-2.23-1.23,25.93,25.93,0,0,0,1.38-5.39,14.39,14.39,0,0,0,0-4.36v0a19.14,19.14,0,0,0-2.08-8.84c-2.14-4.14-6.92-9.26-17.6-10.1a48.45,48.45,0,0,0-8.53.17,75.52,75.52,0,0,0-9.13,1.55,91.81,91.81,0,0,1,9.22-3.8c2.73-1,4.47-1.39,4.48-1.39h.09l7.87-1h.36c4.83,0,10.26,1.66,14,3.07a70.13,70.13,0,0,1,6.81,3"/><path class="cls-1" d="M560.7,133.91a9.93,9.93,0,0,0-3.15-4.52,15.24,15.24,0,0,0-5.85-2.85,25.72,25.72,0,0,0-4.61-.76,19.64,19.64,0,0,0-2-.06h-.21c-17.82,0-23.78,5.94-25.65,10.93a16.53,16.53,0,0,0,.26,11,.18.18,0,0,0,0,0,30.42,30.42,0,0,0,1.64,6.77c1.73,4.58,4.34,7.19,7.56,7.56l.15,0,0-.16a16.29,16.29,0,0,1,2.21-4.64c2-2.88,4.57-3.91,7.52-3.07,3.73,1.07,7,4.58,9.09,7.34a40.81,40.81,0,0,1,3.69,5.81s.48,1,1,2.35c.32.82.69,1.85,1,2.83-3.93-7.31-8.43-9.5-11.59-10a10.68,10.68,0,0,0-6.35.84l-.15.08.07.16c0,.05,2.43,5.7.61,10.72-2.33,6.44-10.61,9-24,7.56a40.24,40.24,0,0,0,7.54-2.19c4.34-1.76,10.11-5.1,12.9-11l.06-.12-.09-.09a31.05,31.05,0,0,0-3.21-2.69c-2.48-1.79-4.59-2.65-6.24-2.6l-.09,0a22,22,0,0,1-5,1.88c-2.27.52-5.31.73-7.53-1a5.32,5.32,0,0,0,1.25.13h.2a16.16,16.16,0,0,0,6.79-2.16l.44-.23-.48-.11c-.08,0-7.89-2-11.3-8.15-4.53-8.18.7-20.05,15.12-34.32h0a80.75,80.75,0,0,1,10.61-1.9,47.79,47.79,0,0,1,8.47-.17c10.51.83,15.21,5.84,17.3,9.9A19.08,19.08,0,0,1,560.7,133.91Z"/><path class="cls-2" d="M553.64,173.84a38.12,38.12,0,0,1-9.55,14.33C538.31,193.39,531,196,522.41,196c-14.76,0-21.46-10.93-24.48-20.1a67.4,67.4,0,0,1-3.05-20.17c0-8.5,3.06-16.27,9.11-23.1a60,60,0,0,1,17.25-13c-17.56,17.7-17.54,28.21-14.37,33.94,3,5.43,9.33,7.67,11.08,8.2a15,15,0,0,1-6.21,1.9h-.19a3.6,3.6,0,0,1-2-.43h0l0,0-.19.31h0c1.84,2,4.82,2.59,8.55,1.72a22,22,0,0,0,5.07-1.9h.13c1.53,0,3.55.87,5.84,2.53a29.23,29.23,0,0,1,3.07,2.56c-2.76,5.77-8.4,9-12.65,10.74a38,38,0,0,1-8.75,2.38l-1.49.18,1.49.19a65,65,0,0,0,8.17.57c11.79,0,16.07-4.26,17.51-8.21,1.69-4.68-.17-9.85-.56-10.84a10.81,10.81,0,0,1,6-.72C545,163.36,549.64,165.7,553.64,173.84Z"/><path class="cls-2" d="M679.11,181.59a34.06,34.06,0,0,1-8.55,4.55c-7,2.46-13.33,1.63-18.73-2.44l-.3-.22v6.12a48.61,48.61,0,0,1-6.21-2.57c-3-1.5-6.55-3.86-6.9-6.56l0-.2-.2,0a7.82,7.82,0,0,1-5.36-1c-3.48-2.14-5.16-7.28-4.88-14.84l0-1.07-.4,1a29.12,29.12,0,0,1-2.88,5.2c-1.66,2.37-4.35,5.32-7.83,6.13a31.23,31.23,0,0,0,1.06-4.1,43.27,43.27,0,0,0,.7-11.19v0a40.3,40.3,0,0,0-4.58-16.14,48.25,48.25,0,0,0-15.15-16.68,54.58,54.58,0,0,0-10.23-6.6c-5.53-2.73-13.76-5.45-21.56-3A68.64,68.64,0,0,0,560,114.9a49.06,49.06,0,0,0-11.54-3,124.54,124.54,0,0,1,38.86,3.33c20.27,5.22,36.11,15.78,47.07,31.4,12.93,18.44,24.47,29.84,34.3,33.91a18.33,18.33,0,0,0,7,1.56A10.48,10.48,0,0,0,679.11,181.59Z"/><path class="cls-1" d="M662,236.59c-.47,12.5-9.12,23.22-10.28,24.6l-.13.15a51,51,0,0,1-10.6,8.53c-5.92,3.55-15,7.15-24.83,4.1a27.3,27.3,0,0,1-14.56-12c-3.72-6.36-4-12.82-.77-18.2,2.69-4.48,7.69-6.68,13.69-6,5.44.59,10.86,3.51,13.82,7.44a.65.65,0,0,0,.49.26c.79.1,2.27-.85,4.46-2.77a41.67,41.67,0,0,0,4.22-4.2c4.4-6.66,4.29-14.89-.32-23.16a37.07,37.07,0,0,0-17.44-15.83c15.26,4,26.55,9.51,33.57,16.41C659.35,221.81,662.27,228.78,662,236.59Z"/><path class="cls-2" d="M684.2,256.81c-2.62,6.8-10.37,15.71-32.36,19.6a20.65,20.65,0,0,1-1.09-4.52,20.45,20.45,0,0,1,1.12-10.32c.52-.61,10-11.81,10.48-25,.3-7.92-2.66-15-8.79-21-7.36-7.22-19.35-12.93-35.64-17,27.93,1.53,44.49,13.22,53.52,22.87a61,61,0,0,1,13.07,21h0l0,.08a2.78,2.78,0,0,1,.1.3h0A21.44,21.44,0,0,1,684.2,256.81Z"/><path class="cls-1" d="M719.48,296.66a42.77,42.77,0,0,1-15.82,27.73h0a24.23,24.23,0,0,1-9.51,2.46c-4.83.19-11.68-1.26-17-9.22.8,0,2.67-.63,7.32-3.34,3.63-2.11,7.22-4.5,7.69-4.87a31.48,31.48,0,0,0,12.08-23.16c.61-7.95-1.14-17.08-5-26.39a48.34,48.34,0,0,0-5.5-10,20.51,20.51,0,0,0-8.66-7.2,60.76,60.76,0,0,0-13.26-21.43c-.54-.58-1.11-1.16-1.7-1.75,19.23,14.93,33.08,29.59,41.18,43.58C718,274.8,720.78,286.11,719.48,296.66Z"/><path class="cls-2" d="M729.43,299.63A45.71,45.71,0,0,1,727,313.56a117.42,117.42,0,0,1-5.4,13.17,61.77,61.77,0,0,0-4.73,14.17,47.94,47.94,0,0,0-.59,14.93,72.25,72.25,0,0,0,1.34,7.88A16.69,16.69,0,0,0,720,369.8c-1.53-.77-3.68-2-6.32-3.74s-4.66-3.08-4.89-3.24l0,0a31.36,31.36,0,0,1-6.33-10.34c-2.31-6-3.93-15.78,1.44-27.8.93-.67,13.78-10.4,16-28,1.31-10.64-1.5-22-8.34-33.85-8.55-14.75-23.45-30.23-44.3-46-10-8.8-26.17-17.78-51.19-18.71-8.61-2.59-17.15-2.41-23.84-1.92-3.77.27-7.61.72-11.32,1.14-5.25.61-10.67,1.23-16,1.4a173.93,173.93,0,0,1-17.58-.15,71.73,71.73,0,0,1-17-3,30.12,30.12,0,0,0,14.05-7.16l.1-.09c5.5-1,11.27-1.75,17.15-2.22,5.58-.45,11.41-.66,17.36-.64a247,247,0,0,1,25.24,1.42c8.2.88,16.61,2.19,25,3.88A114.65,114.65,0,0,1,675,211.38a145.05,145.05,0,0,1,34.48,36.93A165,165,0,0,1,723.2,272.7C727.45,282.48,729.48,291.29,729.43,299.63Z"/><path class="cls-2" d="M765.74,324.46,744.64,314v.29c-.1,2.63-.28,5.43-.54,8.31-.23,2.64-.53,5.35-.9,8.28-.69,5.43-1.83,10.7-2.93,15.79-.76,3.5-1.55,7.12-2.15,10.67-1.28,7.5-2.18,16.53.73,26.64a21.35,21.35,0,0,1-7.49,1.72A14.36,14.36,0,0,1,718,378.76l-.12-.18-.16.15a127.37,127.37,0,0,1-14,11.52A79.06,79.06,0,0,1,687.83,399a55.4,55.4,0,0,1-14.25,3.52,93.19,93.19,0,0,1-14.72.47,112,112,0,0,1-17.34-1.9,69.38,69.38,0,0,1-16.62-5.34,75.21,75.21,0,0,1-14.45-9.09,70.5,70.5,0,0,1-12-12.13c-6.56-8.55-10-19.92-9.59-32s4.54-23.34,11.72-31.49l.64-.71.66-.7a37.85,37.85,0,0,1,23.8-11.14,39.28,39.28,0,0,1,39.11,23.4c2.16,5.25,3.54,13-2.16,20.15a28.7,28.7,0,0,1-8.71,5.63c-6.64,2.58-12.25,1-16.67-4.78a18.45,18.45,0,0,1-1.24-7.5c.42-4.62,3.51-7,9.2-7,.3,0,.62,0,.94,0l0-.38h0a5.5,5.5,0,0,1-1.82-1.05l-.61-.47a12.49,12.49,0,0,0-1.29-.93,26,26,0,0,0-4.67-1.94,18,18,0,0,0-5-.81h-.17c-5.56,0-10.92,3.09-14.35,8.3a18.19,18.19,0,0,0-2.15,16.69c1.62,4.05,6.11,6.58,10.45,9l1.23.69c4.71,2.68,9,5.48,9.12,10.2v0h.37a14.34,14.34,0,0,1,1.62-6.35c1.6-3.08,5.12-7.1,12.84-8.73a16.28,16.28,0,0,1,6.81,2.49c4,2.76,5.29,7.08,3.72,12.85a8.65,8.65,0,0,0-3.14-1.74,15.72,15.72,0,0,0-4.26-1.18c-2.79.42-4.42,3.12-4.35,7.24.06,3.6,1.43,7.16,3.26,8.46,10.22,7.24,21.06,8.94,31.35,4.9,9.07-3.56,17.45-11.53,23.62-22.46.56.38,2.51,1.71,4.76,3.15a53.69,53.69,0,0,0,7.67,4.36l.14-.34h0c-1.24-.5-2.39-2.84-3.33-6.77a72.93,72.93,0,0,1-1.33-7.83,47.17,47.17,0,0,1,.59-14.81,60.91,60.91,0,0,1,4.7-14.09,120.06,120.06,0,0,0,5.42-13.21,46.51,46.51,0,0,0,2.45-14.05c.06-8.39-2-17.25-6.27-27.08a164.64,164.64,0,0,0-13.74-24.44,145.48,145.48,0,0,0-34.57-37A120.35,120.35,0,0,0,656,199.45c26.36,11.14,48.15,30.13,62.25,44.75a248.51,248.51,0,0,1,26.37,32.14l-.2,0,.19.33c.05.09,5.34,9.4,10.55,19.95C762,310.22,765.58,319.84,765.74,324.46Z"/><path class="cls-1" d="M765.71,260.47a22.37,22.37,0,0,1-3.14,8.89c-2.51,4-7.59,8.38-17.42,7a249,249,0,0,0-26.6-32.46c-15.48-16-40.22-37.37-70.1-47.83a112.45,112.45,0,0,0-19.19-5.68c-8.4-1.7-16.82-3-25-3.89A248.14,248.14,0,0,0,579,185.12c-6,0-11.8.19-17.39.64s-11.28,1.17-16.63,2.13a35.58,35.58,0,0,0,6.31-8.17,248.23,248.23,0,0,1,28.94-.73c9.38.3,19.09,1.09,28.86,2.37a214.33,214.33,0,0,1,31.62,6.53,183.89,183.89,0,0,1,30.1,11.59c6.4,3.14,12.1,6.27,17.45,9.55a151,151,0,0,1,16.23,11.47c4.81,3.91,8.91,8.71,12.88,13.35l.89,1c4.61,5.38,8.86,10.15,14.2,14a81.67,81.67,0,0,0,15.82,9.1C755,260.84,760.93,261.66,765.71,260.47Z"/><path class="cls-2" d="M692.77,438l0,0a40.59,40.59,0,0,1-6.89,8.66,33.73,33.73,0,0,1-9.1,6.29c-7.7,3.53-16.06,2.61-24.87-2.74-6.28-3.81-12.67-9.72-19.54-18.07a80.66,80.66,0,0,1-8.85-13.06,58.83,58.83,0,0,1-5.63-14.69,35.64,35.64,0,0,1-.86-6.24,17.28,17.28,0,0,1,.68-5.95,71.93,71.93,0,0,0,7,3.82c7.17,26.93,19.87,36.32,29.26,39.46a31.71,31.71,0,0,0,10,1.61,29.4,29.4,0,0,0,8.84-1.26h0a10.67,10.67,0,0,0,5.35-1.23c2.76-1.35,6.66-4.45,9.61-11.58a12.28,12.28,0,0,1,4.5,3.23C694.92,429.35,695.07,433.29,692.77,438Z"/><path class="cls-1" d="M672.68,435.48h0a31.21,31.21,0,0,1-18.61-.36c-9.28-3.1-21.8-12.36-28.95-38.91a64.33,64.33,0,0,0,12,4.24,33.5,33.5,0,0,0,8.38,14c5.67,5.33,15.91,9.66,32.53.09a19.17,19.17,0,0,1,2.3,7.42C680.84,427.6,678.25,432.16,672.68,435.48Z"/><path class="cls-2" d="M711.56,470.23a24.47,24.47,0,0,1-6.47,5.84c-4.06,2.57-10.92,5.39-20.6,4.13l-.71-.1.58.43a23.68,23.68,0,0,1,5.89,7.05c2.19,4.06,3.91,10.54-.21,18.46a18.61,18.61,0,0,0-4.51-3.9,13.29,13.29,0,0,0-12.3-1c-4.62,1.9-16-5.83-28.93-19.7-.36-.39-.73-.78-1.09-1.18a173.54,173.54,0,0,1-18-23.27l-.05-.08,0,0c-1.26-2.12-2.18-3.61-2.66-4.35-.07-.1-.12-.19-.18-.29l0-.05-.09-.15a86.5,86.5,0,0,1-6.86-14.43,102.35,102.35,0,0,1-4.13-16c-1.54-8.63-2.74-21.44.2-33.73q2.91,2.25,6,4.17a17.71,17.71,0,0,0-.72,6.16,36.16,36.16,0,0,0,.87,6.31,59.6,59.6,0,0,0,5.66,14.79,81,81,0,0,0,8.9,13.11c6.9,8.39,13.32,14.33,19.63,18.16,5.37,3.26,10.59,4.89,15.59,4.89a22.94,22.94,0,0,0,9.62-2.13,33.94,33.94,0,0,0,9.2-6.36,40.34,40.34,0,0,0,6.92-8.7,24.56,24.56,0,0,0,8.23-2.52,27.1,27.1,0,0,0,13-14.49,39.52,39.52,0,0,1,4.84,15c.84,8.1-.91,19.87-14,30l-.4.31.5,0a8.81,8.81,0,0,1,2.39.56A8.27,8.27,0,0,1,711.56,470.23Z"/><path class="cls-1" d="M662.84,545.68h0a18,18,0,0,1-4.84,4.44,13.93,13.93,0,0,1-12.87,1.2,17.08,17.08,0,0,0,7.54-7.16c3-5.18,5.22-14.87-.77-31.6a296.14,296.14,0,0,0-12.86-30c14,20.44,19.77,36.32,22.12,46.16C663.64,539.09,662.93,545,662.84,545.68Z"/><path class="cls-2" d="M674.82,571.38l.14.12-.19,0a20.59,20.59,0,0,1-.91,3.61,23.43,23.43,0,0,1-3.88,7.19c-5.35,6.6-14,8.85-25.07,6.51a15.78,15.78,0,0,1-6.28-2.41c-2.88-1.87-6.4-5.58-7-12.65a12.26,12.26,0,0,0,4.31,1.19c2.64.26,6.78-.09,11.59-3.26a34.81,34.81,0,0,0,10.83-11.16,36.21,36.21,0,0,0,4.85-14.69s0-.2.07-.57l0-.18v0c.17-1.91.37-7.58-1.75-16.47-2.43-10.2-8.5-26.85-23.59-48.33-1.88-3.75-3.67-7.15-5.25-10.09s-3.12-5.69-4.47-8.05a184,184,0,0,0,14.72,18.37l.1.11c2.69,3.24,5.51,6.87,8.62,11.09l2,2.68c2.19,3,4.34,6.11,6.3,8.88,1.05,1.49,2.14,3,3.2,4.48,1.76,2.45,3.59,5,5.31,7.53A80.84,80.84,0,0,1,675.64,528,62.69,62.69,0,0,1,681,550.06C681.3,558.83,679.24,566,674.82,571.38Z"/><path class="cls-2" d="M703.66,544.07a21.93,21.93,0,0,1-3.82.8,13.41,13.41,0,0,1-7.42-1h0a111.18,111.18,0,0,0-8.8-15.86,162.25,162.25,0,0,0-29.74-33.91l0,0c-.62-.88-1.27-1.75-1.9-2.62-2-2.67-3.81-5.1-5.58-7.35,12,12.37,22.4,19.13,26.93,17.38a52.6,52.6,0,0,1,14,9.5A51.79,51.79,0,0,1,703.66,544.07Z"/><path class="cls-1" d="M694.8,565.41a145.11,145.11,0,0,1-7.53,34.34c-6.31,17.51-19.11,39.16-44.22,42.92s-37.93-2.49-44.24-8.4a25.62,25.62,0,0,1-7.55-12.81,43.25,43.25,0,0,0,11.1,11.66,34.93,34.93,0,0,0,20.44,6.57,42.87,42.87,0,0,0,15-2.88c16.4-6.11,24.51-20.91,28.42-32.26a89.25,89.25,0,0,0,4.61-23.3,24.33,24.33,0,0,0,3.59-7.29,23,23,0,0,0,0,3.62c.23,2.71,1.08,4.72,2.53,6a3.64,3.64,0,0,0,4.07.81,13.39,13.39,0,0,0,3.37-2.47l.22-.19a33.62,33.62,0,0,0,8.5-11.56A29.71,29.71,0,0,0,694.8,565.41Z"/><path class="cls-1" d="M695.06,562.25h0a1.13,1.13,0,0,1,0,.14,29.8,29.8,0,0,1-2.23,7.62,33.34,33.34,0,0,1-8.41,11.43l-.22.2a13,13,0,0,1-3.26,2.4,3.25,3.25,0,0,1-3.69-.75c-1.37-1.2-2.18-3.13-2.4-5.74a30.84,30.84,0,0,1,.3-6.45c4.46-5.44,6.55-12.68,6.19-21.53A63,63,0,0,0,676,527.38a80.11,80.11,0,0,0-7.27-12.79c-1.72-2.55-3.54-5.08-5.31-7.53-1.06-1.47-2.15-3-3.2-4.48-1.68-2.39-3.51-5-5.39-7.61a161.18,161.18,0,0,1,28.49,32.8,110.33,110.33,0,0,1,8.81,15.89l.17-.07-.09.16c.13.07.4.35.79,1.51.14.44.27.89.37,1.25s.13.46.17.58a34.16,34.16,0,0,1,1.79,9A29.18,29.18,0,0,1,695.06,562.25Z"/><path class="cls-1" d="M693.48,602.69c-.43,3.1-.94,6.06-1.52,8.95a122.38,122.38,0,0,1-3.61,13.84,75.49,75.49,0,0,1-4.94,11.62,78,78,0,0,1-6.79,10.65c-2.1,2.77-3.9,5-5.67,7.06a82.37,82.37,0,0,1-6.26,6.52c-1.52,1.41-3.2,2.71-4.82,4-.71.55-1.42,1.1-2.12,1.66a32.49,32.49,0,0,0-6.32,6.35,39,39,0,0,0-3.45,6,41.88,41.88,0,0,0-2.4,6.5v.07a25.47,25.47,0,0,0,.94,4.13,13,13,0,0,0,3.31,5.74,29.56,29.56,0,0,1-10.17-3.58c-7-4.16-10-10.65-8.92-19.3l0-.39-.33.22a35.93,35.93,0,0,1-4.69,2.51,29,29,0,0,1-5,1.7,27.77,27.77,0,0,1-6.71.55l-2.16,0c-1.56,0-3.16-.08-4.68,0h-.35c-7.11.33-16,.74-23.68,3.18-9.24,2.92-14.62,8-16.43,15.63a29.69,29.69,0,0,1-8.79-9.93c-3.11-5.89-4.93-15.41,4-27.35a129.55,129.55,0,0,0,34,9.7,102.73,102.73,0,0,0,14,1,80.87,80.87,0,0,0,17.29-1.78,62.39,62.39,0,0,0,30.56-16.18c19-18.4,28-32.13,32.14-40.41A54.07,54.07,0,0,0,693.48,602.69Z"/><path class="cls-1" d="M555.78,553.89l0,0A67.19,67.19,0,0,0,534,585.59a74,74,0,0,1,4.06-13.4A68.6,68.6,0,0,1,553.61,549a35.21,35.21,0,0,0,6.72-8.43,13.58,13.58,0,0,0,1.63-9.5,12.71,12.71,0,0,1,1.95,5.75C564.25,540.63,563.12,546.65,555.78,553.89Z"/><path class="cls-1" d="M594.22,529.88a46.83,46.83,0,0,1-3.46,9.46,68.81,68.81,0,0,0-23.62,7.24,67.31,67.31,0,0,0-9.5,5.91c6-6.6,7-12.12,6.63-15.68a13,13,0,0,0-1.89-5.76,8.51,8.51,0,0,0,2.47.2,22.5,22.5,0,0,0,3.61-.42,18.25,18.25,0,0,0,5.92-2.74,28.4,28.4,0,0,0,4.88-4.34,43,43,0,0,0,4-4.88A10.7,10.7,0,0,0,585.4,513c0-1.62-.69-2.46-2.12-2.64a10.71,10.71,0,0,0-1.71,0,9,9,0,0,1-2-.06,2.28,2.28,0,0,1-2-2.61,2.59,2.59,0,0,1,2.76-2.21h0a11.71,11.71,0,0,1,6.83,2.39,23.43,23.43,0,0,1,5.2,5.3C596.05,518.13,595.4,525,594.22,529.88Z"/><path class="cls-2" d="M546.8,680.7c-5,8.26-13.47,18.51-27.89,28.26a113.74,113.74,0,0,1-15.65,9.22c-8.61,4.24-21.67,9.35-35,9.62s-24,.42-30.64.51c-7.15.09-11.19.11-11.23.11A63,63,0,0,0,415.13,730c-7,1.69-11.31,4.47-12.5,8.09a18.11,18.11,0,0,1,.93-8.68c2.45-6.38,8.87-10.11,18.57-10.79l1-.08-1-.29a12.92,12.92,0,0,1-2.9-1.4,9.41,9.41,0,0,1-4-4.76,12.53,12.53,0,0,1,3.68-2.6,13,13,0,0,1,10.4-.16l.17.06.07-.17a8.8,8.8,0,0,1,4.27-4.28c4-1.66,9.17.51,15,6.29l.25.24,1-5.46A63.63,63.63,0,0,0,463,708.38c6.82.56,16.63.16,24.61-5l.22-.14-.2-.16a1.55,1.55,0,0,1-.45-.92,3.52,3.52,0,0,1,1.39-2.73A27.62,27.62,0,0,0,495,701a34.92,34.92,0,0,0,15.71-1.72,49,49,0,0,0,14.11-2.75A46.44,46.44,0,0,0,546.8,680.7Z"/><path class="cls-1" d="M554.1,662.51a52.62,52.62,0,0,1-4,11.93c-.39.85-.83,1.74-1.31,2.67h0a45.69,45.69,0,0,1-24.15,19,48.68,48.68,0,0,1-14,2.73h0c-.33,0-4.29-.32-8.46-1-5.53-.89-9-2-10-3.32a15.46,15.46,0,0,1,1.44-1.57,8.48,8.48,0,0,1,3.6-2.15l.6-.13-.58-.22a12.8,12.8,0,0,1-4.3-3.11c-1.87-2.06-3.93-5.73-3.18-11.53a12,12,0,0,1,4.61-1.14c2.51-.09,6.19.61,9.5,4.59l.28.34.57-5.53a23.77,23.77,0,0,0,7.28,5,21.35,21.35,0,0,0,11.2,1.63,17.86,17.86,0,0,0,2.89.19,29.42,29.42,0,0,0,8.58-1.31C540.38,677.82,548.26,673.43,554.1,662.51Z"/><path class="cls-2" d="M695.41,579.9c-.17,5.66-.59,11.58-1.27,17.59v0c-.07.6-.14,1.18-.21,1.77a44.53,44.53,0,0,1-4.32,11.82c-4.16,8.26-13.11,21.95-32.07,40.31s-43.89,19.3-61.52,16.88a128.68,128.68,0,0,1-34-9.72,6.76,6.76,0,0,0-2.06-2c-1.14-.65-2.89-1-4.88.94a43.87,43.87,0,0,0-1.37-10.5c-1.42-5.48-4.61-12.92-11.79-17.21a16.39,16.39,0,0,0-4.71-1.56,11.44,11.44,0,0,0-8.82,1.8,22.94,22.94,0,0,0,.44-2.76c.2-2.35-.17-3.9-1.08-4.61a1,1,0,0,0-.91-.21c-.74.19-1.48,1.2-2.27,3.09a33.22,33.22,0,0,0-1.34,4.05,6.24,6.24,0,0,1-2,3c-1.52,1.33-4.46,2.89-9.91,2.89H511a18.59,18.59,0,0,1-.14-7.71c.78-4.1,3.33-10,11.09-14.71l-.2-.32a.84.84,0,0,1-.35,0,5.23,5.23,0,0,1-.6,0l-.46,0a3.89,3.89,0,0,0-.68-.06,22,22,0,0,0-2.71.23,21.34,21.34,0,0,0-2.66.59,16.5,16.5,0,0,0-7.78,5.14,19.31,19.31,0,0,0-4.2,8.39c-1.87,8.43.68,13.27,3.15,15.85a13.67,13.67,0,0,0,5.72,3.57,6.61,6.61,0,0,1-1.24,3c-1.51,2-4,2.77-7.43,2.32l-.05.37a2,2,0,0,1,.61.36l.22.18a5.57,5.57,0,0,0,.47.35,15.26,15.26,0,0,0,1.95.94,13.32,13.32,0,0,0,2.06.65,16.1,16.1,0,0,0,6.78.2,7.75,7.75,0,0,0,5.48-3.65,9,9,0,0,0,1-6.43,10.11,10.11,0,0,0-3.41-5.3,19.11,19.11,0,0,1,6.93-1.41h.08c5.33,0,9.61,2.48,12.69,7.37l0,0a16.78,16.78,0,0,1,.28,7.31c-.69,3.9-3.09,9.58-10.6,14.46s-15.22,1.82-20.39-1.59a45.4,45.4,0,0,1-9.56-8.69,34.93,34.93,0,0,1-5.8-10.94,27.94,27.94,0,0,1,3.56-24.86,38.82,38.82,0,0,1,10.49-8.13,34.68,34.68,0,0,1,27.93-2.33h0l.11-.35c-.15,0-.67-.59-.81-5.32-.06-2.23,0-4.52,0-5.5V599a71.44,71.44,0,0,1,.95-11.08c7.05-23.59,22.26-35.58,33.78-41.47a68.23,68.23,0,0,1,23.59-7.21v-.17l.15.09v0s.06-.07.31-.13a9,9,0,0,1,1.56-.18c.64,0,1.29,0,1.72,0h.47a44.27,44.27,0,0,1,5.4.05,46.8,46.8,0,0,1,17.9,4.88A38.25,38.25,0,0,1,629,551.55a33.84,33.84,0,0,1,6.57,10.57,26.23,26.23,0,0,1,2,12,12.12,12.12,0,0,1-1.64-.06,11.62,11.62,0,0,1-4.47-1.3l-.3-.19,0,.36a17.37,17.37,0,0,0,4.35,10.85,65.07,65.07,0,0,1-4.32,12.82,38.92,38.92,0,0,1-7.62,11.18,40.16,40.16,0,0,1-12,8.35c-5.2,2.23-9.91,2.49-14,.77a21.59,21.59,0,0,1-5.66-3.19,11.52,11.52,0,0,1-3.6-5.21,9.4,9.4,0,0,1-.57-4.57,2.9,2.9,0,0,1,3.07-2.51,5.91,5.91,0,0,1,2,.37,7.88,7.88,0,0,1,3.79,3,5.14,5.14,0,0,0,4.06,2.44,4.73,4.73,0,0,0,2.13-.35,17.31,17.31,0,0,0,9.87-10.58,25.68,25.68,0,0,0,0-14.73c-1.47-5.45-5.4-10.62-10.77-14.21s-11.71-5.21-17.31-4.4a21.26,21.26,0,0,0-4.6,1.21,22.88,22.88,0,0,0-4.25,2.14,8.94,8.94,0,0,0-1,.83l-.52.46c-.29.26-1.08,1-1.43,1l0,.38c.61,0,1.21-.08,1.8-.08,7,0,12.28,3.72,15.71,11.06a39.48,39.48,0,0,1,3.19,11.92,22.32,22.32,0,0,0-8.32-2.64,14.28,14.28,0,0,0-8.8,1.69c-5,2.89-8.37,8.95-9.34,16.63-.9,7.18.59,14.42,3.9,18.89a19.38,19.38,0,0,0,5.65,5.12l.78.36.67.3a7.91,7.91,0,0,1,1.23.6l.1-.11.22,0v0c-.31-3.93,1.49-7.14,5.34-9.56a20.8,20.8,0,0,1,5.75-2.43,25.67,25.67,0,0,0,7.83,13.84c6.37,6,19.27,12.27,44.54,8.49a47.74,47.74,0,0,0,28.84-15.73c6.37-7,11.64-16.23,15.68-27.42a146.44,146.44,0,0,0,7.6-35C695.49,569.77,695.55,574.79,695.41,579.9Z"/><path class="cls-1" d="M554.7,657.9V658h0a24.51,24.51,0,0,1-.36,3.27c-5.83,11.61-14,16.18-19.76,18a28.61,28.61,0,0,1-9.9,1.26,26.42,26.42,0,0,0,7.31-2.59,20.17,20.17,0,0,0,6.53-6c2.67-3.83,5.3-10.46,2.6-20.24a24.84,24.84,0,0,0-1-2.4,16.78,16.78,0,0,0-2.5-4.05l0,0c-3.92-6.22-9.22-7.55-13-7.55h-.07a18.89,18.89,0,0,0-7.36,1.57l-.26.12.22.19a9.79,9.79,0,0,1,3.52,5.29,8.59,8.59,0,0,1-1,6.16,7.38,7.38,0,0,1-5.22,3.47,16,16,0,0,1-6.62-.19,15.31,15.31,0,0,1-2-.64,16.68,16.68,0,0,1-1.9-.92,4.86,4.86,0,0,1-.41-.32l-.22-.17c3.9.3,5.9-1.2,6.93-2.55a6.86,6.86,0,0,0,1.33-3.32v-.15l-.15,0a13.26,13.26,0,0,1-5.7-3.51c-2.41-2.51-4.89-7.24-3.06-15.51a18.87,18.87,0,0,1,4.12-8.22,16,16,0,0,1,7.6-5,19.29,19.29,0,0,1,2.61-.58,21.36,21.36,0,0,1,2.67-.23,2.63,2.63,0,0,1,.62.06l.48.05.33,0c-7.37,4.72-9.84,10.49-10.6,14.55a18.42,18.42,0,0,0,.18,8l0,.13h.64c5.57,0,8.59-1.61,10.15-3a6.41,6.41,0,0,0,2.12-3.18,33,33,0,0,1,1.32-4c.92-2.19,1.61-2.77,2-2.88a.63.63,0,0,1,.59.14c1,.78,1.07,2.77.94,4.29a22.81,22.81,0,0,1-.55,3.21l-.15.55.45-.36a10.91,10.91,0,0,1,8.94-2,16.45,16.45,0,0,1,4.59,1.51c7.06,4.22,10.21,11.57,11.61,17A43.32,43.32,0,0,1,554.7,657.9Z"/><path class="cls-1" d="M396.2,31.68a103.91,103.91,0,0,0-25.11.06h0a12.56,12.56,0,0,1,25.12-.06Z"/><path class="cls-2" d="M398.34,4.53A14.71,14.71,0,1,1,369.64,0a14.71,14.71,0,0,0,14,10.17A14.72,14.72,0,0,0,397.63,0,14.76,14.76,0,0,1,398.34,4.53Z"/><path class="cls-2" d="M461.62,115.63a9.2,9.2,0,0,1-2.43,3.57,8.35,8.35,0,0,1-7.88,2.09c3.77-9.37-2.68-21.36-12.55-23.4s-20.54,6.42-20.79,16.52a12,12,0,0,1-6.39-14.68c1.87-5,6.85-8.09,11.34-11,7.68-5,15.41-11.74,16.61-20.84,1.32-10-6.84-20-16.79-21.68s-20.41,4.09-25.25,13c.77-5.37-2.38-10.5-5.94-14.61-2.58-3-5.47-5.78-7.65-9-.36-.56-.71-1.13-1-1.72a17.15,17.15,0,0,1-1,1.7c-2.16,3.25-5.07,6.07-7.65,9-3.54,4.11-6.7,9.24-5.94,14.61-4.84-8.87-15.3-14.68-25.24-13s-18.1,11.67-16.78,21.68c1.2,9.1,8.91,15.82,16.59,20.84,4.49,2.94,9.49,6,11.34,11a12,12,0,0,1-6.37,14.68c-.26-10.1-10.92-18.56-20.79-16.52s-16.33,14-12.56,23.4a8.32,8.32,0,0,1-7.87-2.09,9.36,9.36,0,0,1-2.45-3.57c-1.42-3.9-.81-9.15-.09-13.07.88-4.65,2.2-9.2,3.13-13.83,1.07-5.22,1.63-10.88.33-16.13a18.12,18.12,0,0,0-1.78-4.52c1.27-1.66,2.61-3.28,4-4.85C323.21,48,341.91,37.65,361.81,33.31c3.07-.67,6.15-1.19,9.27-1.57h0a103.91,103.91,0,0,1,25.11-.06,101.25,101.25,0,0,1,26.08,6.67A99.11,99.11,0,0,1,461,66.6a18.43,18.43,0,0,0-2.72,6c-1.3,5.25-.72,10.91.33,16.13.93,4.63,2.27,9.18,3.13,13.83C462.43,106.48,463,111.73,461.62,115.63Z"/><path class="cls-1" d="M485,132.2c-7.52,8.17-14.25,8.63-14.25,8.63-18.67,4.89-29.46-9.77-29.46-9.77,2.76-.59,8.94-6.67,8.94-6.67s15.25,8.42,25.24,1.82c5-3.28,7-6.83,7.69-9.58-.31-1.8-.66-3.57-1-5.33a107.53,107.53,0,0,0-13.39-34A96.15,96.15,0,0,0,461,66.6a18.43,18.43,0,0,0-2.72,6c-1.3,5.25-.72,10.91.33,16.13.93,4.63,2.27,9.18,3.13,13.83.72,3.92,1.33,9.17-.09,13.07a9.2,9.2,0,0,1-2.43,3.57,8.35,8.35,0,0,1-7.88,2.09c3.77-9.37-2.68-21.36-12.55-23.4s-20.54,6.42-20.79,16.52a12,12,0,0,1-6.39-14.68c1.87-5,6.85-8.09,11.34-11,7.68-5,15.41-11.74,16.61-20.84,1.32-10-6.84-20-16.79-21.68s-20.41,4.09-25.25,13c.77-5.37-2.38-10.5-5.94-14.61-2.58-3-5.47-5.78-7.65-9-.36-.56-.71-1.13-1-1.72a17.15,17.15,0,0,1-1,1.7c-2.16,3.25-5.07,6.07-7.65,9-3.54,4.11-6.7,9.24-5.94,14.61-4.84-8.87-15.3-14.68-25.24-13s-18.1,11.67-16.78,21.68c1.2,9.1,8.91,15.82,16.59,20.84,4.49,2.94,9.49,6,11.34,11a12,12,0,0,1-6.37,14.68c-.26-10.1-10.92-18.56-20.79-16.52s-16.33,14-12.56,23.4a8.32,8.32,0,0,1-7.87-2.09,9.36,9.36,0,0,1-2.45-3.57c-1.42-3.9-.81-9.15-.09-13.07.88-4.65,2.2-9.2,3.13-13.83,1.07-5.22,1.63-10.88.33-16.13a18.12,18.12,0,0,0-1.78-4.52,93.44,93.44,0,0,0-8.51,13.09,106.22,106.22,0,0,0-8,19.48,149.11,149.11,0,0,0-3.84,15.84v0c.63,2.75,2.41,6.37,7,9.71,9.06,6.6,22.9-1.83,22.9-1.83s5.6,6.08,8.11,6.68c0,0-9.77,14.66-26.71,9.77,0,0-6.45-.49-13.5-9.33-.05.39-.09.77-.14,1.16-1.08,10.2-2.84,21.57-1.41,32.16,19.8-17,58.08-28.5,102-28.5,42.86,0,80.3,10.93,100.5,27.21.17-1.52.34-3,.47-4.57A177.24,177.24,0,0,0,485,132.2Zm-119.47-3.35c-15.26,5.16-22.58-1.91-22.58-1.91.56-.24,2.55-3.08,2.55-3.08a25.63,25.63,0,0,0,15.1-5.43c6.84-5.56,4.14-12.56,4.14-12.56s-6.28-19.32.31-18.13,9.15,14.07,9.15,14.07-7.63.4-7.4,7.4,9.62,8.66,9.62,8.66C372.09,126.46,365.49,128.85,365.49,128.85Zm34.75,0s-6.6-2.39-10.9-11c0,0,9.39-1.66,9.62-8.66s-7.39-7.4-7.39-7.4,2.54-12.88,9.14-14.07.32,18.13.32,18.13-2.7,7,4.14,12.56a25.61,25.61,0,0,0,15.1,5.43s2,2.84,2.55,3.08C422.82,126.94,415.5,134,400.24,128.85Z"/><path class="cls-2" d="M383.63,136.34c-44,0-82.24,11.51-102,28.5a44,44,0,0,0,1.68,7.56,35.63,35.63,0,0,0,2.3,5.53,39.06,39.06,0,0,0,2.19,3.81,26.79,26.79,0,0,0,3.64,5c1.7,1.64,3.21,1.35,5.24.66s4.23-1.43,6.36-2.11c1.38-.44,2.76-.87,4.16-1.29,1.76-.55,3.51-1.07,5.29-1.54s3.56-1,5.34-1.45,3.55-.92,5.35-1.34c1.36-.34,2.73-.65,4.09-.93.74-.18,1.48-.34,2.24-.51.4-.07.8-.16,1.22-.25a255.07,255.07,0,0,1,52.48-5.59q3.68,0,7.33.09a217.33,217.33,0,0,1,73.27,13c.89.3,1.76.61,2.65.94,1.74.64,3.49,1.29,5.22,2,6.07,2.39,8.08-5,9.42-10.27.23-.94.46-1.8.66-2.54a78.75,78.75,0,0,0,2.41-12.08C463.93,147.27,426.49,136.34,383.63,136.34ZM392.44,158v5.18h-5.18l-3.66,3.66-3.66-3.66h-5.18V158l-3.66-3.66,3.66-3.66v-5.18h5.18l3.66-3.66,3.66,3.66h5.18v5.18l3.66,3.66Z"/><path class="cls-2" d="M485,132.2c-7.52,8.17-14.25,8.63-14.25,8.63-18.67,4.89-29.46-9.77-29.46-9.77,2.76-.59,8.94-6.67,8.94-6.67s15.25,8.42,25.24,1.82c5-3.28,7-6.83,7.69-9.58l.15.84c.6,3.57,1.06,7.19,1.39,10.82,0,.12,0,.25,0,.37Q484.84,130.43,485,132.2Z"/><path class="cls-2" d="M422.82,126.94s-7.32,7.07-22.58,1.91c0,0-6.6-2.39-10.9-11,0,0,9.39-1.66,9.62-8.66s-7.39-7.4-7.39-7.4,2.54-12.88,9.14-14.07.32,18.13.32,18.13-2.7,7,4.14,12.56a25.61,25.61,0,0,0,15.1,5.43S422.26,126.7,422.82,126.94Z"/><path class="cls-2" d="M323.35,131.08s-9.77,14.66-26.71,9.77c0,0-6.45-.49-13.5-9.33.55-5,1.27-10,2.21-15,.63,2.75,2.41,6.37,7,9.71,9.06,6.6,22.9-1.83,22.9-1.83S320.84,130.48,323.35,131.08Z"/><path class="cls-2" d="M376.38,117.87c-4.29,8.59-10.89,11-10.89,11-15.26,5.16-22.58-1.91-22.58-1.91.56-.24,2.55-3.08,2.55-3.08a25.63,25.63,0,0,0,15.1-5.43c6.84-5.56,4.14-12.56,4.14-12.56s-6.28-19.32.31-18.13,9.15,14.07,9.15,14.07-7.63.4-7.4,7.4S376.38,117.87,376.38,117.87Z"/><path class="cls-2" d="M374.74,219.47a30.92,30.92,0,0,0-3.3,1.18c-2.21.83-4.41,1.68-6.62,2.52q-4.9,1.85-9.85,3.6-6.47,2.29-13,4.42-8,2.59-16,5-9.45,2.78-19,5.26-10.86,2.84-21.83,5.28-12.26,2.75-24.6,5.05-13.6,2.52-27.28,4.53c-3.4.5-6.8,1-10.2,1.43a16.94,16.94,0,0,0-4.61.79,7.82,7.82,0,0,0-3.06,2.76c-2.45,3.49-2.27,7.9-2.22,12,0,2.23,0,4.47,0,6.7v49.37c0,1.68,0,3.37,0,5.06,1.37,45.2,6.14,91,15.45,135.27,4.15,19.73,9,39.58,17.61,57.91,8.4,17.87,21.25,33.3,34.31,48,23.88,26.82,51,52,80.84,72.16A127.63,127.63,0,0,0,373,655q2.35,1.23,4.75,2.35a25.05,25.05,0,0,0,4.62,1.89,8,8,0,0,0,1.09.19V218A48.91,48.91,0,0,0,374.74,219.47ZM539.3,291.61c-.06-.15-1.2-.28-1.39-.31-9.76-1.88-17.66,4.24-22.84,11.95a62.35,62.35,0,0,0-8.7,19.53,13.79,13.79,0,0,1-1.87,5.07,19,19,0,0,1-3.08,3.32c-.11.1-2.56,1.88-2.73,1.54,0,0-4.61-9.28-12.86-7.38s-10.23,14.82-10.23,14.82c-5.68,2-6.06,2.56-6.06,2.56a32.48,32.48,0,0,0-4.05-11.49c-3.36-5.55-8.57-8.33-14.93-6.18-5.63,1.91-10.45,6.17-14.41,10.47-.39.41-.75.82-1.1,1.22-1.5,1.72-5.06,5.11-2.67,7.5,2.8,2.79,6.34-2.52,8-4.3a41.82,41.82,0,0,1,8-6.92c3.79-2.42,8.49-3.92,11.3.58a16.6,16.6,0,0,1,2.17,6.46c.11.77,1,6.12.39,6.47,0,0-15.76,9.34-18.33,19s7.45,9.82,7.45,9.82c18.55-1.63,21-25.53,21-25.53a19.72,19.72,0,0,1,2.31-1.62l.61,4.6c2.44,6.68,11.11,1,12,.46-1.34,1.12-21.39,17.88-25.31,25.34-4.06,7.71,6.29,11.57,6.29,11.57-10.37,16.19-20,32.47-27.15,50.25q-4.92,12.28-8.62,25c-6.2,21.4-12.23,45.75-5,67.65.68,2.05,1.95,5.48,4.59,5.55,3.41.09,3.49-4.37,3.43-6.78-.22-8.44-2.8-16.52-2.54-25.15a161.41,161.41,0,0,1,3.31-25.9q1.56-8.12,3.69-16.11a223.5,223.5,0,0,1,7.19-22.25,182.81,182.81,0,0,1,22.63-42.5c1.52-2.07,3.09-4.11,4.75-6.07.36-.41,1.22-1.85,1.78-2,0,0,50.33-14.35,51.41-30.73s-21-21.68-21-21.68c1.07-1.52,1.12-5.94,1.12-5.94C547.71,312.17,539.31,291.62,539.3,291.61Zm-8.73,8c6.6,10.25-15.91,20.22-15.91,20.22C520.39,297.73,530.57,299.64,530.57,299.64Zm-71.72,63.45c-4,6.35-8.19,4.94-8.19,4.94,1.85-6.29,12.28-13,12.28-13S462.81,356.75,458.85,363.09Zm22.27-13.29v-4.67h5.28Zm2.44-11.88s1-5.89,3.86-5.69S492.8,337,492.8,337ZM473,383.34c-2.91,2.44-4.6-1.08-4.6-1.08,1.86-7.33,16.52-17.35,17-17.66Zm43.73-17.09c-13.1,13.4-34.46,15.43-34.46,15.43,7.48-8.43,22.78-35.44,22.78-35.44S529.86,352.84,516.76,366.25Zm22.54-74.64c-.06-.15-1.2-.28-1.39-.31-9.76-1.88-17.66,4.24-22.84,11.95a62.35,62.35,0,0,0-8.7,19.53,13.79,13.79,0,0,1-1.87,5.07,19,19,0,0,1-3.08,3.32c-.11.1-2.56,1.88-2.73,1.54,0,0-4.61-9.28-12.86-7.38s-10.23,14.82-10.23,14.82c-5.68,2-6.06,2.56-6.06,2.56a32.48,32.48,0,0,0-4.05-11.49c-3.36-5.55-8.57-8.33-14.93-6.18-5.63,1.91-10.45,6.17-14.41,10.47-.39.41-.75.82-1.1,1.22-1.5,1.72-5.06,5.11-2.67,7.5,2.8,2.79,6.34-2.52,8-4.3a41.82,41.82,0,0,1,8-6.92c3.79-2.42,8.49-3.92,11.3.58a16.6,16.6,0,0,1,2.17,6.46c.11.77,1,6.12.39,6.47,0,0-15.76,9.34-18.33,19s7.45,9.82,7.45,9.82c18.55-1.63,21-25.53,21-25.53a19.72,19.72,0,0,1,2.31-1.62l.61,4.6c2.44,6.68,11.11,1,12,.46-1.34,1.12-21.39,17.88-25.31,25.34-4.06,7.71,6.29,11.57,6.29,11.57-10.37,16.19-20,32.47-27.15,50.25q-4.92,12.28-8.62,25c-6.2,21.4-12.23,45.75-5,67.65.68,2.05,1.95,5.48,4.59,5.55,3.41.09,3.49-4.37,3.43-6.78-.22-8.44-2.8-16.52-2.54-25.15a161.41,161.41,0,0,1,3.31-25.9q1.56-8.12,3.69-16.11a223.5,223.5,0,0,1,7.19-22.25,182.81,182.81,0,0,1,22.63-42.5c1.52-2.07,3.09-4.11,4.75-6.07.36-.41,1.22-1.85,1.78-2,0,0,50.33-14.35,51.41-30.73s-21-21.68-21-21.68c1.07-1.52,1.12-5.94,1.12-5.94C547.71,312.17,539.31,291.62,539.3,291.61Zm-8.73,8c6.6,10.25-15.91,20.22-15.91,20.22C520.39,297.73,530.57,299.64,530.57,299.64Zm-71.72,63.45c-4,6.35-8.19,4.94-8.19,4.94,1.85-6.29,12.28-13,12.28-13S462.81,356.75,458.85,363.09Zm22.27-13.29v-4.67h5.28Zm2.44-11.88s1-5.89,3.86-5.69S492.8,337,492.8,337ZM473,383.34c-2.91,2.44-4.6-1.08-4.6-1.08,1.86-7.33,16.52-17.35,17-17.66Zm43.73-17.09c-13.1,13.4-34.46,15.43-34.46,15.43,7.48-8.43,22.78-35.44,22.78-35.44S529.86,352.84,516.76,366.25Zm-142-146.78a30.92,30.92,0,0,0-3.3,1.18c-2.21.83-4.41,1.68-6.62,2.52q-4.9,1.85-9.85,3.6-6.47,2.29-13,4.42-8,2.59-16,5-9.45,2.78-19,5.26-10.86,2.84-21.83,5.28-12.26,2.75-24.6,5.05-13.6,2.52-27.28,4.53c-3.4.5-6.8,1-10.2,1.43a16.94,16.94,0,0,0-4.61.79,7.82,7.82,0,0,0-3.06,2.76c-2.45,3.49-2.27,7.9-2.22,12,0,2.23,0,4.47,0,6.7v49.37c0,1.68,0,3.37,0,5.06,1.37,45.2,6.14,91,15.45,135.27,4.15,19.73,9,39.58,17.61,57.91,8.4,17.87,21.25,33.3,34.31,48,23.88,26.82,51,52,80.84,72.16A127.63,127.63,0,0,0,373,655q2.35,1.23,4.75,2.35a25.05,25.05,0,0,0,4.62,1.89,8,8,0,0,0,1.09.19V218A48.91,48.91,0,0,0,374.74,219.47Zm0,0a30.92,30.92,0,0,0-3.3,1.18c-2.21.83-4.41,1.68-6.62,2.52q-4.9,1.85-9.85,3.6-6.47,2.29-13,4.42-8,2.59-16,5-9.45,2.78-19,5.26-10.86,2.84-21.83,5.28-12.26,2.75-24.6,5.05-13.6,2.52-27.28,4.53c-3.4.5-6.8,1-10.2,1.43a16.94,16.94,0,0,0-4.61.79,7.82,7.82,0,0,0-3.06,2.76c-2.45,3.49-2.27,7.9-2.22,12,0,2.23,0,4.47,0,6.7v49.37c0,1.68,0,3.37,0,5.06,1.37,45.2,6.14,91,15.45,135.27,4.15,19.73,9,39.58,17.61,57.91,8.4,17.87,21.25,33.3,34.31,48,23.88,26.82,51,52,80.84,72.16A127.63,127.63,0,0,0,373,655q2.35,1.23,4.75,2.35a25.05,25.05,0,0,0,4.62,1.89,8,8,0,0,0,1.09.19V218A48.91,48.91,0,0,0,374.74,219.47ZM539.3,291.61c-.06-.15-1.2-.28-1.39-.31-9.76-1.88-17.66,4.24-22.84,11.95a62.35,62.35,0,0,0-8.7,19.53,13.79,13.79,0,0,1-1.87,5.07,19,19,0,0,1-3.08,3.32c-.11.1-2.56,1.88-2.73,1.54,0,0-4.61-9.28-12.86-7.38s-10.23,14.82-10.23,14.82c-5.68,2-6.06,2.56-6.06,2.56a32.48,32.48,0,0,0-4.05-11.49c-3.36-5.55-8.57-8.33-14.93-6.18-5.63,1.91-10.45,6.17-14.41,10.47-.39.41-.75.82-1.1,1.22-1.5,1.72-5.06,5.11-2.67,7.5,2.8,2.79,6.34-2.52,8-4.3a41.82,41.82,0,0,1,8-6.92c3.79-2.42,8.49-3.92,11.3.58a16.6,16.6,0,0,1,2.17,6.46c.11.77,1,6.12.39,6.47,0,0-15.76,9.34-18.33,19s7.45,9.82,7.45,9.82c18.55-1.63,21-25.53,21-25.53a19.72,19.72,0,0,1,2.31-1.62l.61,4.6c2.44,6.68,11.11,1,12,.46-1.34,1.12-21.39,17.88-25.31,25.34-4.06,7.71,6.29,11.57,6.29,11.57-10.37,16.19-20,32.47-27.15,50.25q-4.92,12.28-8.62,25c-6.2,21.4-12.23,45.75-5,67.65.68,2.05,1.95,5.48,4.59,5.55,3.41.09,3.49-4.37,3.43-6.78-.22-8.44-2.8-16.52-2.54-25.15a161.41,161.41,0,0,1,3.31-25.9q1.56-8.12,3.69-16.11a223.5,223.5,0,0,1,7.19-22.25,182.81,182.81,0,0,1,22.63-42.5c1.52-2.07,3.09-4.11,4.75-6.07.36-.41,1.22-1.85,1.78-2,0,0,50.33-14.35,51.41-30.73s-21-21.68-21-21.68c1.07-1.52,1.12-5.94,1.12-5.94C547.71,312.17,539.31,291.62,539.3,291.61Zm-8.73,8c6.6,10.25-15.91,20.22-15.91,20.22C520.39,297.73,530.57,299.64,530.57,299.64Zm-71.72,63.45c-4,6.35-8.19,4.94-8.19,4.94,1.85-6.29,12.28-13,12.28-13S462.81,356.75,458.85,363.09Zm22.27-13.29v-4.67h5.28Zm2.44-11.88s1-5.89,3.86-5.69S492.8,337,492.8,337ZM473,383.34c-2.91,2.44-4.6-1.08-4.6-1.08,1.86-7.33,16.52-17.35,17-17.66Zm43.73-17.09c-13.1,13.4-34.46,15.43-34.46,15.43,7.48-8.43,22.78-35.44,22.78-35.44S529.86,352.84,516.76,366.25Zm22.54-74.64c-.06-.15-1.2-.28-1.39-.31-9.76-1.88-17.66,4.24-22.84,11.95a62.35,62.35,0,0,0-8.7,19.53,13.79,13.79,0,0,1-1.87,5.07,19,19,0,0,1-3.08,3.32c-.11.1-2.56,1.88-2.73,1.54,0,0-4.61-9.28-12.86-7.38s-10.23,14.82-10.23,14.82c-5.68,2-6.06,2.56-6.06,2.56a32.48,32.48,0,0,0-4.05-11.49c-3.36-5.55-8.57-8.33-14.93-6.18-5.63,1.91-10.45,6.17-14.41,10.47-.39.41-.75.82-1.1,1.22-1.5,1.72-5.06,5.11-2.67,7.5,2.8,2.79,6.34-2.52,8-4.3a41.82,41.82,0,0,1,8-6.92c3.79-2.42,8.49-3.92,11.3.58a16.6,16.6,0,0,1,2.17,6.46c.11.77,1,6.12.39,6.47,0,0-15.76,9.34-18.33,19s7.45,9.82,7.45,9.82c18.55-1.63,21-25.53,21-25.53a19.72,19.72,0,0,1,2.31-1.62l.61,4.6c2.44,6.68,11.11,1,12,.46-1.34,1.12-21.39,17.88-25.31,25.34-4.06,7.71,6.29,11.57,6.29,11.57-10.37,16.19-20,32.47-27.15,50.25q-4.92,12.28-8.62,25c-6.2,21.4-12.23,45.75-5,67.65.68,2.05,1.95,5.48,4.59,5.55,3.41.09,3.49-4.37,3.43-6.78-.22-8.44-2.8-16.52-2.54-25.15a161.41,161.41,0,0,1,3.31-25.9q1.56-8.12,3.69-16.11a223.5,223.5,0,0,1,7.19-22.25,182.81,182.81,0,0,1,22.63-42.5c1.52-2.07,3.09-4.11,4.75-6.07.36-.41,1.22-1.85,1.78-2,0,0,50.33-14.35,51.41-30.73s-21-21.68-21-21.68c1.07-1.52,1.12-5.94,1.12-5.94C547.71,312.17,539.31,291.62,539.3,291.61Zm-8.73,8c6.6,10.25-15.91,20.22-15.91,20.22C520.39,297.73,530.57,299.64,530.57,299.64Zm-71.72,63.45c-4,6.35-8.19,4.94-8.19,4.94,1.85-6.29,12.28-13,12.28-13S462.81,356.75,458.85,363.09Zm22.27-13.29v-4.67h5.28Zm2.44-11.88s1-5.89,3.86-5.69S492.8,337,492.8,337ZM473,383.34c-2.91,2.44-4.6-1.08-4.6-1.08,1.86-7.33,16.52-17.35,17-17.66Zm43.73-17.09c-13.1,13.4-34.46,15.43-34.46,15.43,7.48-8.43,22.78-35.44,22.78-35.44S529.86,352.84,516.76,366.25Zm-142-146.78a30.92,30.92,0,0,0-3.3,1.18c-2.21.83-4.41,1.68-6.62,2.52q-4.9,1.85-9.85,3.6-6.47,2.29-13,4.42-8,2.59-16,5-9.45,2.78-19,5.26-10.86,2.84-21.83,5.28-12.26,2.75-24.6,5.05-13.6,2.52-27.28,4.53c-3.4.5-6.8,1-10.2,1.43a16.94,16.94,0,0,0-4.61.79,7.82,7.82,0,0,0-3.06,2.76c-2.45,3.49-2.27,7.9-2.22,12,0,2.23,0,4.47,0,6.7v49.37c0,1.68,0,3.37,0,5.06,1.37,45.2,6.14,91,15.45,135.27,4.15,19.73,9,39.58,17.61,57.91,8.4,17.87,21.25,33.3,34.31,48,23.88,26.82,51,52,80.84,72.16A127.63,127.63,0,0,0,373,655q2.35,1.23,4.75,2.35a25.05,25.05,0,0,0,4.62,1.89,8,8,0,0,0,1.09.19V218A48.91,48.91,0,0,0,374.74,219.47Zm0,0a30.92,30.92,0,0,0-3.3,1.18c-2.21.83-4.41,1.68-6.62,2.52q-4.9,1.85-9.85,3.6-6.47,2.29-13,4.42-8,2.59-16,5-9.45,2.78-19,5.26-10.86,2.84-21.83,5.28-12.26,2.75-24.6,5.05-13.6,2.52-27.28,4.53c-3.4.5-6.8,1-10.2,1.43a16.94,16.94,0,0,0-4.61.79,7.82,7.82,0,0,0-3.06,2.76c-2.45,3.49-2.27,7.9-2.22,12,0,2.23,0,4.47,0,6.7v49.37c0,1.68,0,3.37,0,5.06,1.37,45.2,6.14,91,15.45,135.27,4.15,19.73,9,39.58,17.61,57.91,8.4,17.87,21.25,33.3,34.31,48,23.88,26.82,51,52,80.84,72.16A127.63,127.63,0,0,0,373,655q2.35,1.23,4.75,2.35a25.05,25.05,0,0,0,4.62,1.89,8,8,0,0,0,1.09.19V218A48.91,48.91,0,0,0,374.74,219.47ZM539.3,291.61c-.06-.15-1.2-.28-1.39-.31-9.76-1.88-17.66,4.24-22.84,11.95a62.35,62.35,0,0,0-8.7,19.53,13.79,13.79,0,0,1-1.87,5.07,19,19,0,0,1-3.08,3.32c-.11.1-2.56,1.88-2.73,1.54,0,0-4.61-9.28-12.86-7.38s-10.23,14.82-10.23,14.82c-5.68,2-6.06,2.56-6.06,2.56a32.48,32.48,0,0,0-4.05-11.49c-3.36-5.55-8.57-8.33-14.93-6.18-5.63,1.91-10.45,6.17-14.41,10.47-.39.41-.75.82-1.1,1.22-1.5,1.72-5.06,5.11-2.67,7.5,2.8,2.79,6.34-2.52,8-4.3a41.82,41.82,0,0,1,8-6.92c3.79-2.42,8.49-3.92,11.3.58a16.6,16.6,0,0,1,2.17,6.46c.11.77,1,6.12.39,6.47,0,0-15.76,9.34-18.33,19s7.45,9.82,7.45,9.82c18.55-1.63,21-25.53,21-25.53a19.72,19.72,0,0,1,2.31-1.62l.61,4.6c2.44,6.68,11.11,1,12,.46-1.34,1.12-21.39,17.88-25.31,25.34-4.06,7.71,6.29,11.57,6.29,11.57-10.37,16.19-20,32.47-27.15,50.25q-4.92,12.28-8.62,25c-6.2,21.4-12.23,45.75-5,67.65.68,2.05,1.95,5.48,4.59,5.55,3.41.09,3.49-4.37,3.43-6.78-.22-8.44-2.8-16.52-2.54-25.15a161.41,161.41,0,0,1,3.31-25.9q1.56-8.12,3.69-16.11a223.5,223.5,0,0,1,7.19-22.25,182.81,182.81,0,0,1,22.63-42.5c1.52-2.07,3.09-4.11,4.75-6.07.36-.41,1.22-1.85,1.78-2,0,0,50.33-14.35,51.41-30.73s-21-21.68-21-21.68c1.07-1.52,1.12-5.94,1.12-5.94C547.71,312.17,539.31,291.62,539.3,291.61Zm-8.73,8c6.6,10.25-15.91,20.22-15.91,20.22C520.39,297.73,530.57,299.64,530.57,299.64Zm-71.72,63.45c-4,6.35-8.19,4.94-8.19,4.94,1.85-6.29,12.28-13,12.28-13S462.81,356.75,458.85,363.09Zm22.27-13.29v-4.67h5.28Zm2.44-11.88s1-5.89,3.86-5.69S492.8,337,492.8,337ZM473,383.34c-2.91,2.44-4.6-1.08-4.6-1.08,1.86-7.33,16.52-17.35,17-17.66Zm43.73-17.09c-13.1,13.4-34.46,15.43-34.46,15.43,7.48-8.43,22.78-35.44,22.78-35.44S529.86,352.84,516.76,366.25Zm22.54-74.64c-.06-.15-1.2-.28-1.39-.31-9.76-1.88-17.66,4.24-22.84,11.95a62.35,62.35,0,0,0-8.7,19.53,13.79,13.79,0,0,1-1.87,5.07,19,19,0,0,1-3.08,3.32c-.11.1-2.56,1.88-2.73,1.54,0,0-4.61-9.28-12.86-7.38s-10.23,14.82-10.23,14.82c-5.68,2-6.06,2.56-6.06,2.56a32.48,32.48,0,0,0-4.05-11.49c-3.36-5.55-8.57-8.33-14.93-6.18-5.63,1.91-10.45,6.17-14.41,10.47-.39.41-.75.82-1.1,1.22-1.5,1.72-5.06,5.11-2.67,7.5,2.8,2.79,6.34-2.52,8-4.3a41.82,41.82,0,0,1,8-6.92c3.79-2.42,8.49-3.92,11.3.58a16.6,16.6,0,0,1,2.17,6.46c.11.77,1,6.12.39,6.47,0,0-15.76,9.34-18.33,19s7.45,9.82,7.45,9.82c18.55-1.63,21-25.53,21-25.53a19.72,19.72,0,0,1,2.31-1.62l.61,4.6c2.44,6.68,11.11,1,12,.46-1.34,1.12-21.39,17.88-25.31,25.34-4.06,7.71,6.29,11.57,6.29,11.57-10.37,16.19-20,32.47-27.15,50.25q-4.92,12.28-8.62,25c-6.2,21.4-12.23,45.75-5,67.65.68,2.05,1.95,5.48,4.59,5.55,3.41.09,3.49-4.37,3.43-6.78-.22-8.44-2.8-16.52-2.54-25.15a161.41,161.41,0,0,1,3.31-25.9q1.56-8.12,3.69-16.11a223.5,223.5,0,0,1,7.19-22.25,182.81,182.81,0,0,1,22.63-42.5c1.52-2.07,3.09-4.11,4.75-6.07.36-.41,1.22-1.85,1.78-2,0,0,50.33-14.35,51.41-30.73s-21-21.68-21-21.68c1.07-1.52,1.12-5.94,1.12-5.94C547.71,312.17,539.31,291.62,539.3,291.61Zm-8.73,8c6.6,10.25-15.91,20.22-15.91,20.22C520.39,297.73,530.57,299.64,530.57,299.64Zm-71.72,63.45c-4,6.35-8.19,4.94-8.19,4.94,1.85-6.29,12.28-13,12.28-13S462.81,356.75,458.85,363.09Zm22.27-13.29v-4.67h5.28Zm2.44-11.88s1-5.89,3.86-5.69S492.8,337,492.8,337ZM473,383.34c-2.91,2.44-4.6-1.08-4.6-1.08,1.86-7.33,16.52-17.35,17-17.66Zm43.73-17.09c-13.1,13.4-34.46,15.43-34.46,15.43,7.48-8.43,22.78-35.44,22.78-35.44S529.86,352.84,516.76,366.25Zm-142-146.78a30.92,30.92,0,0,0-3.3,1.18c-2.21.83-4.41,1.68-6.62,2.52q-4.9,1.85-9.85,3.6-6.47,2.29-13,4.42-8,2.59-16,5-9.45,2.78-19,5.26-10.86,2.84-21.83,5.28-12.26,2.75-24.6,5.05-13.6,2.52-27.28,4.53c-3.4.5-6.8,1-10.2,1.43a16.94,16.94,0,0,0-4.61.79,7.82,7.82,0,0,0-3.06,2.76c-2.45,3.49-2.27,7.9-2.22,12,0,2.23,0,4.47,0,6.7v49.37c0,1.68,0,3.37,0,5.06,1.37,45.2,6.14,91,15.45,135.27,4.15,19.73,9,39.58,17.61,57.91,8.4,17.87,21.25,33.3,34.31,48,23.88,26.82,51,52,80.84,72.16A127.63,127.63,0,0,0,373,655q2.35,1.23,4.75,2.35a25.05,25.05,0,0,0,4.62,1.89,8,8,0,0,0,1.09.19V218A48.91,48.91,0,0,0,374.74,219.47Zm0,0a30.92,30.92,0,0,0-3.3,1.18c-2.21.83-4.41,1.68-6.62,2.52q-4.9,1.85-9.85,3.6-6.47,2.29-13,4.42-8,2.59-16,5-9.45,2.78-19,5.26-10.86,2.84-21.83,5.28-12.26,2.75-24.6,5.05-13.6,2.52-27.28,4.53c-3.4.5-6.8,1-10.2,1.43a16.94,16.94,0,0,0-4.61.79,7.82,7.82,0,0,0-3.06,2.76c-2.45,3.49-2.27,7.9-2.22,12,0,2.23,0,4.47,0,6.7v49.37c0,1.68,0,3.37,0,5.06,1.37,45.2,6.14,91,15.45,135.27,4.15,19.73,9,39.58,17.61,57.91,8.4,17.87,21.25,33.3,34.31,48,23.88,26.82,51,52,80.84,72.16A127.63,127.63,0,0,0,373,655q2.35,1.23,4.75,2.35a25.05,25.05,0,0,0,4.62,1.89,8,8,0,0,0,1.09.19V218A48.91,48.91,0,0,0,374.74,219.47ZM539.3,291.61c-.06-.15-1.2-.28-1.39-.31-9.76-1.88-17.66,4.24-22.84,11.95a62.35,62.35,0,0,0-8.7,19.53,13.79,13.79,0,0,1-1.87,5.07,19,19,0,0,1-3.08,3.32c-.11.1-2.56,1.88-2.73,1.54,0,0-4.61-9.28-12.86-7.38s-10.23,14.82-10.23,14.82c-5.68,2-6.06,2.56-6.06,2.56a32.48,32.48,0,0,0-4.05-11.49c-3.36-5.55-8.57-8.33-14.93-6.18-5.63,1.91-10.45,6.17-14.41,10.47-.39.41-.75.82-1.1,1.22-1.5,1.72-5.06,5.11-2.67,7.5,2.8,2.79,6.34-2.52,8-4.3a41.82,41.82,0,0,1,8-6.92c3.79-2.42,8.49-3.92,11.3.58a16.6,16.6,0,0,1,2.17,6.46c.11.77,1,6.12.39,6.47,0,0-15.76,9.34-18.33,19s7.45,9.82,7.45,9.82c18.55-1.63,21-25.53,21-25.53a19.72,19.72,0,0,1,2.31-1.62l.61,4.6c2.44,6.68,11.11,1,12,.46-1.34,1.12-21.39,17.88-25.31,25.34-4.06,7.71,6.29,11.57,6.29,11.57-10.37,16.19-20,32.47-27.15,50.25q-4.92,12.28-8.62,25c-6.2,21.4-12.23,45.75-5,67.65.68,2.05,1.95,5.48,4.59,5.55,3.41.09,3.49-4.37,3.43-6.78-.22-8.44-2.8-16.52-2.54-25.15a161.41,161.41,0,0,1,3.31-25.9q1.56-8.12,3.69-16.11a223.5,223.5,0,0,1,7.19-22.25,182.81,182.81,0,0,1,22.63-42.5c1.52-2.07,3.09-4.11,4.75-6.07.36-.41,1.22-1.85,1.78-2,0,0,50.33-14.35,51.41-30.73s-21-21.68-21-21.68c1.07-1.52,1.12-5.94,1.12-5.94C547.71,312.17,539.31,291.62,539.3,291.61Zm-8.73,8c6.6,10.25-15.91,20.22-15.91,20.22C520.39,297.73,530.57,299.64,530.57,299.64Zm-71.72,63.45c-4,6.35-8.19,4.94-8.19,4.94,1.85-6.29,12.28-13,12.28-13S462.81,356.75,458.85,363.09Zm22.27-13.29v-4.67h5.28Zm2.44-11.88s1-5.89,3.86-5.69S492.8,337,492.8,337ZM473,383.34c-2.91,2.44-4.6-1.08-4.6-1.08,1.86-7.33,16.52-17.35,17-17.66Zm43.73-17.09c-13.1,13.4-34.46,15.43-34.46,15.43,7.48-8.43,22.78-35.44,22.78-35.44S529.86,352.84,516.76,366.25Zm22.54-74.64c-.06-.15-1.2-.28-1.39-.31-9.76-1.88-17.66,4.24-22.84,11.95a62.35,62.35,0,0,0-8.7,19.53,13.79,13.79,0,0,1-1.87,5.07,19,19,0,0,1-3.08,3.32c-.11.1-2.56,1.88-2.73,1.54,0,0-4.61-9.28-12.86-7.38s-10.23,14.82-10.23,14.82c-5.68,2-6.06,2.56-6.06,2.56a32.48,32.48,0,0,0-4.05-11.49c-3.36-5.55-8.57-8.33-14.93-6.18-5.63,1.91-10.45,6.17-14.41,10.47-.39.41-.75.82-1.1,1.22-1.5,1.72-5.06,5.11-2.67,7.5,2.8,2.79,6.34-2.52,8-4.3a41.82,41.82,0,0,1,8-6.92c3.79-2.42,8.49-3.92,11.3.58a16.6,16.6,0,0,1,2.17,6.46c.11.77,1,6.12.39,6.47,0,0-15.76,9.34-18.33,19s7.45,9.82,7.45,9.82c18.55-1.63,21-25.53,21-25.53a19.72,19.72,0,0,1,2.31-1.62l.61,4.6c2.44,6.68,11.11,1,12,.46-1.34,1.12-21.39,17.88-25.31,25.34-4.06,7.71,6.29,11.57,6.29,11.57-10.37,16.19-20,32.47-27.15,50.25q-4.92,12.28-8.62,25c-6.2,21.4-12.23,45.75-5,67.65.68,2.05,1.95,5.48,4.59,5.55,3.41.09,3.49-4.37,3.43-6.78-.22-8.44-2.8-16.52-2.54-25.15a161.41,161.41,0,0,1,3.31-25.9q1.56-8.12,3.69-16.11a223.5,223.5,0,0,1,7.19-22.25,182.81,182.81,0,0,1,22.63-42.5c1.52-2.07,3.09-4.11,4.75-6.07.36-.41,1.22-1.85,1.78-2,0,0,50.33-14.35,51.41-30.73s-21-21.68-21-21.68c1.07-1.52,1.12-5.94,1.12-5.94C547.71,312.17,539.31,291.62,539.3,291.61Zm-8.73,8c6.6,10.25-15.91,20.22-15.91,20.22C520.39,297.73,530.57,299.64,530.57,299.64Zm-71.72,63.45c-4,6.35-8.19,4.94-8.19,4.94,1.85-6.29,12.28-13,12.28-13S462.81,356.75,458.85,363.09Zm22.27-13.29v-4.67h5.28Zm2.44-11.88s1-5.89,3.86-5.69S492.8,337,492.8,337ZM473,383.34c-2.91,2.44-4.6-1.08-4.6-1.08,1.86-7.33,16.52-17.35,17-17.66Zm43.73-17.09c-13.1,13.4-34.46,15.43-34.46,15.43,7.48-8.43,22.78-35.44,22.78-35.44S529.86,352.84,516.76,366.25ZM371.44,220.65c-2.21.83-4.41,1.68-6.62,2.52q-4.9,1.85-9.85,3.6-6.47,2.29-13,4.42-8,2.59-16,5-9.45,2.78-19,5.26-10.86,2.84-21.83,5.28-12.26,2.75-24.6,5.05-13.6,2.52-27.28,4.53c-3.4.5-6.8,1-10.2,1.43a16.94,16.94,0,0,0-4.61.79,7.82,7.82,0,0,0-3.06,2.76c-2.45,3.49-2.27,7.9-2.22,12,0,2.23,0,4.47,0,6.7v49.37c0,1.68,0,3.37,0,5.06,1.37,45.2,6.14,91,15.45,135.27,4.15,19.73,9,39.58,17.61,57.91,8.4,17.87,21.25,33.3,34.31,48,23.88,26.82,51,52,80.84,72.16A127.63,127.63,0,0,0,373,655q2.35,1.23,4.75,2.35a25.05,25.05,0,0,0,4.62,1.89,8,8,0,0,0,1.09.19V218a48.91,48.91,0,0,0-8.76,1.45A30.92,30.92,0,0,0,371.44,220.65Zm167.86,71c-.06-.15-1.2-.28-1.39-.31-9.76-1.88-17.66,4.24-22.84,11.95a62.35,62.35,0,0,0-8.7,19.53,13.79,13.79,0,0,1-1.87,5.07,19,19,0,0,1-3.08,3.32c-.11.1-2.56,1.88-2.73,1.54,0,0-4.61-9.28-12.86-7.38s-10.23,14.82-10.23,14.82c-5.68,2-6.06,2.56-6.06,2.56a32.48,32.48,0,0,0-4.05-11.49c-3.36-5.55-8.57-8.33-14.93-6.18-5.63,1.91-10.45,6.17-14.41,10.47-.39.41-.75.82-1.1,1.22-1.5,1.72-5.06,5.11-2.67,7.5,2.8,2.79,6.34-2.52,8-4.3a41.82,41.82,0,0,1,8-6.92c3.79-2.42,8.49-3.92,11.3.58a16.6,16.6,0,0,1,2.17,6.46c.11.77,1,6.12.39,6.47,0,0-15.76,9.34-18.33,19s7.45,9.82,7.45,9.82c18.55-1.63,21-25.53,21-25.53a19.72,19.72,0,0,1,2.31-1.62l.61,4.6c2.44,6.68,11.11,1,12,.46-1.34,1.12-21.39,17.88-25.31,25.34-4.06,7.71,6.29,11.57,6.29,11.57-10.37,16.19-20,32.47-27.15,50.25q-4.92,12.28-8.62,25c-6.2,21.4-12.23,45.75-5,67.65.68,2.05,1.95,5.48,4.59,5.55,3.41.09,3.49-4.37,3.43-6.78-.22-8.44-2.8-16.52-2.54-25.15a161.41,161.41,0,0,1,3.31-25.9q1.56-8.12,3.69-16.11a223.5,223.5,0,0,1,7.19-22.25,182.81,182.81,0,0,1,22.63-42.5c1.52-2.07,3.09-4.11,4.75-6.07.36-.41,1.22-1.85,1.78-2,0,0,50.33-14.35,51.41-30.73s-21-21.68-21-21.68c1.07-1.52,1.12-5.94,1.12-5.94C547.71,312.17,539.31,291.62,539.3,291.61Zm-8.73,8c6.6,10.25-15.91,20.22-15.91,20.22C520.39,297.73,530.57,299.64,530.57,299.64Zm-71.72,63.45c-4,6.35-8.19,4.94-8.19,4.94,1.85-6.29,12.28-13,12.28-13S462.81,356.75,458.85,363.09Zm22.27-13.29v-4.67h5.28Zm2.44-11.88s1-5.89,3.86-5.69S492.8,337,492.8,337ZM473,383.34c-2.91,2.44-4.6-1.08-4.6-1.08,1.86-7.33,16.52-17.35,17-17.66Zm43.73-17.09c-13.1,13.4-34.46,15.43-34.46,15.43,7.48-8.43,22.78-35.44,22.78-35.44S529.86,352.84,516.76,366.25ZM369.19,188.4c-2.54,1-5.07,1.94-7.61,2.89q-5.62,2.11-11.3,4.14-7.41,2.63-14.9,5.07-9.15,3-18.39,5.7-10.83,3.2-21.77,6-12.48,3.25-25.06,6.06-14.07,3.16-28.24,5.79-15.6,2.91-31.3,5.21c-3.9.57-7.8,1.1-11.71,1.63-1.69.23-3.71.2-5.28.92a8.84,8.84,0,0,0-3.51,3.16c-2.82,4-2.61,9.06-2.55,13.73,0,2.56,0,5.12,0,7.68v56.67c0,1.93,0,3.87,0,5.8,1.58,51.88,7.06,104.45,17.74,155.24,4.77,22.65,10.32,45.43,20.21,66.46,9.64,20.52,24.38,38.22,39.37,55.06,27.41,30.77,58.55,59.72,92.78,82.81A146.71,146.71,0,0,0,371,686.87q2.7,1.41,5.45,2.7a30.43,30.43,0,0,0,5.3,2.17,8.48,8.48,0,0,0,1.73.24V671.86a7.6,7.6,0,0,1-1.16-.2,26.45,26.45,0,0,1-4.88-2q-2.54-1.18-5-2.49a132.78,132.78,0,0,1-12.29-7.74c-31.51-21.25-60.18-47.9-85.4-76.23-13.8-15.49-27.37-31.78-36.25-50.67-9.1-19.36-14.21-40.33-18.6-61.18-9.84-46.75-14.88-95.14-16.33-142.9-.05-1.78,0-3.56,0-5.34V271c0-2.36,0-4.72,0-7.07-.06-4.3-.25-8.95,2.34-12.64a8.16,8.16,0,0,1,3.23-2.91c1.45-.66,3.31-.63,4.87-.84,3.59-.49,7.19-1,10.77-1.51q14.46-2.12,28.82-4.79,13-2.43,26-5.33,11.58-2.6,23.07-5.58,10.06-2.62,20-5.56,8.51-2.5,16.93-5.25,6.89-2.25,13.71-4.67,5.22-1.84,10.41-3.8l7-2.67a32.64,32.64,0,0,1,3.48-1.23,53.49,53.49,0,0,1,9.26-1.55v-20.2A55.54,55.54,0,0,0,373,187.05,38.59,38.59,0,0,0,369.19,188.4Zm2.25,32.25c-2.21.83-4.41,1.68-6.62,2.52q-4.9,1.85-9.85,3.6-6.47,2.29-13,4.42-8,2.59-16,5-9.45,2.78-19,5.26-10.86,2.84-21.83,5.28-12.26,2.75-24.6,5.05-13.6,2.52-27.28,4.53c-3.4.5-6.8,1-10.2,1.43a16.94,16.94,0,0,0-4.61.79,7.82,7.82,0,0,0-3.06,2.76c-2.45,3.49-2.27,7.9-2.22,12,0,2.23,0,4.47,0,6.7v49.37c0,1.68,0,3.37,0,5.06,1.37,45.2,6.14,91,15.45,135.27,4.15,19.73,9,39.58,17.61,57.91,8.4,17.87,21.25,33.3,34.31,48,23.88,26.82,51,52,80.84,72.16A127.63,127.63,0,0,0,373,655q2.35,1.23,4.75,2.35a25.05,25.05,0,0,0,4.62,1.89,8,8,0,0,0,1.09.19V218a48.91,48.91,0,0,0-8.76,1.45A30.92,30.92,0,0,0,371.44,220.65Zm3.3-1.18a30.92,30.92,0,0,0-3.3,1.18c-2.21.83-4.41,1.68-6.62,2.52q-4.9,1.85-9.85,3.6-6.47,2.29-13,4.42-8,2.59-16,5-9.45,2.78-19,5.26-10.86,2.84-21.83,5.28-12.26,2.75-24.6,5.05-13.6,2.52-27.28,4.53c-3.4.5-6.8,1-10.2,1.43a16.94,16.94,0,0,0-4.61.79,7.82,7.82,0,0,0-3.06,2.76c-2.45,3.49-2.27,7.9-2.22,12,0,2.23,0,4.47,0,6.7v49.37c0,1.68,0,3.37,0,5.06,1.37,45.2,6.14,91,15.45,135.27,4.15,19.73,9,39.58,17.61,57.91,8.4,17.87,21.25,33.3,34.31,48,23.88,26.82,51,52,80.84,72.16A127.63,127.63,0,0,0,373,655q2.35,1.23,4.75,2.35a25.05,25.05,0,0,0,4.62,1.89,8,8,0,0,0,1.09.19V218A48.91,48.91,0,0,0,374.74,219.47ZM539.3,291.61c-.06-.15-1.2-.28-1.39-.31-9.76-1.88-17.66,4.24-22.84,11.95a62.35,62.35,0,0,0-8.7,19.53,13.79,13.79,0,0,1-1.87,5.07,19,19,0,0,1-3.08,3.32c-.11.1-2.56,1.88-2.73,1.54,0,0-4.61-9.28-12.86-7.38s-10.23,14.82-10.23,14.82c-5.68,2-6.06,2.56-6.06,2.56a32.48,32.48,0,0,0-4.05-11.49c-3.36-5.55-8.57-8.33-14.93-6.18-5.63,1.91-10.45,6.17-14.41,10.47-.39.41-.75.82-1.1,1.22-1.5,1.72-5.06,5.11-2.67,7.5,2.8,2.79,6.34-2.52,8-4.3a41.82,41.82,0,0,1,8-6.92c3.79-2.42,8.49-3.92,11.3.58a16.6,16.6,0,0,1,2.17,6.46c.11.77,1,6.12.39,6.47,0,0-15.76,9.34-18.33,19s7.45,9.82,7.45,9.82c18.55-1.63,21-25.53,21-25.53a19.72,19.72,0,0,1,2.31-1.62l.61,4.6c2.44,6.68,11.11,1,12,.46-1.34,1.12-21.39,17.88-25.31,25.34-4.06,7.71,6.29,11.57,6.29,11.57-10.37,16.19-20,32.47-27.15,50.25q-4.92,12.28-8.62,25c-6.2,21.4-12.23,45.75-5,67.65.68,2.05,1.95,5.48,4.59,5.55,3.41.09,3.49-4.37,3.43-6.78-.22-8.44-2.8-16.52-2.54-25.15a161.41,161.41,0,0,1,3.31-25.9q1.56-8.12,3.69-16.11a223.5,223.5,0,0,1,7.19-22.25,182.81,182.81,0,0,1,22.63-42.5c1.52-2.07,3.09-4.11,4.75-6.07.36-.41,1.22-1.85,1.78-2,0,0,50.33-14.35,51.41-30.73s-21-21.68-21-21.68c1.07-1.52,1.12-5.94,1.12-5.94C547.71,312.17,539.31,291.62,539.3,291.61Zm-8.73,8c6.6,10.25-15.91,20.22-15.91,20.22C520.39,297.73,530.57,299.64,530.57,299.64Zm-71.72,63.45c-4,6.35-8.19,4.94-8.19,4.94,1.85-6.29,12.28-13,12.28-13S462.81,356.75,458.85,363.09Zm22.27-13.29v-4.67h5.28Zm2.44-11.88s1-5.89,3.86-5.69S492.8,337,492.8,337ZM473,383.34c-2.91,2.44-4.6-1.08-4.6-1.08,1.86-7.33,16.52-17.35,17-17.66Zm43.73-17.09c-13.1,13.4-34.46,15.43-34.46,15.43,7.48-8.43,22.78-35.44,22.78-35.44S529.86,352.84,516.76,366.25Zm22.54-74.64c-.06-.15-1.2-.28-1.39-.31-9.76-1.88-17.66,4.24-22.84,11.95a62.35,62.35,0,0,0-8.7,19.53,13.79,13.79,0,0,1-1.87,5.07,19,19,0,0,1-3.08,3.32c-.11.1-2.56,1.88-2.73,1.54,0,0-4.61-9.28-12.86-7.38s-10.23,14.82-10.23,14.82c-5.68,2-6.06,2.56-6.06,2.56a32.48,32.48,0,0,0-4.05-11.49c-3.36-5.55-8.57-8.33-14.93-6.18-5.63,1.91-10.45,6.17-14.41,10.47-.39.41-.75.82-1.1,1.22-1.5,1.72-5.06,5.11-2.67,7.5,2.8,2.79,6.34-2.52,8-4.3a41.82,41.82,0,0,1,8-6.92c3.79-2.42,8.49-3.92,11.3.58a16.6,16.6,0,0,1,2.17,6.46c.11.77,1,6.12.39,6.47,0,0-15.76,9.34-18.33,19s7.45,9.82,7.45,9.82c18.55-1.63,21-25.53,21-25.53a19.72,19.72,0,0,1,2.31-1.62l.61,4.6c2.44,6.68,11.11,1,12,.46-1.34,1.12-21.39,17.88-25.31,25.34-4.06,7.71,6.29,11.57,6.29,11.57-10.37,16.19-20,32.47-27.15,50.25q-4.92,12.28-8.62,25c-6.2,21.4-12.23,45.75-5,67.65.68,2.05,1.95,5.48,4.59,5.55,3.41.09,3.49-4.37,3.43-6.78-.22-8.44-2.8-16.52-2.54-25.15a161.41,161.41,0,0,1,3.31-25.9q1.56-8.12,3.69-16.11a223.5,223.5,0,0,1,7.19-22.25,182.81,182.81,0,0,1,22.63-42.5c1.52-2.07,3.09-4.11,4.75-6.07.36-.41,1.22-1.85,1.78-2,0,0,50.33-14.35,51.41-30.73s-21-21.68-21-21.68c1.07-1.52,1.12-5.94,1.12-5.94C547.71,312.17,539.31,291.62,539.3,291.61Zm-8.73,8c6.6,10.25-15.91,20.22-15.91,20.22C520.39,297.73,530.57,299.64,530.57,299.64Zm-71.72,63.45c-4,6.35-8.19,4.94-8.19,4.94,1.85-6.29,12.28-13,12.28-13S462.81,356.75,458.85,363.09Zm22.27-13.29v-4.67h5.28Zm2.44-11.88s1-5.89,3.86-5.69S492.8,337,492.8,337ZM473,383.34c-2.91,2.44-4.6-1.08-4.6-1.08,1.86-7.33,16.52-17.35,17-17.66Zm43.73-17.09c-13.1,13.4-34.46,15.43-34.46,15.43,7.48-8.43,22.78-35.44,22.78-35.44S529.86,352.84,516.76,366.25Zm-142-146.78a30.92,30.92,0,0,0-3.3,1.18c-2.21.83-4.41,1.68-6.62,2.52q-4.9,1.85-9.85,3.6-6.47,2.29-13,4.42-8,2.59-16,5-9.45,2.78-19,5.26-10.86,2.84-21.83,5.28-12.26,2.75-24.6,5.05-13.6,2.52-27.28,4.53c-3.4.5-6.8,1-10.2,1.43a16.94,16.94,0,0,0-4.61.79,7.82,7.82,0,0,0-3.06,2.76c-2.45,3.49-2.27,7.9-2.22,12,0,2.23,0,4.47,0,6.7v49.37c0,1.68,0,3.37,0,5.06,1.37,45.2,6.14,91,15.45,135.27,4.15,19.73,9,39.58,17.61,57.91,8.4,17.87,21.25,33.3,34.31,48,23.88,26.82,51,52,80.84,72.16A127.63,127.63,0,0,0,373,655q2.35,1.23,4.75,2.35a25.05,25.05,0,0,0,4.62,1.89,8,8,0,0,0,1.09.19V218A48.91,48.91,0,0,0,374.74,219.47Zm0,0a30.92,30.92,0,0,0-3.3,1.18c-2.21.83-4.41,1.68-6.62,2.52q-4.9,1.85-9.85,3.6-6.47,2.29-13,4.42-8,2.59-16,5-9.45,2.78-19,5.26-10.86,2.84-21.83,5.28-12.26,2.75-24.6,5.05-13.6,2.52-27.28,4.53c-3.4.5-6.8,1-10.2,1.43a16.94,16.94,0,0,0-4.61.79,7.82,7.82,0,0,0-3.06,2.76c-2.45,3.49-2.27,7.9-2.22,12,0,2.23,0,4.47,0,6.7v49.37c0,1.68,0,3.37,0,5.06,1.37,45.2,6.14,91,15.45,135.27,4.15,19.73,9,39.58,17.61,57.91,8.4,17.87,21.25,33.3,34.31,48,23.88,26.82,51,52,80.84,72.16A127.63,127.63,0,0,0,373,655q2.35,1.23,4.75,2.35a25.05,25.05,0,0,0,4.62,1.89,8,8,0,0,0,1.09.19V218A48.91,48.91,0,0,0,374.74,219.47ZM539.3,291.61c-.06-.15-1.2-.28-1.39-.31-9.76-1.88-17.66,4.24-22.84,11.95a62.35,62.35,0,0,0-8.7,19.53,13.79,13.79,0,0,1-1.87,5.07,19,19,0,0,1-3.08,3.32c-.11.1-2.56,1.88-2.73,1.54,0,0-4.61-9.28-12.86-7.38s-10.23,14.82-10.23,14.82c-5.68,2-6.06,2.56-6.06,2.56a32.48,32.48,0,0,0-4.05-11.49c-3.36-5.55-8.57-8.33-14.93-6.18-5.63,1.91-10.45,6.17-14.41,10.47-.39.41-.75.82-1.1,1.22-1.5,1.72-5.06,5.11-2.67,7.5,2.8,2.79,6.34-2.52,8-4.3a41.82,41.82,0,0,1,8-6.92c3.79-2.42,8.49-3.92,11.3.58a16.6,16.6,0,0,1,2.17,6.46c.11.77,1,6.12.39,6.47,0,0-15.76,9.34-18.33,19s7.45,9.82,7.45,9.82c18.55-1.63,21-25.53,21-25.53a19.72,19.72,0,0,1,2.31-1.62l.61,4.6c2.44,6.68,11.11,1,12,.46-1.34,1.12-21.39,17.88-25.31,25.34-4.06,7.71,6.29,11.57,6.29,11.57-10.37,16.19-20,32.47-27.15,50.25q-4.92,12.28-8.62,25c-6.2,21.4-12.23,45.75-5,67.65.68,2.05,1.95,5.48,4.59,5.55,3.41.09,3.49-4.37,3.43-6.78-.22-8.44-2.8-16.52-2.54-25.15a161.41,161.41,0,0,1,3.31-25.9q1.56-8.12,3.69-16.11a223.5,223.5,0,0,1,7.19-22.25,182.81,182.81,0,0,1,22.63-42.5c1.52-2.07,3.09-4.11,4.75-6.07.36-.41,1.22-1.85,1.78-2,0,0,50.33-14.35,51.41-30.73s-21-21.68-21-21.68c1.07-1.52,1.12-5.94,1.12-5.94C547.71,312.17,539.31,291.62,539.3,291.61Zm-8.73,8c6.6,10.25-15.91,20.22-15.91,20.22C520.39,297.73,530.57,299.64,530.57,299.64Zm-71.72,63.45c-4,6.35-8.19,4.94-8.19,4.94,1.85-6.29,12.28-13,12.28-13S462.81,356.75,458.85,363.09Zm22.27-13.29v-4.67h5.28Zm2.44-11.88s1-5.89,3.86-5.69S492.8,337,492.8,337ZM473,383.34c-2.91,2.44-4.6-1.08-4.6-1.08,1.86-7.33,16.52-17.35,17-17.66Zm43.73-17.09c-13.1,13.4-34.46,15.43-34.46,15.43,7.48-8.43,22.78-35.44,22.78-35.44S529.86,352.84,516.76,366.25Zm22.54-74.64c-.06-.15-1.2-.28-1.39-.31-9.76-1.88-17.66,4.24-22.84,11.95a62.35,62.35,0,0,0-8.7,19.53,13.79,13.79,0,0,1-1.87,5.07,19,19,0,0,1-3.08,3.32c-.11.1-2.56,1.88-2.73,1.54,0,0-4.61-9.28-12.86-7.38s-10.23,14.82-10.23,14.82c-5.68,2-6.06,2.56-6.06,2.56a32.48,32.48,0,0,0-4.05-11.49c-3.36-5.55-8.57-8.33-14.93-6.18-5.63,1.91-10.45,6.17-14.41,10.47-.39.41-.75.82-1.1,1.22-1.5,1.72-5.06,5.11-2.67,7.5,2.8,2.79,6.34-2.52,8-4.3a41.82,41.82,0,0,1,8-6.92c3.79-2.42,8.49-3.92,11.3.58a16.6,16.6,0,0,1,2.17,6.46c.11.77,1,6.12.39,6.47,0,0-15.76,9.34-18.33,19s7.45,9.82,7.45,9.82c18.55-1.63,21-25.53,21-25.53a19.72,19.72,0,0,1,2.31-1.62l.61,4.6c2.44,6.68,11.11,1,12,.46-1.34,1.12-21.39,17.88-25.31,25.34-4.06,7.71,6.29,11.57,6.29,11.57-10.37,16.19-20,32.47-27.15,50.25q-4.92,12.28-8.62,25c-6.2,21.4-12.23,45.75-5,67.65.68,2.05,1.95,5.48,4.59,5.55,3.41.09,3.49-4.37,3.43-6.78-.22-8.44-2.8-16.52-2.54-25.15a161.41,161.41,0,0,1,3.31-25.9q1.56-8.12,3.69-16.11a223.5,223.5,0,0,1,7.19-22.25,182.81,182.81,0,0,1,22.63-42.5c1.52-2.07,3.09-4.11,4.75-6.07.36-.41,1.22-1.85,1.78-2,0,0,50.33-14.35,51.41-30.73s-21-21.68-21-21.68c1.07-1.52,1.12-5.94,1.12-5.94C547.71,312.17,539.31,291.62,539.3,291.61Zm-8.73,8c6.6,10.25-15.91,20.22-15.91,20.22C520.39,297.73,530.57,299.64,530.57,299.64Zm-71.72,63.45c-4,6.35-8.19,4.94-8.19,4.94,1.85-6.29,12.28-13,12.28-13S462.81,356.75,458.85,363.09Zm22.27-13.29v-4.67h5.28Zm2.44-11.88s1-5.89,3.86-5.69S492.8,337,492.8,337ZM473,383.34c-2.91,2.44-4.6-1.08-4.6-1.08,1.86-7.33,16.52-17.35,17-17.66Zm43.73-17.09c-13.1,13.4-34.46,15.43-34.46,15.43,7.48-8.43,22.78-35.44,22.78-35.44S529.86,352.84,516.76,366.25Zm-142-146.78a30.92,30.92,0,0,0-3.3,1.18c-2.21.83-4.41,1.68-6.62,2.52q-4.9,1.85-9.85,3.6-6.47,2.29-13,4.42-8,2.59-16,5-9.45,2.78-19,5.26-10.86,2.84-21.83,5.28-12.26,2.75-24.6,5.05-13.6,2.52-27.28,4.53c-3.4.5-6.8,1-10.2,1.43a16.94,16.94,0,0,0-4.61.79,7.82,7.82,0,0,0-3.06,2.76c-2.45,3.49-2.27,7.9-2.22,12,0,2.23,0,4.47,0,6.7v49.37c0,1.68,0,3.37,0,5.06,1.37,45.2,6.14,91,15.45,135.27,4.15,19.73,9,39.58,17.61,57.91,8.4,17.87,21.25,33.3,34.31,48,23.88,26.82,51,52,80.84,72.16A127.63,127.63,0,0,0,373,655q2.35,1.23,4.75,2.35a25.05,25.05,0,0,0,4.62,1.89,8,8,0,0,0,1.09.19V218A48.91,48.91,0,0,0,374.74,219.47Zm0,0a30.92,30.92,0,0,0-3.3,1.18c-2.21.83-4.41,1.68-6.62,2.52q-4.9,1.85-9.85,3.6-6.47,2.29-13,4.42-8,2.59-16,5-9.45,2.78-19,5.26-10.86,2.84-21.83,5.28-12.26,2.75-24.6,5.05-13.6,2.52-27.28,4.53c-3.4.5-6.8,1-10.2,1.43a16.94,16.94,0,0,0-4.61.79,7.82,7.82,0,0,0-3.06,2.76c-2.45,3.49-2.27,7.9-2.22,12,0,2.23,0,4.47,0,6.7v49.37c0,1.68,0,3.37,0,5.06,1.37,45.2,6.14,91,15.45,135.27,4.15,19.73,9,39.58,17.61,57.91,8.4,17.87,21.25,33.3,34.31,48,23.88,26.82,51,52,80.84,72.16A127.63,127.63,0,0,0,373,655q2.35,1.23,4.75,2.35a25.05,25.05,0,0,0,4.62,1.89,8,8,0,0,0,1.09.19V218A48.91,48.91,0,0,0,374.74,219.47ZM539.3,291.61c-.06-.15-1.2-.28-1.39-.31-9.76-1.88-17.66,4.24-22.84,11.95a62.35,62.35,0,0,0-8.7,19.53,13.79,13.79,0,0,1-1.87,5.07,19,19,0,0,1-3.08,3.32c-.11.1-2.56,1.88-2.73,1.54,0,0-4.61-9.28-12.86-7.38s-10.23,14.82-10.23,14.82c-5.68,2-6.06,2.56-6.06,2.56a32.48,32.48,0,0,0-4.05-11.49c-3.36-5.55-8.57-8.33-14.93-6.18-5.63,1.91-10.45,6.17-14.41,10.47-.39.41-.75.82-1.1,1.22-1.5,1.72-5.06,5.11-2.67,7.5,2.8,2.79,6.34-2.52,8-4.3a41.82,41.82,0,0,1,8-6.92c3.79-2.42,8.49-3.92,11.3.58a16.6,16.6,0,0,1,2.17,6.46c.11.77,1,6.12.39,6.47,0,0-15.76,9.34-18.33,19s7.45,9.82,7.45,9.82c18.55-1.63,21-25.53,21-25.53a19.72,19.72,0,0,1,2.31-1.62l.61,4.6c2.44,6.68,11.11,1,12,.46-1.34,1.12-21.39,17.88-25.31,25.34-4.06,7.71,6.29,11.57,6.29,11.57-10.37,16.19-20,32.47-27.15,50.25q-4.92,12.28-8.62,25c-6.2,21.4-12.23,45.75-5,67.65.68,2.05,1.95,5.48,4.59,5.55,3.41.09,3.49-4.37,3.43-6.78-.22-8.44-2.8-16.52-2.54-25.15a161.41,161.41,0,0,1,3.31-25.9q1.56-8.12,3.69-16.11a223.5,223.5,0,0,1,7.19-22.25,182.81,182.81,0,0,1,22.63-42.5c1.52-2.07,3.09-4.11,4.75-6.07.36-.41,1.22-1.85,1.78-2,0,0,50.33-14.35,51.41-30.73s-21-21.68-21-21.68c1.07-1.52,1.12-5.94,1.12-5.94C547.71,312.17,539.31,291.62,539.3,291.61Zm-8.73,8c6.6,10.25-15.91,20.22-15.91,20.22C520.39,297.73,530.57,299.64,530.57,299.64Zm-71.72,63.45c-4,6.35-8.19,4.94-8.19,4.94,1.85-6.29,12.28-13,12.28-13S462.81,356.75,458.85,363.09Zm22.27-13.29v-4.67h5.28Zm2.44-11.88s1-5.89,3.86-5.69S492.8,337,492.8,337ZM473,383.34c-2.91,2.44-4.6-1.08-4.6-1.08,1.86-7.33,16.52-17.35,17-17.66Zm43.73-17.09c-13.1,13.4-34.46,15.43-34.46,15.43,7.48-8.43,22.78-35.44,22.78-35.44S529.86,352.84,516.76,366.25Zm22.54-74.64c-.06-.15-1.2-.28-1.39-.31-9.76-1.88-17.66,4.24-22.84,11.95a62.35,62.35,0,0,0-8.7,19.53,13.79,13.79,0,0,1-1.87,5.07,19,19,0,0,1-3.08,3.32c-.11.1-2.56,1.88-2.73,1.54,0,0-4.61-9.28-12.86-7.38s-10.23,14.82-10.23,14.82c-5.68,2-6.06,2.56-6.06,2.56a32.48,32.48,0,0,0-4.05-11.49c-3.36-5.55-8.57-8.33-14.93-6.18-5.63,1.91-10.45,6.17-14.41,10.47-.39.41-.75.82-1.1,1.22-1.5,1.72-5.06,5.11-2.67,7.5,2.8,2.79,6.34-2.52,8-4.3a41.82,41.82,0,0,1,8-6.92c3.79-2.42,8.49-3.92,11.3.58a16.6,16.6,0,0,1,2.17,6.46c.11.77,1,6.12.39,6.47,0,0-15.76,9.34-18.33,19s7.45,9.82,7.45,9.82c18.55-1.63,21-25.53,21-25.53a19.72,19.72,0,0,1,2.31-1.62l.61,4.6c2.44,6.68,11.11,1,12,.46-1.34,1.12-21.39,17.88-25.31,25.34-4.06,7.71,6.29,11.57,6.29,11.57-10.37,16.19-20,32.47-27.15,50.25q-4.92,12.28-8.62,25c-6.2,21.4-12.23,45.75-5,67.65.68,2.05,1.95,5.48,4.59,5.55,3.41.09,3.49-4.37,3.43-6.78-.22-8.44-2.8-16.52-2.54-25.15a161.41,161.41,0,0,1,3.31-25.9q1.56-8.12,3.69-16.11a223.5,223.5,0,0,1,7.19-22.25,182.81,182.81,0,0,1,22.63-42.5c1.52-2.07,3.09-4.11,4.75-6.07.36-.41,1.22-1.85,1.78-2,0,0,50.33-14.35,51.41-30.73s-21-21.68-21-21.68c1.07-1.52,1.12-5.94,1.12-5.94C547.71,312.17,539.31,291.62,539.3,291.61Zm-8.73,8c6.6,10.25-15.91,20.22-15.91,20.22C520.39,297.73,530.57,299.64,530.57,299.64Zm-71.72,63.45c-4,6.35-8.19,4.94-8.19,4.94,1.85-6.29,12.28-13,12.28-13S462.81,356.75,458.85,363.09Zm22.27-13.29v-4.67h5.28Zm2.44-11.88s1-5.89,3.86-5.69S492.8,337,492.8,337ZM473,383.34c-2.91,2.44-4.6-1.08-4.6-1.08,1.86-7.33,16.52-17.35,17-17.66Zm43.73-17.09c-13.1,13.4-34.46,15.43-34.46,15.43,7.48-8.43,22.78-35.44,22.78-35.44S529.86,352.84,516.76,366.25Zm-142-146.78a30.92,30.92,0,0,0-3.3,1.18c-2.21.83-4.41,1.68-6.62,2.52q-4.9,1.85-9.85,3.6-6.47,2.29-13,4.42-8,2.59-16,5-9.45,2.78-19,5.26-10.86,2.84-21.83,5.28-12.26,2.75-24.6,5.05-13.6,2.52-27.28,4.53c-3.4.5-6.8,1-10.2,1.43a16.94,16.94,0,0,0-4.61.79,7.82,7.82,0,0,0-3.06,2.76c-2.45,3.49-2.27,7.9-2.22,12,0,2.23,0,4.47,0,6.7v49.37c0,1.68,0,3.37,0,5.06,1.37,45.2,6.14,91,15.45,135.27,4.15,19.73,9,39.58,17.61,57.91,8.4,17.87,21.25,33.3,34.31,48,23.88,26.82,51,52,80.84,72.16A127.63,127.63,0,0,0,373,655q2.35,1.23,4.75,2.35a25.05,25.05,0,0,0,4.62,1.89,8,8,0,0,0,1.09.19V218A48.91,48.91,0,0,0,374.74,219.47Zm0,0a30.92,30.92,0,0,0-3.3,1.18c-2.21.83-4.41,1.68-6.62,2.52q-4.9,1.85-9.85,3.6-6.47,2.29-13,4.42-8,2.59-16,5-9.45,2.78-19,5.26-10.86,2.84-21.83,5.28-12.26,2.75-24.6,5.05-13.6,2.52-27.28,4.53c-3.4.5-6.8,1-10.2,1.43a16.94,16.94,0,0,0-4.61.79,7.82,7.82,0,0,0-3.06,2.76c-2.45,3.49-2.27,7.9-2.22,12,0,2.23,0,4.47,0,6.7v49.37c0,1.68,0,3.37,0,5.06,1.37,45.2,6.14,91,15.45,135.27,4.15,19.73,9,39.58,17.61,57.91,8.4,17.87,21.25,33.3,34.31,48,23.88,26.82,51,52,80.84,72.16A127.63,127.63,0,0,0,373,655q2.35,1.23,4.75,2.35a25.05,25.05,0,0,0,4.62,1.89,8,8,0,0,0,1.09.19V218A48.91,48.91,0,0,0,374.74,219.47ZM539.3,291.61c-.06-.15-1.2-.28-1.39-.31-9.76-1.88-17.66,4.24-22.84,11.95a62.35,62.35,0,0,0-8.7,19.53,13.79,13.79,0,0,1-1.87,5.07,19,19,0,0,1-3.08,3.32c-.11.1-2.56,1.88-2.73,1.54,0,0-4.61-9.28-12.86-7.38s-10.23,14.82-10.23,14.82c-5.68,2-6.06,2.56-6.06,2.56a32.48,32.48,0,0,0-4.05-11.49c-3.36-5.55-8.57-8.33-14.93-6.18-5.63,1.91-10.45,6.17-14.41,10.47-.39.41-.75.82-1.1,1.22-1.5,1.72-5.06,5.11-2.67,7.5,2.8,2.79,6.34-2.52,8-4.3a41.82,41.82,0,0,1,8-6.92c3.79-2.42,8.49-3.92,11.3.58a16.6,16.6,0,0,1,2.17,6.46c.11.77,1,6.12.39,6.47,0,0-15.76,9.34-18.33,19s7.45,9.82,7.45,9.82c18.55-1.63,21-25.53,21-25.53a19.72,19.72,0,0,1,2.31-1.62l.61,4.6c2.44,6.68,11.11,1,12,.46-1.34,1.12-21.39,17.88-25.31,25.34-4.06,7.71,6.29,11.57,6.29,11.57-10.37,16.19-20,32.47-27.15,50.25q-4.92,12.28-8.62,25c-6.2,21.4-12.23,45.75-5,67.65.68,2.05,1.95,5.48,4.59,5.55,3.41.09,3.49-4.37,3.43-6.78-.22-8.44-2.8-16.52-2.54-25.15a161.41,161.41,0,0,1,3.31-25.9q1.56-8.12,3.69-16.11a223.5,223.5,0,0,1,7.19-22.25,182.81,182.81,0,0,1,22.63-42.5c1.52-2.07,3.09-4.11,4.75-6.07.36-.41,1.22-1.85,1.78-2,0,0,50.33-14.35,51.41-30.73s-21-21.68-21-21.68c1.07-1.52,1.12-5.94,1.12-5.94C547.71,312.17,539.31,291.62,539.3,291.61Zm-8.73,8c6.6,10.25-15.91,20.22-15.91,20.22C520.39,297.73,530.57,299.64,530.57,299.64Zm-71.72,63.45c-4,6.35-8.19,4.94-8.19,4.94,1.85-6.29,12.28-13,12.28-13S462.81,356.75,458.85,363.09Zm22.27-13.29v-4.67h5.28Zm2.44-11.88s1-5.89,3.86-5.69S492.8,337,492.8,337ZM473,383.34c-2.91,2.44-4.6-1.08-4.6-1.08,1.86-7.33,16.52-17.35,17-17.66Zm43.73-17.09c-13.1,13.4-34.46,15.43-34.46,15.43,7.48-8.43,22.78-35.44,22.78-35.44S529.86,352.84,516.76,366.25Zm-142-146.78a30.92,30.92,0,0,0-3.3,1.18c-2.21.83-4.41,1.68-6.62,2.52q-4.9,1.85-9.85,3.6-6.47,2.29-13,4.42-8,2.59-16,5-9.45,2.78-19,5.26-10.86,2.84-21.83,5.28-12.26,2.75-24.6,5.05-13.6,2.52-27.28,4.53c-3.4.5-6.8,1-10.2,1.43a16.94,16.94,0,0,0-4.61.79,7.82,7.82,0,0,0-3.06,2.76c-2.45,3.49-2.27,7.9-2.22,12,0,2.23,0,4.47,0,6.7v49.37c0,1.68,0,3.37,0,5.06,1.37,45.2,6.14,91,15.45,135.27,4.15,19.73,9,39.58,17.61,57.91,8.4,17.87,21.25,33.3,34.31,48,23.88,26.82,51,52,80.84,72.16A127.63,127.63,0,0,0,373,655q2.35,1.23,4.75,2.35a25.05,25.05,0,0,0,4.62,1.89,8,8,0,0,0,1.09.19V218A48.91,48.91,0,0,0,374.74,219.47ZM539.3,291.61c-.06-.15-1.2-.28-1.39-.31-9.76-1.88-17.66,4.24-22.84,11.95a62.35,62.35,0,0,0-8.7,19.53,13.79,13.79,0,0,1-1.87,5.07,19,19,0,0,1-3.08,3.32c-.11.1-2.56,1.88-2.73,1.54,0,0-4.61-9.28-12.86-7.38s-10.23,14.82-10.23,14.82c-5.68,2-6.06,2.56-6.06,2.56a32.48,32.48,0,0,0-4.05-11.49c-3.36-5.55-8.57-8.33-14.93-6.18-5.63,1.91-10.45,6.17-14.41,10.47-.39.41-.75.82-1.1,1.22-1.5,1.72-5.06,5.11-2.67,7.5,2.8,2.79,6.34-2.52,8-4.3a41.82,41.82,0,0,1,8-6.92c3.79-2.42,8.49-3.92,11.3.58a16.6,16.6,0,0,1,2.17,6.46c.11.77,1,6.12.39,6.47,0,0-15.76,9.34-18.33,19s7.45,9.82,7.45,9.82c18.55-1.63,21-25.53,21-25.53a19.72,19.72,0,0,1,2.31-1.62l.61,4.6c2.44,6.68,11.11,1,12,.46-1.34,1.12-21.39,17.88-25.31,25.34-4.06,7.71,6.29,11.57,6.29,11.57-10.37,16.19-20,32.47-27.15,50.25q-4.92,12.28-8.62,25c-6.2,21.4-12.23,45.75-5,67.65.68,2.05,1.95,5.48,4.59,5.55,3.41.09,3.49-4.37,3.43-6.78-.22-8.44-2.8-16.52-2.54-25.15a161.41,161.41,0,0,1,3.31-25.9q1.56-8.12,3.69-16.11a223.5,223.5,0,0,1,7.19-22.25,182.81,182.81,0,0,1,22.63-42.5c1.52-2.07,3.09-4.11,4.75-6.07.36-.41,1.22-1.85,1.78-2,0,0,50.33-14.35,51.41-30.73s-21-21.68-21-21.68c1.07-1.52,1.12-5.94,1.12-5.94C547.71,312.17,539.31,291.62,539.3,291.61Zm-8.73,8c6.6,10.25-15.91,20.22-15.91,20.22C520.39,297.73,530.57,299.64,530.57,299.64Zm-71.72,63.45c-4,6.35-8.19,4.94-8.19,4.94,1.85-6.29,12.28-13,12.28-13S462.81,356.75,458.85,363.09Zm22.27-13.29v-4.67h5.28Zm2.44-11.88s1-5.89,3.86-5.69S492.8,337,492.8,337ZM473,383.34c-2.91,2.44-4.6-1.08-4.6-1.08,1.86-7.33,16.52-17.35,17-17.66Zm43.73-17.09c-13.1,13.4-34.46,15.43-34.46,15.43,7.48-8.43,22.78-35.44,22.78-35.44S529.86,352.84,516.76,366.25Z"/><path class="cls-1" d="M578.8,256.76c0,5.27-.13,10.62-.2,15.83q-.26,22-1.1,44t-2.43,43.94q-1.58,21.95-4,43.82c-5.77,51.73-12.49,115.93-43.46,159.76q-1.79,2.5-3.58,5-4.18,5.73-8.58,11.31t-8.91,10.92c-3,3.57-6.1,7.09-9.23,10.55s-6.32,6.86-9.56,10.2-6.52,6.63-9.86,9.86-6.72,6.4-10.15,9.53-6.92,6.19-10.44,9.21-7.1,6-10.71,8.92-7.28,5.8-11,8.63-7.45,5.62-11.23,8.36-7.6,5.44-11.45,8.1-7.77,5.28-11.69,7.85q-6.28,4.13-12.66,8.09A8.8,8.8,0,0,1,383.5,692V671.86a8.21,8.21,0,0,0,5.12-1.22q5.86-3.66,11.65-7.45,5.42-3.56,10.76-7.23t10.55-7.46q5.21-3.78,10.32-7.69t10.1-7.94q5-4,9.86-8.21t9.61-8.48q4.74-4.32,9.35-8.77t9.07-9.08q4.49-4.62,8.8-9.38t8.5-9.72q4.2-5,8.21-10.05t7.89-10.41c1.11-1.52,2.2-3,3.29-4.58,28.51-40.36,34.7-99.45,40-147.07q2.25-20.12,3.68-40.33t2.23-40.45q.79-20.23,1-40.5c.06-4.8.21-9.72.19-14.57s0-9.81-1.24-14.57c-.64-2.55-1.4-5.75-3.37-7.63-1.69-1.59-4.13-1.43-6.27-1.51A100.69,100.69,0,0,1,542,246.19c-6.72-1-13.42-2.14-20.1-3.34q-13-2.34-25.85-5.08-14.8-3.15-29.48-6.85c-10.41-2.64-20.75-5.5-31-8.66s-20.41-6.62-30.41-10.51c-3.68-1.43-7.31-3-10.95-4.49,0,0-5.44-2.27-10.32-1.72l-.43,0v-20.2c5.31-.61,11.2,1.86,11.21,1.86,4,1.66,7.9,3.32,11.9,4.88,10.86,4.22,21.89,8,33,11.41s22.37,6.55,33.67,9.41q15.94,4,32,7.44,14,3,28.08,5.52,10.91,2,21.84,3.64A110.38,110.38,0,0,0,567,231c2.33.09,5-.09,6.81,1.65,2.15,2,3,5.52,3.67,8.28C578.76,246.11,578.78,251.45,578.8,256.76Z"/><path class="cls-1" d="M552.92,266.42c-.61-2.41-1.32-5.45-3.19-7.22-1.6-1.51-3.91-1.35-5.94-1.43a94.65,94.65,0,0,1-10.21-1.3c-6.36-1-12.7-2-19-3.17q-12.27-2.2-24.47-4.8-14-3-27.91-6.49c-9.84-2.49-19.63-5.2-29.34-8.2s-19.32-6.26-28.78-9.94c-3.48-1.36-6.92-2.81-10.37-4.25,0,0-5.14-2.15-9.76-1.63l-.42,0V659.41a7.78,7.78,0,0,0,4.85-1.16q5.56-3.46,11-7,5.13-3.36,10.18-6.85t10-7.05q4.93-3.59,9.78-7.28t9.56-7.52q4.71-3.82,9.33-7.77t9.09-8q4.49-4.08,8.85-8.3t8.59-8.59q4.25-4.38,8.33-8.89t8.05-9.19q4-4.69,7.76-9.52t7.47-9.85q1.58-2.16,3.12-4.34c27-38.2,32.84-94.14,37.87-139.21q2.13-19.05,3.49-38.18T553,332.34q.75-19.15,1-38.34c.05-4.54.19-9.2.17-13.79S554.06,270.93,552.92,266.42Zm-45.09,67s-.05,4.42-1.12,5.94c0,0,22.1,5.3,21,21.68s-51.41,30.73-51.41,30.73c-.56.16-1.42,1.6-1.78,2-1.66,2-3.23,4-4.75,6.07a182.81,182.81,0,0,0-22.63,42.5A223.5,223.5,0,0,0,440,464.63q-2.13,8-3.69,16.11a161.41,161.41,0,0,0-3.31,25.9c-.26,8.63,2.32,16.71,2.54,25.15.06,2.41,0,6.87-3.43,6.78-2.64-.07-3.91-3.5-4.59-5.55-7.27-21.9-1.24-46.25,5-67.65q3.68-12.71,8.62-25c7.15-17.78,16.78-34.06,27.15-50.25,0,0-10.35-3.86-6.29-11.57,3.92-7.46,24-24.22,25.31-25.34-.86.58-9.53,6.22-12-.46l-.61-4.6a19.72,19.72,0,0,0-2.31,1.62s-2.43,23.9-21,25.53c0,0-10-.21-7.45-9.82s18.33-19,18.33-19c.58-.35-.28-5.7-.39-6.47a16.6,16.6,0,0,0-2.17-6.46c-2.81-4.5-7.51-3-11.3-.58a41.82,41.82,0,0,0-8,6.92c-1.65,1.78-5.19,7.09-8,4.3-2.39-2.39,1.17-5.78,2.67-7.5.35-.4.71-.81,1.1-1.22,4-4.3,8.78-8.56,14.41-10.47,6.36-2.15,11.57.63,14.93,6.18a32.48,32.48,0,0,1,4.05,11.49s.38-.59,6.06-2.56c0,0,2-12.93,10.23-14.82s12.86,7.37,12.86,7.38c.17.34,2.62-1.44,2.73-1.54a19,19,0,0,0,3.08-3.32,13.79,13.79,0,0,0,1.87-5.07,62.35,62.35,0,0,1,8.7-19.53c5.18-7.71,13.08-13.83,22.84-11.95.19,0,1.33.16,1.39.31S547.71,312.17,507.83,333.45Z"/><path class="cls-2" d="M539.3,291.6c-.06-.15-1.2-.28-1.39-.31-9.76-1.88-17.66,4.24-22.84,11.95a62.35,62.35,0,0,0-8.7,19.53,13.79,13.79,0,0,1-1.87,5.07,19,19,0,0,1-3.08,3.32c-.11.1-2.56,1.88-2.73,1.54,0,0-4.61-9.28-12.86-7.38s-10.23,14.82-10.23,14.82c-5.68,2-6.06,2.56-6.06,2.56a32.48,32.48,0,0,0-4.05-11.49c-3.36-5.55-8.57-8.33-14.93-6.18-5.63,1.91-10.45,6.17-14.41,10.47-.39.41-.75.82-1.1,1.22-1.5,1.72-5.06,5.11-2.67,7.5,2.8,2.79,6.34-2.52,8-4.3a41.82,41.82,0,0,1,8-6.92c3.79-2.42,8.49-3.92,11.3.58a16.6,16.6,0,0,1,2.17,6.46c.11.77,1,6.12.39,6.47,0,0-15.76,9.34-18.33,18.95s7.45,9.82,7.45,9.82c18.55-1.63,21-25.53,21-25.53a19.72,19.72,0,0,1,2.31-1.62l.61,4.6c2.44,6.68,11.11,1,12,.46-1.34,1.12-21.39,17.88-25.31,25.34-4.06,7.71,6.29,11.57,6.29,11.57-10.37,16.19-20,32.47-27.15,50.25q-4.92,12.28-8.62,25c-6.2,21.4-12.23,45.75-5,67.65.68,2,1.95,5.48,4.59,5.55,3.41.09,3.49-4.37,3.43-6.78-.22-8.44-2.8-16.52-2.54-25.15a161.41,161.41,0,0,1,3.31-25.9q1.56-8.12,3.69-16.11a223.5,223.5,0,0,1,7.19-22.25,182.81,182.81,0,0,1,22.63-42.5c1.52-2.07,3.09-4.11,4.75-6.07.36-.41,1.22-1.85,1.78-2,0,0,50.33-14.35,51.41-30.73s-21-21.68-21-21.68c1.07-1.52,1.12-5.94,1.12-5.94C547.71,312.16,539.31,291.61,539.3,291.6Zm-8.73,8c6.6,10.25-15.91,20.22-15.91,20.22C520.39,297.72,530.57,299.63,530.57,299.63Zm-71.72,63.45c-4,6.35-8.19,4.94-8.19,4.94,1.85-6.29,12.28-13,12.28-13S462.81,356.74,458.85,363.08Zm22.27-13.29v-4.67h5.28Zm2.44-11.88s1-5.89,3.86-5.69S492.8,337,492.8,337ZM473,383.33c-2.91,2.44-4.6-1.08-4.6-1.08,1.86-7.33,16.52-17.35,17-17.66Zm43.73-17.09c-13.1,13.4-34.46,15.43-34.46,15.43,7.48-8.43,22.78-35.44,22.78-35.44S529.86,352.83,516.76,366.24Z"/><path class="cls-1" d="M514.66,319.85c5.73-22.13,15.91-20.22,15.91-20.22C537.17,309.88,514.66,319.85,514.66,319.85Z"/><path class="cls-1" d="M492.8,337l-9.24.92s1-5.89,3.86-5.69S492.8,337,492.8,337Z"/><polygon class="cls-1" points="486.4 345.13 481.12 349.8 481.12 345.13 486.4 345.13"/><path class="cls-1" d="M462.94,355.05s-.13,1.69-4.09,8-8.19,4.94-8.19,4.94C452.51,361.73,462.94,355.05,462.94,355.05Z"/><path class="cls-1" d="M485.41,364.59,473,383.33c-2.91,2.44-4.6-1.08-4.6-1.08C470.29,374.92,485,364.9,485.41,364.59Z"/><path class="cls-1" d="M516.76,366.24c-13.1,13.4-34.46,15.43-34.46,15.43,7.48-8.43,22.78-35.44,22.78-35.44S529.86,352.83,516.76,366.24Z"/><polygon class="cls-1" points="327.84 297.91 272.54 330.4 294.64 343.45 305.61 336.94 294.64 330.4 327.84 310.99 327.84 297.91"/><polygon class="cls-1" points="327.84 323.93 316.87 330.4 327.84 336.94 327.84 323.93"/><polygon class="cls-1" points="327.84 350.03 316.87 343.45 272.54 369.55 327.84 402.2 327.84 389.1 294.64 369.55 327.84 350.03"/><polygon class="cls-1" points="272.54 382.73 283.67 389.1 283.67 441.32 272.54 447.72 272.54 382.73"/><polygon class="cls-1" points="294.64 434.64 327.84 415.3 294.64 395.68 294.64 408.76 305.61 415.3 294.64 421.63 294.64 434.64"/><polygon class="cls-1" points="327.84 428.38 272.54 460.86 327.84 493.51 327.84 480.54 294.64 460.86 327.84 441.32 327.84 428.38"/><polygon class="cls-1" points="327.84 506.6 294.64 487.18 294.64 500.19 316.87 513.28 327.84 506.6"/><polygon class="cls-1" points="272.54 474.1 283.67 480.54 283.67 506.6 272.54 513.28 272.54 474.1"/><polygon class="cls-1" points="294.64 513.28 272.54 526.36 272.39 539.72 305.61 519.68 294.64 513.28"/><polygon class="cls-1" points="327.84 363.06 316.87 369.53 327.84 376.07 327.84 363.06"/><polygon class="cls-1" points="327.84 454.44 316.87 460.91 327.84 467.45 327.84 454.44"/><polygon class="cls-1" points="272.54 343.57 283.67 350.05 272.54 356.59 272.54 343.57"/><path class="cls-1" d="M147.67,159.51c1.37-3.31,5-7.56,10.92-12.69a136,136,0,0,1,10.84-8.45l.4-.28-.12.47a8,8,0,0,0,1.36,6.22,13.42,13.42,0,0,0,2,2.46C175,139.85,179.64,133,187,126.92a59.72,59.72,0,0,1,11.17-7.37,21.13,21.13,0,0,0-6.06-.86,34.57,34.57,0,0,0-14.84,3.9,53.34,53.34,0,0,0-10.17,6.57A48,48,0,0,0,152,145.71,40,40,0,0,0,147.67,159.51Z"/><path class="cls-2" d="M210,168s.13.76.44,2a41.41,41.41,0,0,0,1.38,4.42,29.55,29.55,0,0,1,1.16-3.62c.52-1.33,1-2.37,1-2.38a43,43,0,0,1,3.73-5.88c2.13-2.8,5.46-6.37,9.29-7.46,3.07-.88,5.81.23,7.92,3.2a17.39,17.39,0,0,1,2.23,4.61c3.78-.52,5.94-4.24,7.09-7.3a30,30,0,0,0,1.63-6.73,16.55,16.55,0,0,0-3.82-7.16c-2.41-2.63-6.69-5.48-14-5.48a33,33,0,0,0-4.57.34c-8.11,1.16-12.85,6.79-14.08,16.73A51.12,51.12,0,0,0,210,168Z"/><path class="cls-2" d="M198.61,119.73h0C187.7,125.84,183,133.6,180.93,139a27.11,27.11,0,0,0-1.87,10.26c1.22-.15,2.46-1.16,3.68-3a22.15,22.15,0,0,0,2-4l.35.12a7.15,7.15,0,0,0-.3,2.47,18.86,18.86,0,0,0,.28,2.52v.08c.11.67.23,1.38.37,2.06a13.84,13.84,0,0,0,.59,2.08,6.13,6.13,0,0,0,.64,1.2c.26.38.56.75.85,1.1s.37.48.6.79l.36.52.2.28a16.14,16.14,0,0,1,.84,1.4c.28.53.54,1,.73,1.45s.35.68.52,1l.5,1c0,.1.13.27.2.43a1.07,1.07,0,0,1,.09.19c5.39-3.91,7-7.54,7.44-9.91a7.34,7.34,0,0,0-.39-4.24l-.57-1.1.86.88a4.39,4.39,0,0,0,4.79,1.26,6.86,6.86,0,0,0,2.23-1.23,25.93,25.93,0,0,1-1.38-5.39,14.39,14.39,0,0,1,0-4.36v0a19.14,19.14,0,0,1,2.08-8.84c2.14-4.14,6.92-9.26,17.6-10.1a48.45,48.45,0,0,1,8.53.17,75.52,75.52,0,0,1,9.13,1.55,91.81,91.81,0,0,0-9.22-3.8c-2.73-.95-4.47-1.39-4.48-1.39h-.09l-7.87-1h-.36c-4.83,0-10.26,1.66-14,3.07a70.13,70.13,0,0,0-6.81,3"/><path class="cls-1" d="M205,135.15a9.93,9.93,0,0,1,3.15-4.52,15.24,15.24,0,0,1,5.85-2.85,25.72,25.72,0,0,1,4.61-.76,19.64,19.64,0,0,1,2-.06h.21c17.82,0,23.78,5.94,25.65,10.93a16.53,16.53,0,0,1-.26,11,.18.18,0,0,1,0,0,30.42,30.42,0,0,1-1.64,6.77c-1.73,4.58-4.34,7.19-7.56,7.56l-.15,0,0-.16a16.29,16.29,0,0,0-2.21-4.64c-2-2.88-4.57-3.91-7.52-3.07-3.73,1.07-7,4.58-9.09,7.34a40.81,40.81,0,0,0-3.69,5.81s-.48,1-1,2.35c-.32.82-.69,1.85-1,2.83,3.93-7.31,8.43-9.5,11.59-10a10.68,10.68,0,0,1,6.35.84l.15.08-.07.16c0,.05-2.43,5.7-.61,10.72,2.33,6.44,10.61,9,24,7.56a40.24,40.24,0,0,1-7.54-2.19c-4.34-1.76-10.11-5.1-12.9-11.05l-.06-.12.09-.09a31.05,31.05,0,0,1,3.21-2.69c2.48-1.79,4.59-2.65,6.24-2.6l.09,0a22,22,0,0,0,5,1.88c2.27.52,5.31.73,7.53-1a5.32,5.32,0,0,1-1.25.13H254a16.16,16.16,0,0,1-6.79-2.16l-.44-.23.48-.11c.08,0,7.89-2,11.3-8.15,4.53-8.18-.7-20-15.12-34.32h0a80.75,80.75,0,0,0-10.61-1.9,47.79,47.79,0,0,0-8.47-.17c-10.51.83-15.21,5.84-17.3,9.9A19.08,19.08,0,0,0,205,135.15Z"/><path class="cls-2" d="M212.1,175.08a38.12,38.12,0,0,0,9.55,14.33c5.78,5.22,13.07,7.87,21.68,7.87,14.76,0,21.46-10.93,24.48-20.1A67.4,67.4,0,0,0,270.86,157c0-8.5-3.06-16.27-9.11-23.1a60,60,0,0,0-17.25-13c17.56,17.7,17.54,28.21,14.37,33.94-3,5.43-9.33,7.67-11.08,8.2A15,15,0,0,0,254,165h.19a3.6,3.6,0,0,0,2-.43h0l0,0,.19.31h0c-1.84,2-4.82,2.59-8.55,1.72a22,22,0,0,1-5.07-1.9h-.13c-1.53,0-3.55.87-5.84,2.53a29.23,29.23,0,0,0-3.07,2.56c2.76,5.77,8.4,9,12.65,10.74a38,38,0,0,0,8.75,2.38l1.49.18-1.49.19a65,65,0,0,1-8.17.57c-11.79,0-16.07-4.26-17.51-8.21-1.69-4.68.17-9.85.56-10.84a10.81,10.81,0,0,0-6-.72C220.79,164.6,216.1,166.94,212.1,175.08Z"/><path class="cls-2" d="M86.63,182.83a34.06,34.06,0,0,0,8.55,4.55c7,2.46,13.33,1.63,18.73-2.44l.3-.22v6.12a48.61,48.61,0,0,0,6.21-2.57c3-1.5,6.55-3.86,6.9-6.56l0-.2.2.05a7.82,7.82,0,0,0,5.36-1c3.48-2.14,5.16-7.28,4.88-14.84l0-1.07.4,1a29.12,29.12,0,0,0,2.88,5.2c1.66,2.37,4.35,5.32,7.83,6.13a31.23,31.23,0,0,1-1.06-4.1,43.27,43.27,0,0,1-.7-11.19v0a40.3,40.3,0,0,1,4.58-16.14,48.25,48.25,0,0,1,15.15-16.68,54.58,54.58,0,0,1,10.23-6.6c5.53-2.73,13.76-5.45,21.56-3a68.64,68.64,0,0,1,7.18-3.17,49.06,49.06,0,0,1,11.54-3,124.54,124.54,0,0,0-38.86,3.33c-20.27,5.22-36.11,15.78-47.07,31.4-12.93,18.44-24.47,29.84-34.3,33.91a18.33,18.33,0,0,1-7,1.56A10.48,10.48,0,0,1,86.63,182.83Z"/><path class="cls-1" d="M103.76,237.83c.47,12.5,9.12,23.22,10.28,24.6l.13.15a51,51,0,0,0,10.6,8.53c5.92,3.55,15,7.15,24.83,4.1a27.3,27.3,0,0,0,14.56-12c3.72-6.36,4-12.82.77-18.2-2.69-4.48-7.69-6.68-13.69-6-5.44.59-10.86,3.51-13.82,7.44a.65.65,0,0,1-.49.26c-.79.1-2.27-.85-4.46-2.77a41.67,41.67,0,0,1-4.22-4.2c-4.4-6.66-4.29-14.89.32-23.16A37.07,37.07,0,0,1,146,200.7c-15.26,4-26.55,9.51-33.57,16.41C106.39,223.05,103.47,230,103.76,237.83Z"/><path class="cls-2" d="M81.54,258.05c2.62,6.8,10.37,15.71,32.36,19.6a20.65,20.65,0,0,0,1.09-4.52,20.45,20.45,0,0,0-1.12-10.32c-.52-.61-10-11.81-10.48-25-.3-7.92,2.66-15,8.79-21,7.36-7.22,19.35-12.93,35.64-17-27.93,1.53-44.49,13.22-53.52,22.87a61,61,0,0,0-13.07,21h0l0,.08a2.78,2.78,0,0,0-.1.3h0A21.44,21.44,0,0,0,81.54,258.05Z"/><path class="cls-1" d="M46.26,297.9a42.77,42.77,0,0,0,15.82,27.73h0a24.23,24.23,0,0,0,9.51,2.46c4.83.19,11.68-1.26,17-9.22-.8,0-2.67-.63-7.32-3.34-3.63-2.11-7.22-4.5-7.69-4.87a31.48,31.48,0,0,1-12.08-23.16c-.61-7.95,1.14-17.08,5-26.39a48.34,48.34,0,0,1,5.5-10,20.51,20.51,0,0,1,8.66-7.2A60.76,60.76,0,0,1,94,222.46c.54-.58,1.11-1.16,1.7-1.75C76.5,235.64,62.65,250.3,54.55,264.29,47.75,276,45,287.35,46.26,297.9Z"/><path class="cls-2" d="M36.31,300.87a45.71,45.71,0,0,0,2.44,13.93A117.42,117.42,0,0,0,44.15,328a61.77,61.77,0,0,1,4.73,14.17,47.94,47.94,0,0,1,.59,14.93A72.25,72.25,0,0,1,48.13,365,16.69,16.69,0,0,1,45.72,371c1.53-.77,3.68-2,6.32-3.74s4.66-3.08,4.89-3.24l0,0a31.36,31.36,0,0,0,6.33-10.34c2.31-6.05,3.93-15.78-1.44-27.8-.93-.67-13.78-10.4-16-27.95-1.31-10.64,1.5-22,8.34-33.85,8.55-14.75,23.45-30.23,44.3-46,10-8.8,26.17-17.78,51.19-18.71,8.61-2.59,17.15-2.41,23.84-1.92,3.77.27,7.61.72,11.32,1.14,5.25.61,10.67,1.23,16,1.4a173.93,173.93,0,0,0,17.58-.15,71.73,71.73,0,0,0,17-3,30.12,30.12,0,0,1-14-7.16l-.1-.09c-5.5-1-11.27-1.75-17.15-2.22-5.58-.45-11.41-.66-17.36-.64a247,247,0,0,0-25.24,1.42c-8.2.88-16.61,2.19-25,3.88a114.65,114.65,0,0,0-45.81,20.59,145.05,145.05,0,0,0-34.48,36.93,165,165,0,0,0-13.72,24.39C38.29,283.72,36.26,292.53,36.31,300.87Z"/><path class="cls-2" d="M0,325.7l21.1-10.45v.29c.1,2.63.28,5.43.54,8.31.23,2.64.53,5.35.9,8.28.69,5.43,1.83,10.7,2.93,15.79.76,3.5,1.55,7.12,2.15,10.67,1.28,7.5,2.18,16.53-.73,26.64A21.35,21.35,0,0,0,34.39,387,14.36,14.36,0,0,0,47.71,380l.12-.18L48,380a127.37,127.37,0,0,0,14,11.52,79.06,79.06,0,0,0,15.88,8.73,55.4,55.4,0,0,0,14.25,3.52,93.19,93.19,0,0,0,14.72.47,112,112,0,0,0,17.34-1.9A69.38,69.38,0,0,0,140.84,397a75.21,75.21,0,0,0,14.45-9.09,70.5,70.5,0,0,0,12-12.13c6.56-8.55,10-19.92,9.59-32s-4.54-23.34-11.72-31.49l-.64-.71-.66-.7a37.85,37.85,0,0,0-23.8-11.14A39.28,39.28,0,0,0,101,323.1c-2.16,5.25-3.54,13,2.16,20.15a28.7,28.7,0,0,0,8.71,5.63c6.64,2.58,12.25,1,16.67-4.78a18.45,18.45,0,0,0,1.24-7.5c-.42-4.62-3.51-7-9.2-7-.3,0-.62,0-.94,0l0-.38h0a5.5,5.5,0,0,0,1.82-1l.61-.47a12.49,12.49,0,0,1,1.29-.93,26,26,0,0,1,4.67-1.94,18,18,0,0,1,5-.81h.17c5.56,0,10.92,3.09,14.35,8.3a18.19,18.19,0,0,1,2.15,16.69c-1.62,4.05-6.11,6.58-10.45,9l-1.23.69c-4.71,2.68-9,5.48-9.12,10.2v0h-.37a14.34,14.34,0,0,0-1.62-6.35c-1.6-3.08-5.12-7.1-12.84-8.73a16.28,16.28,0,0,0-6.81,2.49c-4,2.76-5.29,7.08-3.72,12.85a8.65,8.65,0,0,1,3.14-1.74,15.72,15.72,0,0,1,4.26-1.18c2.79.42,4.42,3.12,4.35,7.24-.06,3.6-1.43,7.16-3.26,8.46-10.22,7.24-21.06,8.94-31.35,4.9-9.07-3.56-17.45-11.53-23.62-22.46-.56.38-2.51,1.71-4.76,3.15A53.69,53.69,0,0,1,44.57,372l-.14-.34h0c1.24-.5,2.39-2.84,3.33-6.77A72.93,72.93,0,0,0,49.1,357a47.17,47.17,0,0,0-.59-14.81,60.91,60.91,0,0,0-4.7-14.09,120.06,120.06,0,0,1-5.42-13.21,46.51,46.51,0,0,1-2.45-14.05c-.06-8.39,2-17.25,6.27-27.08A164.64,164.64,0,0,1,56,249.35a145.48,145.48,0,0,1,34.57-37,120.35,120.35,0,0,1,19.18-11.63c-26.36,11.14-48.15,30.13-62.25,44.75a248.51,248.51,0,0,0-26.37,32.14l.2,0-.19.33c-.05.09-5.34,9.4-10.55,19.95C3.79,311.46.16,321.08,0,325.7Z"/><path class="cls-1" d="M0,261.71a22.37,22.37,0,0,0,3.14,8.89c2.51,4,7.59,8.38,17.42,7a249,249,0,0,1,26.6-32.46c15.48-16,40.22-37.37,70.1-47.83a112.45,112.45,0,0,1,19.19-5.68c8.4-1.7,16.82-3,25-3.89a248.14,248.14,0,0,1,25.29-1.42c6,0,11.8.19,17.39.64s11.28,1.17,16.63,2.13A35.58,35.58,0,0,1,214.5,181a248.23,248.23,0,0,0-28.94-.73c-9.38.3-19.09,1.09-28.86,2.37a214.33,214.33,0,0,0-31.62,6.53A183.89,183.89,0,0,0,95,200.72c-6.4,3.14-12.1,6.27-17.45,9.55A151,151,0,0,0,61.3,221.74c-4.81,3.91-8.91,8.71-12.88,13.35l-.89,1c-4.61,5.38-8.86,10.15-14.2,14a81.67,81.67,0,0,1-15.82,9.1C10.7,262.08,4.81,262.9,0,261.71Z"/><path class="cls-2" d="M73,439.2a.08.08,0,0,1,0,0,40.59,40.59,0,0,0,6.89,8.66,33.73,33.73,0,0,0,9.1,6.29c7.7,3.53,16.06,2.61,24.87-2.74,6.28-3.81,12.67-9.72,19.54-18.07a80.66,80.66,0,0,0,8.85-13.06,58.83,58.83,0,0,0,5.63-14.69,35.64,35.64,0,0,0,.86-6.24,17.28,17.28,0,0,0-.68-5.95,71.93,71.93,0,0,1-7,3.82c-7.17,26.93-19.87,36.32-29.26,39.46a31.71,31.71,0,0,1-10,1.61,29.4,29.4,0,0,1-8.84-1.26h0a10.67,10.67,0,0,1-5.35-1.23c-2.76-1.35-6.66-4.45-9.61-11.58a12.28,12.28,0,0,0-4.5,3.23C70.82,430.59,70.67,434.53,73,439.2Z"/><path class="cls-1" d="M93.06,436.72h0a31.21,31.21,0,0,0,18.61-.36c9.28-3.1,21.8-12.36,28.95-38.91a64.33,64.33,0,0,1-12,4.24,33.5,33.5,0,0,1-8.38,13.95c-5.67,5.33-15.91,9.66-32.53.09a19.17,19.17,0,0,0-2.3,7.42C84.9,428.84,87.49,433.4,93.06,436.72Z"/><path class="cls-2" d="M54.18,471.47a24.47,24.47,0,0,0,6.47,5.84c4.06,2.57,10.92,5.39,20.6,4.13l.71-.1-.58.43a23.68,23.68,0,0,0-5.89,7.05c-2.19,4.06-3.91,10.54.21,18.46a18.61,18.61,0,0,1,4.51-3.9,13.29,13.29,0,0,1,12.3-1c4.62,1.9,16-5.83,28.93-19.7.36-.39.73-.78,1.09-1.18a173.54,173.54,0,0,0,18-23.27l.05-.08,0,0c1.26-2.12,2.18-3.61,2.66-4.35.07-.1.12-.19.18-.29l0-.05.09-.15a86.5,86.5,0,0,0,6.86-14.43,102.35,102.35,0,0,0,4.13-16c1.54-8.63,2.74-21.44-.2-33.73q-2.91,2.25-6,4.17a17.71,17.71,0,0,1,.72,6.16,36.16,36.16,0,0,1-.87,6.31,59.6,59.6,0,0,1-5.66,14.79,81,81,0,0,1-8.9,13.11c-6.9,8.39-13.32,14.33-19.63,18.16-5.37,3.26-10.59,4.89-15.59,4.89a22.94,22.94,0,0,1-9.62-2.13,33.94,33.94,0,0,1-9.2-6.36,40.34,40.34,0,0,1-6.92-8.7A24.56,24.56,0,0,1,64.48,437a27.1,27.1,0,0,1-13-14.49,39.52,39.52,0,0,0-4.84,15c-.84,8.1.91,19.87,14,30l.4.31-.5,0a8.81,8.81,0,0,0-2.39.56A8.27,8.27,0,0,0,54.18,471.47Z"/><path class="cls-1" d="M102.9,546.92h0a18,18,0,0,0,4.84,4.44,13.93,13.93,0,0,0,12.87,1.2,17.08,17.08,0,0,1-7.54-7.16c-3-5.18-5.22-14.87.77-31.6a296.14,296.14,0,0,1,12.86-30c-14,20.44-19.77,36.32-22.12,46.16C102.1,540.33,102.81,546.28,102.9,546.92Z"/><path class="cls-2" d="M90.92,572.62l-.14.12.19,0a20.59,20.59,0,0,0,.91,3.61,23.43,23.43,0,0,0,3.88,7.19c5.35,6.6,14,8.85,25.07,6.51a15.78,15.78,0,0,0,6.28-2.41c2.88-1.87,6.4-5.58,7-12.65a12.26,12.26,0,0,1-4.31,1.19c-2.64.26-6.78-.09-11.59-3.26a34.81,34.81,0,0,1-10.83-11.16A36.21,36.21,0,0,1,102.55,547s0-.2-.07-.57l0-.18v0c-.17-1.91-.37-7.58,1.75-16.47,2.43-10.2,8.5-26.85,23.59-48.33,1.88-3.75,3.67-7.15,5.25-10.09s3.12-5.69,4.47-8.05a184,184,0,0,1-14.72,18.37l-.1.11c-2.69,3.24-5.51,6.87-8.62,11.09l-2,2.68c-2.19,3-4.34,6.11-6.3,8.88-1,1.49-2.14,3-3.2,4.48-1.76,2.45-3.59,5-5.31,7.53a80.84,80.84,0,0,0-7.23,12.73,62.69,62.69,0,0,0-5.31,22.06C84.44,560.07,86.5,567.24,90.92,572.62Z"/><path class="cls-2" d="M62.08,545.31a21.93,21.93,0,0,0,3.82.8,13.41,13.41,0,0,0,7.42-1h0a111.18,111.18,0,0,1,8.8-15.86,162.25,162.25,0,0,1,29.74-33.91l0,0c.62-.88,1.27-1.75,1.9-2.62,2-2.67,3.81-5.1,5.58-7.35-12,12.37-22.4,19.13-26.93,17.38a52.6,52.6,0,0,0-14,9.5A51.79,51.79,0,0,0,62.08,545.31Z"/><path class="cls-1" d="M70.94,567.12a145.11,145.11,0,0,0,7.53,34.34c6.31,17.51,19.11,39.16,44.22,42.92s37.93-2.49,44.24-8.4a25.62,25.62,0,0,0,7.55-12.81,43.25,43.25,0,0,1-11.1,11.66,34.93,34.93,0,0,1-20.44,6.57,42.87,42.87,0,0,1-15-2.88c-16.4-6.11-24.51-20.91-28.42-32.26A89.25,89.25,0,0,1,94.87,583a24.33,24.33,0,0,1-3.59-7.29,23,23,0,0,1,0,3.62c-.23,2.71-1.08,4.72-2.53,6a3.64,3.64,0,0,1-4.07.81,13.39,13.39,0,0,1-3.37-2.47l-.22-.19a33.62,33.62,0,0,1-8.5-11.56A29.71,29.71,0,0,1,70.94,567.12Z"/><path class="cls-1" d="M70.68,564h0a1.13,1.13,0,0,0,0,.14,29.8,29.8,0,0,0,2.23,7.62,33.34,33.34,0,0,0,8.41,11.43l.22.2a13,13,0,0,0,3.26,2.4,3.25,3.25,0,0,0,3.69-.75c1.37-1.2,2.18-3.13,2.4-5.74a30.84,30.84,0,0,0-.3-6.45c-4.46-5.44-6.55-12.68-6.19-21.53a63,63,0,0,1,5.34-22.19A80.11,80.11,0,0,1,97,516.3c1.72-2.55,3.54-5.08,5.31-7.53,1.06-1.47,2.15-3,3.2-4.48,1.68-2.39,3.51-5,5.39-7.61a161.18,161.18,0,0,0-28.49,32.8,110.33,110.33,0,0,0-8.81,15.89l-.17-.07.09.16c-.13.07-.4.35-.79,1.51-.14.44-.27.89-.37,1.25s-.13.46-.17.58a34.16,34.16,0,0,0-1.79,9A29.18,29.18,0,0,0,70.68,564Z"/><path class="cls-1" d="M72.26,604.4c.43,3.1.94,6.06,1.52,9a122.38,122.38,0,0,0,3.61,13.84,75.49,75.49,0,0,0,4.94,11.62,78,78,0,0,0,6.79,10.65c2.1,2.77,3.9,5,5.67,7.06a82.37,82.37,0,0,0,6.26,6.52c1.52,1.41,3.2,2.71,4.82,4,.71.55,1.42,1.1,2.12,1.66a32.49,32.49,0,0,1,6.32,6.35,39,39,0,0,1,3.45,6,41.88,41.88,0,0,1,2.4,6.5v.07a25.47,25.47,0,0,1-.94,4.13,13,13,0,0,1-3.31,5.74,29.56,29.56,0,0,0,10.17-3.58c7-4.16,10-10.65,8.92-19.3l-.05-.39.33.22a35.93,35.93,0,0,0,4.69,2.51,29,29,0,0,0,5,1.7,27.77,27.77,0,0,0,6.71.55l2.16,0c1.56,0,3.16-.08,4.68,0h.35c7.11.33,15.95.74,23.68,3.18,9.24,2.92,14.62,8,16.43,15.63A29.69,29.69,0,0,0,207.8,688c3.11-5.89,4.93-15.41-4-27.35a129.55,129.55,0,0,1-34,9.7,102.73,102.73,0,0,1-14,1,80.87,80.87,0,0,1-17.29-1.78,62.39,62.39,0,0,1-30.56-16.18C89,635,80,621.26,75.8,613A54.07,54.07,0,0,1,72.26,604.4Z"/><path class="cls-1" d="M210,555.13l0,0a67.19,67.19,0,0,1,21.76,31.68,74,74,0,0,0-4.06-13.4,68.6,68.6,0,0,0-15.51-23.16,35.21,35.21,0,0,1-6.72-8.43,13.58,13.58,0,0,1-1.63-9.5,12.71,12.71,0,0,0-1.95,5.75C201.49,541.87,202.62,547.89,210,555.13Z"/><path class="cls-1" d="M171.52,531.12a46.83,46.83,0,0,0,3.46,9.46,68.81,68.81,0,0,1,23.62,7.24,67.31,67.31,0,0,1,9.5,5.91c-6-6.6-7-12.12-6.63-15.68a13,13,0,0,1,1.89-5.76,8.51,8.51,0,0,1-2.47.2,22.5,22.5,0,0,1-3.61-.42,18.25,18.25,0,0,1-5.92-2.74,28.4,28.4,0,0,1-4.88-4.34,43,43,0,0,1-4-4.88,10.7,10.7,0,0,1-2.15-5.83c0-1.62.69-2.46,2.12-2.64a10.71,10.71,0,0,1,1.71,0,9,9,0,0,0,2-.06,2.28,2.28,0,0,0,2-2.61,2.59,2.59,0,0,0-2.76-2.21h0a11.71,11.71,0,0,0-6.83,2.39,23.43,23.43,0,0,0-5.2,5.3C169.69,519.37,170.34,526.23,171.52,531.12Z"/><path class="cls-2" d="M218.94,682.41c5,8.26,13.47,18.51,27.89,28.26a113.74,113.74,0,0,0,15.65,9.22c8.61,4.24,21.67,9.35,35,9.62s24,.42,30.64.51c7.15.09,11.19.11,11.23.11a63,63,0,0,1,11.26,1.54c7,1.69,11.31,4.47,12.5,8.09a18.11,18.11,0,0,0-.93-8.68c-2.45-6.38-8.87-10.11-18.57-10.79l-1-.08,1-.29a12.92,12.92,0,0,0,2.9-1.4,9.41,9.41,0,0,0,4-4.76,12.53,12.53,0,0,0-3.68-2.6,13,13,0,0,0-10.4-.16l-.17.06-.07-.17a8.8,8.8,0,0,0-4.27-4.28c-4-1.66-9.17.51-15,6.29l-.25.24-1-5.46a63.63,63.63,0,0,1-12.81,2.41c-6.82.56-16.63.16-24.61-5l-.22-.14.2-.16a1.55,1.55,0,0,0,.45-.92,3.52,3.52,0,0,0-1.39-2.73,27.62,27.62,0,0,1-6.36,1.49A34.92,34.92,0,0,1,255.07,701,49,49,0,0,1,241,698.2,46.44,46.44,0,0,1,218.94,682.41Z"/><path class="cls-1" d="M211.64,664.22a52.62,52.62,0,0,0,4,11.93c.39.85.83,1.74,1.31,2.67h0a45.69,45.69,0,0,0,24.15,19,48.68,48.68,0,0,0,14,2.73h0c.33,0,4.29-.32,8.46-1,5.53-.89,9-2,10-3.32a15.46,15.46,0,0,0-1.44-1.57,8.48,8.48,0,0,0-3.6-2.15l-.6-.13.58-.22a12.8,12.8,0,0,0,4.3-3.11c1.87-2.06,3.93-5.73,3.18-11.53a12,12,0,0,0-4.61-1.14c-2.51-.09-6.19.61-9.5,4.59l-.28.34-.57-5.53a23.77,23.77,0,0,1-7.28,5,21.35,21.35,0,0,1-11.2,1.63,17.86,17.86,0,0,1-2.89.19,29.42,29.42,0,0,1-8.58-1.31C225.36,679.53,217.48,675.14,211.64,664.22Z"/><path class="cls-2" d="M70.33,581.61c.17,5.66.59,11.58,1.27,17.59v0l.21,1.77a44.53,44.53,0,0,0,4.32,11.82c4.16,8.26,13.11,22,32.07,40.31s43.89,19.3,61.52,16.88a128.68,128.68,0,0,0,34-9.72,6.76,6.76,0,0,1,2.06-2c1.14-.65,2.89-1,4.88.94a43.87,43.87,0,0,1,1.37-10.5c1.42-5.48,4.61-12.92,11.79-17.21a16.39,16.39,0,0,1,4.71-1.56,11.44,11.44,0,0,1,8.82,1.8,22.94,22.94,0,0,1-.44-2.76c-.2-2.35.17-3.9,1.08-4.61a1,1,0,0,1,.91-.21c.74.19,1.48,1.2,2.27,3.09a33.22,33.22,0,0,1,1.34,4,6.24,6.24,0,0,0,2,3c1.52,1.33,4.46,2.89,9.91,2.89h.36a18.59,18.59,0,0,0,.14-7.71c-.78-4.1-3.33-10-11.09-14.71l.2-.32a.84.84,0,0,0,.35,0,5.23,5.23,0,0,0,.6,0l.46-.05a3.89,3.89,0,0,1,.68-.06,22,22,0,0,1,2.71.23,21.34,21.34,0,0,1,2.66.59,16.5,16.5,0,0,1,7.78,5.14,19.31,19.31,0,0,1,4.2,8.39c1.87,8.43-.68,13.27-3.15,15.85a13.67,13.67,0,0,1-5.72,3.57,6.61,6.61,0,0,0,1.24,3c1.51,2,4,2.77,7.43,2.32l.05.37a2,2,0,0,0-.61.36l-.22.18a5.57,5.57,0,0,1-.47.35,15.26,15.26,0,0,1-1.95.94,13.32,13.32,0,0,1-2.06.65,16.1,16.1,0,0,1-6.78.2,7.75,7.75,0,0,1-5.48-3.65,9,9,0,0,1-1.05-6.43,10.11,10.11,0,0,1,3.41-5.3,19.11,19.11,0,0,0-6.93-1.41h-.08c-5.33,0-9.61,2.48-12.69,7.37l0,0a16.78,16.78,0,0,0-.28,7.31c.69,3.9,3.09,9.58,10.6,14.46s15.22,1.82,20.39-1.59a45.4,45.4,0,0,0,9.56-8.69,34.93,34.93,0,0,0,5.8-10.94,27.94,27.94,0,0,0-3.56-24.86,38.82,38.82,0,0,0-10.49-8.13,34.68,34.68,0,0,0-27.93-2.33h0l-.11-.35c.15-.05.67-.59.81-5.32.06-2.23,0-4.52,0-5.5v-.43a71.44,71.44,0,0,0-.95-11.08C225.16,566,210,554,198.43,548.15a68.23,68.23,0,0,0-23.59-7.21v-.17l-.15.09v0s-.06-.07-.31-.13a9,9,0,0,0-1.56-.18c-.64,0-1.29,0-1.72,0h-.47a44.27,44.27,0,0,0-5.4,0,46.8,46.8,0,0,0-17.9,4.88,38.25,38.25,0,0,0-10.62,7.84,33.84,33.84,0,0,0-6.57,10.57,26.23,26.23,0,0,0-2,12,12.12,12.12,0,0,0,1.64-.06,11.62,11.62,0,0,0,4.47-1.3l.3-.19,0,.36a17.37,17.37,0,0,1-4.35,10.85,65.07,65.07,0,0,0,4.32,12.82,38.92,38.92,0,0,0,7.62,11.18,40.16,40.16,0,0,0,12,8.35c5.2,2.23,9.91,2.49,14,.77a21.59,21.59,0,0,0,5.66-3.19,11.52,11.52,0,0,0,3.6-5.21,9.4,9.4,0,0,0,.57-4.57,2.9,2.9,0,0,0-3.07-2.51,5.91,5.91,0,0,0-1.95.37,7.88,7.88,0,0,0-3.79,3,5.14,5.14,0,0,1-4.06,2.44,4.73,4.73,0,0,1-2.13-.35A17.31,17.31,0,0,1,153.05,598a25.68,25.68,0,0,1,0-14.73c1.47-5.45,5.4-10.62,10.77-14.21s11.71-5.21,17.31-4.4a21.26,21.26,0,0,1,4.6,1.21,22.88,22.88,0,0,1,4.25,2.14,8.94,8.94,0,0,1,1,.83l.52.46c.29.26,1.08,1,1.43,1l0,.38c-.61-.05-1.21-.08-1.8-.08-7,0-12.28,3.72-15.71,11.06a39.48,39.48,0,0,0-3.19,11.92,22.32,22.32,0,0,1,8.32-2.64,14.28,14.28,0,0,1,8.8,1.69c5,2.89,8.37,9,9.34,16.63.9,7.18-.59,14.42-3.9,18.89a19.38,19.38,0,0,1-5.65,5.12l-.78.36-.67.3a7.91,7.91,0,0,0-1.23.6l-.1-.11-.22,0v0c.31-3.93-1.49-7.14-5.34-9.56a20.8,20.8,0,0,0-5.75-2.43,25.67,25.67,0,0,1-7.83,13.84c-6.37,6-19.27,12.27-44.54,8.49A47.74,47.74,0,0,1,93.8,629c-6.37-7-11.64-16.23-15.68-27.42a146.44,146.44,0,0,1-7.6-35C70.25,571.48,70.19,576.5,70.33,581.61Z"/><path class="cls-1" d="M211,659.61v.07h0a24.51,24.51,0,0,0,.36,3.27c5.83,11.61,14,16.18,19.76,18a28.61,28.61,0,0,0,9.9,1.26,26.42,26.42,0,0,1-7.31-2.59,20.17,20.17,0,0,1-6.53-6c-2.67-3.83-5.3-10.46-2.6-20.24a24.84,24.84,0,0,1,1-2.4,16.78,16.78,0,0,1,2.5-4l0,0c3.92-6.22,9.22-7.55,13-7.55h.07a18.89,18.89,0,0,1,7.36,1.57l.26.12-.22.19a9.79,9.79,0,0,0-3.52,5.29,8.59,8.59,0,0,0,1,6.16,7.38,7.38,0,0,0,5.22,3.47,16,16,0,0,0,6.62-.19,15.31,15.31,0,0,0,2-.64,16.68,16.68,0,0,0,1.9-.92,4.86,4.86,0,0,0,.41-.32l.22-.17c-3.9.3-5.9-1.2-6.93-2.55a6.86,6.86,0,0,1-1.33-3.32v-.15l.15,0a13.26,13.26,0,0,0,5.7-3.51c2.41-2.51,4.89-7.24,3.06-15.51a18.87,18.87,0,0,0-4.12-8.22,16,16,0,0,0-7.6-5,19.29,19.29,0,0,0-2.61-.58,21.36,21.36,0,0,0-2.67-.23,2.63,2.63,0,0,0-.62.06l-.48.05-.33,0c7.37,4.72,9.84,10.49,10.6,14.55a18.42,18.42,0,0,1-.18,8l0,.13h-.64c-5.57,0-8.59-1.61-10.15-3a6.41,6.41,0,0,1-2.12-3.18,33,33,0,0,0-1.32-4c-.92-2.19-1.61-2.77-2-2.88a.63.63,0,0,0-.59.14c-1,.78-1.07,2.77-.94,4.29a22.81,22.81,0,0,0,.55,3.21l.15.55-.45-.36a10.91,10.91,0,0,0-8.94-2,16.45,16.45,0,0,0-4.59,1.51c-7.06,4.22-10.21,11.57-11.61,17A43.32,43.32,0,0,0,211,659.61Z"/></g></g></svg>