<?xml version="1.0" standalone="no"?>
<!DOCTYPE svg PUBLIC "-//W3C//DTD SVG 20010904//EN"
 "http://www.w3.org/TR/2001/REC-SVG-20010904/DTD/svg10.dtd">
<svg version="1.0" xmlns="http://www.w3.org/2000/svg"
 width="571.000000pt" height="571.000000pt" viewBox="0 0 571.000000 571.000000"
 preserveAspectRatio="xMidYMid meet">
<metadata>
Created by potrace 1.11, written by Peter Selinger 2001-2013
</metadata>
<g transform="translate(0.000000,571.000000) scale(0.100000,-0.100000)"
fill="#000000" stroke="none">
<path d="M1445 5005 c-142 -38 -242 -113 -349 -260 -35 -48 -117 -192 -122
-215 -2 -11 -16 -46 -24 -62 -14 -26 -78 -250 -85 -299 -4 -24 -8 -46 -10 -49
-2 -3 -6 -23 -9 -45 -4 -22 -8 -47 -11 -55 -2 -8 -6 -35 -9 -60 -3 -25 -10
-76 -15 -115 -26 -184 -32 -331 -36 -890 -2 -258 -5 -481 -8 -495 -3 -14 -8
-43 -11 -65 -49 -377 -214 -709 -475 -958 -73 -70 -249 -197 -272 -197 -28 0
78 -151 177 -252 198 -204 407 -291 679 -284 127 4 147 6 230 27 405 102 670
376 712 739 13 109 7 329 -9 362 -20 40 13 14 63 -49 221 -283 516 -466 834
-518 83 -13 348 -14 425 -1 420 70 663 280 787 682 25 82 27 103 27 256 1 92
1 166 2 165 1 -1 22 -29 46 -62 109 -148 232 -250 396 -327 97 -46 232 -88
332 -103 25 -4 54 -9 65 -11 57 -12 248 -11 315 0 239 42 451 185 543 366 42
83 67 166 67 223 l0 37 -45 0 c-69 0 -191 28 -275 63 -199 82 -342 201 -489
407 -90 125 -120 179 -304 540 -247 487 -338 632 -491 786 -156 156 -327 237
-506 237 -147 0 -241 -37 -342 -135 -150 -146 -227 -386 -230 -718 -1 -90 10
-289 17 -300 2 -3 6 -30 10 -60 3 -30 10 -73 15 -95 5 -22 11 -58 14 -80 4
-23 9 -52 11 -65 28 -137 22 -368 -11 -481 -26 -87 -84 -179 -114 -179 -18 0
-105 143 -145 237 -52 125 -107 320 -138 493 -21 113 -27 150 -31 180 -93 746
-338 1303 -690 1566 -79 59 -174 109 -237 123 -62 15 -214 12 -274 -4z"/>
</g>
</svg>
