<?xml version="1.0" standalone="no"?>
<!DOCTYPE svg PUBLIC "-//W3C//DTD SVG 20010904//EN"
 "http://www.w3.org/TR/2001/REC-SVG-20010904/DTD/svg10.dtd">
<svg version="1.0" xmlns="http://www.w3.org/2000/svg"
 width="766.000000pt" height="766.000000pt" viewBox="0 0 766.000000 766.000000"
 preserveAspectRatio="xMidYMid meet">
<metadata>
Created by potrace 1.14, written by Peter Selinger 2001-2017
</metadata>
<g transform="translate(0.000000,766.000000) scale(0.100000,-0.100000)"
fill="#000000" stroke="none">
<path d="M3693 7476 c6 -57 30 -93 81 -122 37 -21 37 -21 13 -28 -28 -7 -66
-53 -72 -87 -6 -28 -3 -26 -50 -33 -22 -4 -58 -12 -80 -18 -22 -6 -42 -12 -45
-13 -109 -24 -280 -121 -381 -217 -78 -74 -192 -228 -204 -278 -1 -3 -11 -27
-23 -53 -18 -40 -50 -135 -58 -172 -9 -44 -37 -194 -39 -215 -19 -154 -24
-344 -11 -400 16 -69 88 -190 112 -190 7 0 48 11 91 24 63 20 143 43 173 51
24 6 70 16 90 20 14 3 39 8 55 11 17 4 39 8 50 9 11 2 34 6 51 9 211 39 583
40 803 1 174 -31 198 -37 379 -97 l123 -41 21 20 c18 18 54 122 63 178 1 11 3
20 4 20 5 0 13 143 14 235 1 148 -10 244 -48 400 -46 193 -193 408 -368 536
-126 94 -331 176 -453 183 -11 0 -21 7 -21 14 0 27 -35 85 -58 95 -27 13 -34
32 -11 32 23 0 75 58 85 96 5 20 6 45 2 57 -9 22 -9 22 -21 -4 -6 -14 -26 -34
-43 -45 -67 -40 -147 -26 -198 34 l-31 37 5 -49z m166 -1384 c9 -10 27 -18 41
-18 19 0 25 -5 26 -21 1 -12 8 -33 17 -46 14 -22 14 -26 -1 -41 -9 -9 -18 -26
-18 -36 -3 -37 -4 -39 -18 -34 -8 3 -29 -3 -46 -13 -30 -17 -32 -17 -45 0 -7
10 -17 17 -21 16 -28 -5 -44 3 -44 21 0 12 -7 32 -16 46 -15 22 -15 26 -1 42
8 9 17 28 19 41 2 17 10 25 26 26 13 1 31 9 40 18 20 21 21 21 41 -1z"/>
<path d="M5576 6413 c-1 -2 -45 -5 -97 -7 -52 -3 -113 -12 -137 -20 -74 -26
-175 -78 -217 -109 -47 -36 -125 -118 -125 -131 0 -5 -6 -17 -13 -25 -24 -29
-35 -89 -32 -178 5 -149 47 -260 121 -321 47 -39 99 -53 182 -50 37 1 72 -1
78 -5 35 -21 313 -30 444 -13 97 12 308 16 334 6 12 -4 38 -10 57 -11 19 -2
39 -11 46 -19 7 -8 13 -12 13 -7 0 4 9 -1 19 -10 78 -73 97 -94 122 -138 57
-100 48 -187 -27 -262 l-46 -45 -26 25 c-47 43 -96 60 -159 55 -50 -4 -61 -9
-88 -41 -53 -61 -44 -159 21 -236 33 -39 105 -82 147 -87 37 -5 80 -7 87 -4 3
1 14 4 25 6 11 3 25 6 30 7 26 6 132 72 150 93 20 23 42 34 31 15 -7 -11 -9
-78 -3 -106 7 -34 79 -24 182 24 106 49 164 129 160 224 -2 48 0 54 16 50 43
-12 115 -123 146 -227 22 -74 24 -86 27 -151 6 -148 -64 -261 -205 -331 -32
-16 -58 -33 -58 -39 -1 -13 54 -56 89 -71 25 -11 91 -11 135 -1 28 6 38 -2 24
-19 -6 -8 -9 -17 -6 -21 4 -3 2 -12 -3 -19 -13 -15 -16 -116 -6 -164 11 -47
35 -100 59 -127 27 -30 16 -50 -85 -154 -69 -73 -144 -110 -229 -114 -91 -5
-216 44 -238 93 -13 28 -14 92 -2 111 11 16 61 17 90 1 20 -10 21 -8 21 29 0
46 -32 90 -78 107 -61 23 -172 -55 -172 -120 0 -14 -5 -11 -22 14 -13 18 -36
40 -53 49 -126 69 -155 106 -149 187 4 62 32 110 82 145 44 30 127 34 174 9
39 -21 45 -35 16 -37 -13 -1 -33 -14 -46 -28 -54 -63 11 -175 102 -175 13 0
44 9 68 20 77 34 108 76 113 149 8 113 -88 245 -218 303 -51 23 -90 31 -152
30 -74 -2 -88 -3 -105 -9 -8 -4 -17 -7 -20 -8 -54 -13 -133 -71 -185 -136 -75
-92 -113 -275 -84 -411 24 -112 104 -238 196 -309 20 -16 27 -26 20 -31 -8 -5
-12 -53 -12 -150 1 -131 3 -164 19 -223 3 -11 10 -38 15 -61 6 -23 20 -62 31
-88 22 -51 99 -188 110 -196 4 -3 18 -27 31 -55 12 -27 33 -67 46 -87 13 -21
21 -38 18 -38 -3 0 8 -21 26 -47 18 -25 27 -43 21 -40 -6 5 -6 -1 1 -17 7 -13
16 -22 21 -19 5 4 6 1 2 -5 -4 -6 3 -33 15 -59 39 -86 71 -177 85 -238 18 -84
7 -225 -17 -225 -5 0 -9 -6 -9 -14 0 -8 -14 -25 -31 -37 -29 -20 -30 -23 -13
-30 34 -12 93 5 126 36 l31 30 -7 -43 c-17 -110 -114 -221 -217 -250 l-35 -9
-1 51 c-2 129 -115 254 -267 296 -58 16 -74 18 -145 19 -41 1 -51 4 -44 13 24
33 37 117 31 203 -1 10 -23 41 -49 67 -39 39 -54 48 -84 48 -28 0 -35 -4 -35
-20 0 -20 2 -21 41 -24 26 -1 45 -32 30 -50 -6 -7 -9 -15 -6 -18 3 -3 -18 -30
-47 -61 -50 -53 -107 -85 -148 -82 -21 1 -30 -14 -30 -52 0 -18 -4 -33 -10
-33 -5 0 -10 -6 -10 -12 0 -7 -24 -39 -53 -70 -28 -31 -59 -65 -67 -75 -24
-29 -81 -125 -85 -142 -2 -9 -10 -29 -19 -45 -8 -16 -13 -33 -10 -38 3 -4 0
-8 -6 -8 -6 0 -9 -4 -6 -8 3 -5 -2 -31 -10 -58 -9 -29 -15 -90 -16 -151 0 -91
-2 -101 -17 -94 -9 5 -52 8 -96 7 -69 -1 -91 -6 -145 -33 -122 -60 -164 -122
-164 -243 -1 -61 4 -86 26 -132 28 -60 87 -124 153 -166 58 -37 136 -37 193 1
63 41 97 99 97 164 0 29 1 53 3 53 2 0 12 -19 22 -43 27 -61 30 -118 9 -177
-30 -86 -107 -140 -197 -140 -47 0 -130 31 -144 53 -6 9 -10 8 -17 -3 -5 -8
-7 -18 -5 -22 9 -14 -9 -9 -28 9 -12 10 -36 17 -66 17 -44 1 -47 -1 -50 -28
-4 -36 15 -82 44 -105 22 -17 22 -18 3 -34 -39 -34 -17 -47 109 -62 60 -7 62
-11 10 -21 -52 -9 -89 -9 -145 -1 -41 6 -48 2 -45 -24 1 -4 -22 -17 -51 -29
-62 -27 -195 -34 -270 -15 -43 11 -49 10 -57 -5 -5 -10 -6 -20 -3 -24 17 -17
-12 -3 -49 24 -53 38 -108 41 -135 6 -13 -16 -25 -21 -38 -17 -35 11 -88 0
-111 -24 -14 -13 6 -44 41 -63 18 -10 18 -12 3 -13 -10 -1 -21 -2 -25 -3 -98
-21 -144 -64 -156 -144 -3 -17 -1 -32 4 -32 5 0 9 4 9 8 0 5 23 21 50 36 28
15 50 25 50 22 0 -2 15 0 33 5 17 5 149 12 292 15 278 4 337 11 450 49 48 16
242 114 268 135 6 5 39 31 72 57 100 80 180 167 169 184 -3 5 -2 8 3 7 4 -2 9
1 10 6 1 5 6 12 11 15 21 14 71 120 88 186 20 85 33 98 69 71 18 -13 18 -15
-6 -52 -13 -21 -24 -41 -25 -44 0 -3 -4 -13 -9 -23 -13 -30 -12 -90 1 -125 13
-33 14 -35 14 -50 0 -9 76 -92 84 -92 3 0 13 16 22 35 48 102 152 137 439 149
88 4 129 12 161 33 21 13 22 12 26 -41 6 -72 42 -120 116 -153 30 -13 56 -22
58 -20 3 2 -3 20 -11 40 -8 20 -15 45 -15 55 0 40 59 138 107 177 58 47 203
194 203 206 0 4 6 14 14 21 59 60 159 339 132 369 -8 9 -8 10 0 6 7 -4 13 10
17 41 4 26 9 61 12 77 10 56 12 205 4 211 -5 3 -9 11 -9 17 0 7 4 6 11 -3 8
-11 9 -6 4 20 -6 39 -7 59 -1 111 3 35 -7 120 -18 149 -5 12 3 15 49 13 l55
-1 -6 35 c-3 20 -7 43 -9 52 -4 22 -37 105 -44 111 -3 3 -13 19 -21 35 -22 43
-117 137 -173 169 -26 15 -45 32 -42 36 10 17 85 2 124 -23 45 -30 45 -30 56
50 6 45 -12 102 -44 138 -33 37 -31 40 28 41 62 2 118 21 168 60 40 30 42 57
7 70 l-25 9 44 46 c96 101 118 232 61 367 l-14 35 -29 -44 c-29 -46 -106 -105
-151 -116 -14 -3 -31 -11 -39 -17 -12 -9 -12 -8 -3 10 29 55 20 110 -24 139
-22 14 -24 14 -39 -15 -20 -39 -67 -86 -94 -95 -34 -11 -35 -1 -1 35 16 18 30
40 31 49 0 9 2 24 4 34 3 15 -11 74 -21 85 -1 2 -23 -6 -48 -18 -42 -19 -116
-37 -141 -35 -61 6 -132 44 -165 90 -26 35 -59 102 -54 108 3 3 20 1 37 -4 61
-18 224 -25 327 -16 120 12 288 98 406 209 l32 30 30 -30 c53 -51 197 -54 177
-3 -4 9 -8 52 -10 95 -4 74 1 111 51 361 3 18 11 76 19 155 2 14 3 35 4 48 1
21 5 20 100 -28 54 -27 101 -50 105 -50 21 0 -30 130 -120 310 -40 80 -74 149
-76 154 -2 4 18 10 44 11 58 4 99 27 124 69 10 17 19 33 20 36 0 3 4 13 9 23
4 10 6 19 4 21 -2 2 -32 6 -66 9 -111 10 -257 95 -363 210 -168 183 -213 223
-340 302 -169 104 -442 218 -574 239 -21 4 -41 8 -45 10 -3 2 -22 7 -41 10
-19 3 -48 8 -65 12 -16 3 -46 7 -65 9 -19 2 -48 6 -65 9 -16 3 -100 8 -185 11
-85 3 -157 6 -160 6 -3 1 -8 1 -11 1 -3 -1 -42 -3 -86 -6 l-81 -5 25 61 c17
44 25 83 27 145 4 96 -11 153 -51 195 -35 36 -70 47 -147 44 -74 -2 -123 -32
-156 -94 l-19 -37 -2 30 c-3 59 3 90 23 117 60 85 309 107 377 34 24 -26 33
-76 20 -120 -10 -35 3 -49 39 -41 19 5 22 1 22 -21 0 -53 62 -122 82 -92 51
78 55 88 58 138 1 24 1 24 12 5 14 -23 34 -45 43 -45 6 0 0 52 -11 90 -12 42
-54 103 -103 149 l-46 44 45 -31 c25 -16 64 -50 87 -75 46 -50 96 -140 85
-153 -3 -5 4 0 16 12 13 11 24 30 25 42 1 12 6 22 11 22 17 0 130 -101 185
-164 33 -39 33 -40 28 -118 -4 -43 -9 -83 -13 -89 -8 -13 35 8 53 26 6 7 21
27 32 46 12 19 21 30 22 24 5 -58 8 -74 17 -97 10 -25 44 -51 67 -53 6 0 24
-13 40 -29 31 -29 85 -61 85 -50 0 4 7 1 16 -7 13 -11 15 -11 14 2 -7 46 -3
49 40 30 57 -25 147 -14 205 25 18 13 17 14 -13 15 -45 2 -41 1 -102 36 -86
49 -188 155 -310 323 -94 129 -237 234 -386 284 -52 17 -67 21 -144 37 -57 12
-227 28 -234 22z m119 -73 c3 -6 -1 -7 -9 -4 -18 7 -21 14 -7 14 6 0 13 -4 16
-10z m-522 -435 c-3 -9 -8 -14 -10 -11 -3 3 -2 9 2 15 9 16 15 13 8 -4z m353
-63 c-3 -3 0 -12 6 -21 10 -13 10 -14 -2 -4 -16 15 -23 46 -8 37 5 -3 7 -9 4
-12z m731 -314 c-3 -8 -6 -5 -6 6 -1 11 2 17 5 13 3 -3 4 -12 1 -19z m354 -15
c13 -17 13 -17 -6 -3 -11 8 -22 16 -24 17 -2 2 0 3 6 3 6 0 17 -8 24 -17z m69
-33 c8 -5 11 -10 5 -10 -5 0 -17 5 -25 10 -8 5 -10 10 -5 10 6 0 17 -5 25 -10z
m40 -155 c13 -14 21 -25 18 -25 -2 0 -15 11 -28 25 -13 14 -21 25 -18 25 2 0
15 -11 28 -25z m50 -41 c0 -8 -19 -13 -24 -6 -3 5 1 9 9 9 8 0 15 -2 15 -3z
m281 -61 c13 -16 12 -17 -3 -4 -10 7 -18 15 -18 17 0 8 8 3 21 -13z m210 -210
c13 -16 12 -17 -3 -4 -10 7 -18 15 -18 17 0 8 8 3 21 -13z m-381 -1947 c0 -2
-7 -7 -16 -10 -8 -3 -12 -2 -9 4 6 10 25 14 25 6z m-405 -386 c10 -11 16 -20
13 -20 -3 0 -13 9 -23 20 -10 11 -16 20 -13 20 3 0 13 -9 23 -20z m42 -62 c-3
-8 -6 -5 -6 6 -1 11 2 17 5 13 3 -3 4 -12 1 -19z m48 -57 c-6 -5 -25 10 -25
20 0 5 6 4 14 -3 8 -7 12 -15 11 -17z m22 -28 c0 -9 -4 -10 -14 -2 -7 6 -13
12 -13 14 0 1 6 2 13 2 8 0 14 -6 14 -14z m48 -73 c10 -11 16 -20 13 -20 -3 0
-13 9 -23 20 -10 11 -16 20 -13 20 3 0 13 -9 23 -20z m46 -67 c13 -16 12 -17
-3 -4 -10 7 -18 15 -18 17 0 8 8 3 21 -13z m73 -119 c3 -8 2 -12 -4 -9 -6 3
-10 10 -10 16 0 14 7 11 14 -7z m-773 -398 c20 -8 54 -32 76 -53 115 -110 106
-295 -17 -358 -30 -15 -48 -10 -75 19 -27 30 -50 37 -70 22 -14 -10 -16 -21
-11 -49 13 -70 89 -114 177 -104 118 14 253 155 283 295 4 17 10 32 12 32 3 0
24 -10 47 -22 88 -45 227 -29 287 33 l22 24 -6 -50 c-4 -27 -9 -57 -11 -65 -2
-8 -6 -26 -9 -40 -19 -103 -86 -228 -161 -304 -42 -42 -120 -93 -155 -101
-176 -42 -270 -24 -381 74 -26 22 -50 37 -54 33 -5 -4 -5 -2 -2 4 4 6 -2 21
-12 33 -15 17 -24 20 -42 12 -33 -12 -79 -60 -79 -82 0 -30 -15 -30 -53 -1
-67 51 -94 170 -63 274 33 110 118 158 219 122 36 -13 38 -12 32 5 -3 11 -8
29 -10 41 -17 86 -87 161 -154 163 -46 2 -40 17 18 47 43 22 136 20 192 -4z"/>
<path d="M2099 6405 c-3 -2 -35 -5 -72 -6 -38 -1 -105 -8 -150 -16 -85 -14
-238 -60 -247 -74 -3 -4 -17 -10 -32 -14 -15 -4 -32 -13 -39 -21 -6 -8 -16
-14 -21 -14 -36 0 -178 -142 -266 -265 -113 -159 -270 -290 -354 -297 -39 -3
-35 -12 14 -34 55 -25 143 -25 181 0 l27 18 0 -25 c0 -29 23 -42 40 -21 7 8
18 14 25 14 7 0 27 13 44 29 17 16 43 33 58 38 45 15 68 59 73 138 1 17 3 15
17 -9 8 -16 25 -39 37 -51 24 -25 62 -42 50 -23 -4 6 -8 45 -10 87 -2 67 1 79
24 111 28 39 139 138 178 158 22 12 24 11 24 -10 0 -13 7 -31 14 -41 13 -17
16 -14 39 35 26 56 98 138 157 178 30 21 28 16 -16 -28 -57 -59 -92 -121 -100
-181 -7 -50 8 -54 36 -8 l20 32 0 -35 c0 -21 14 -58 34 -93 l33 -57 25 22 c31
28 48 59 48 90 0 20 5 23 33 23 26 0 32 4 29 20 -1 11 -3 42 -4 69 -1 42 3 53
25 72 37 32 91 44 173 40 161 -8 239 -71 226 -181 l-4 -36 -20 33 c-28 47 -57
72 -99 84 -50 15 -128 10 -168 -10 -30 -16 -70 -69 -79 -106 -8 -31 -8 -192 0
-196 4 -3 8 -14 8 -25 0 -11 9 -37 20 -59 25 -50 25 -50 -8 -41 -15 5 -111 7
-212 6 -169 -3 -230 -6 -330 -21 -19 -3 -51 -7 -70 -10 -51 -7 -134 -24 -210
-43 -71 -18 -75 -19 -77 -21 -2 -2 -7 -4 -13 -5 -5 -1 -11 -3 -12 -5 -2 -1
-10 -3 -18 -5 -62 -13 -320 -134 -398 -186 -24 -16 -45 -29 -48 -29 -5 0 -51
-32 -93 -65 -14 -11 -60 -56 -101 -100 -155 -164 -208 -212 -279 -253 -40 -23
-85 -45 -99 -48 -15 -4 -31 -9 -37 -13 -15 -8 -35 -11 -82 -12 -41 -1 -43 -2
-36 -27 9 -38 37 -81 64 -100 27 -19 38 -22 95 -29 l42 -5 -77 -152 c-78 -154
-139 -302 -128 -312 3 -4 49 14 101 40 52 25 99 46 103 46 4 0 8 -19 9 -43 1
-75 24 -223 60 -382 8 -37 9 -198 1 -242 -5 -27 -3 -33 11 -34 25 -1 53 -7 59
-12 10 -11 94 26 112 50 19 23 20 24 38 6 93 -91 258 -189 345 -207 16 -3 40
-9 55 -12 34 -7 225 -8 273 -1 19 3 55 9 78 13 l44 7 -27 -53 c-71 -141 -206
-182 -352 -107 -18 10 -34 17 -36 17 -5 0 -14 -32 -22 -72 -7 -32 16 -87 45
-112 38 -32 38 -38 -2 -24 -36 13 -108 81 -108 103 0 8 -6 15 -13 15 -18 0
-57 -37 -58 -55 -1 -8 -2 -25 -3 -37 -1 -13 2 -29 7 -36 16 -21 3 -23 -42 -7
-55 19 -108 61 -138 108 -30 47 -46 39 -63 -34 -18 -73 -19 -118 -5 -171 15
-59 71 -153 102 -169 30 -16 29 -20 -9 -42 l-31 -18 28 -29 c51 -53 115 -75
234 -79 10 -1 7 -10 -11 -28 -49 -52 -65 -124 -44 -195 7 -25 26 -39 26 -20 0
4 15 15 33 24 67 35 148 28 91 -8 -113 -70 -185 -148 -230 -250 -32 -73 -47
-143 -35 -158 10 -12 70 -12 100 -1 10 4 11 2 4 -7 -22 -27 -33 -127 -22 -190
3 -21 2 -38 -2 -38 -5 0 -9 -5 -9 -11 0 -5 4 -8 9 -4 5 3 13 1 16 -5 4 -6 1
-9 -7 -8 -10 2 -12 -16 -12 -77 1 -77 9 -187 18 -250 3 -16 8 -49 11 -73 10
-70 52 -198 85 -265 54 -106 139 -207 262 -310 72 -60 124 -156 113 -209 -4
-18 -13 -43 -21 -55 -13 -21 -12 -21 14 -13 93 27 148 80 157 150 4 25 7 50 8
57 1 9 15 6 47 -8 35 -16 71 -21 157 -24 100 -3 182 -10 235 -20 34 -7 122
-52 147 -75 13 -13 30 -38 37 -56 8 -19 16 -34 19 -34 2 0 16 12 30 27 90 96
103 209 36 309 l-29 42 22 10 c39 19 53 11 61 -32 14 -77 48 -165 74 -193 10
-11 21 -29 23 -39 2 -10 9 -18 16 -17 7 2 9 -4 5 -13 -5 -13 -1 -15 18 -9 18
5 20 4 9 -4 -34 -24 184 -208 347 -291 73 -38 174 -78 218 -86 6 -1 35 -6 65
-12 30 -6 120 -11 200 -12 286 -4 366 -7 415 -20 55 -14 111 -44 117 -62 3 -8
6 -7 10 3 8 20 -15 85 -39 111 -24 27 -90 58 -126 58 l-29 0 31 26 c17 14 31
32 31 40 0 22 -51 42 -98 39 -23 -2 -42 0 -42 4 0 12 -54 39 -75 37 -27 -3
-87 -35 -102 -55 -10 -14 -12 -12 -18 12 -5 19 -12 26 -24 23 -82 -24 -209
-25 -285 -1 -61 19 -70 27 -75 64 0 6 -16 5 -38 -1 -41 -11 -171 -4 -185 10
-4 4 9 9 29 9 69 2 143 24 143 42 0 6 -9 15 -21 21 -20 11 -20 12 10 41 17 16
33 41 37 56 3 16 7 34 9 40 6 19 -34 42 -63 37 -15 -3 -41 -14 -59 -25 l-32
-20 4 20 c4 22 -18 30 -30 11 -14 -22 -71 -42 -131 -45 -45 -3 -64 0 -64 8 0
8 -3 8 -9 -1 -7 -11 -9 -11 -14 2 -4 9 -12 16 -19 16 -31 0 -90 72 -105 130
-11 38 -2 123 17 160 24 47 28 49 22 12 -17 -120 122 -243 238 -208 48 14 60
19 60 27 0 5 7 9 15 9 8 0 15 5 15 10 0 6 5 10 11 10 6 0 26 17 45 38 112 123
122 303 22 401 -84 83 -196 118 -314 97 l-41 -7 -1 88 c0 91 -7 144 -21 172
-5 9 -6 22 -4 29 3 6 -1 12 -9 12 -10 0 -9 3 2 10 10 6 11 10 3 10 -7 0 -13 9
-13 21 0 11 -4 17 -10 14 -5 -3 -7 0 -5 8 6 13 -21 87 -34 97 -4 3 -19 25 -34
50 -15 25 -52 72 -83 105 -56 60 -91 117 -89 145 2 19 -15 41 -25 35 -15 -9
-85 21 -119 51 -39 34 -88 104 -85 122 1 6 2 16 3 21 0 6 16 11 33 13 42 4 51
34 14 44 -34 8 -83 -21 -119 -72 -35 -50 -38 -122 -8 -206 l20 -58 -42 3 c-38
3 -95 -4 -152 -17 -30 -7 -95 -38 -136 -66 -73 -48 -147 -184 -135 -247 3 -12
-1 -24 -8 -26 -22 -9 -109 37 -149 79 -37 38 -95 134 -80 134 4 0 2 5 -5 12
-7 7 -12 25 -12 40 l0 28 21 -21 c31 -31 86 -51 121 -43 l31 6 -31 27 c-16 14
-38 42 -47 61 -23 44 -27 145 -9 222 14 58 81 237 109 289 8 14 12 28 9 31 -2
3 2 11 11 18 8 7 15 20 15 29 0 9 4 21 9 26 22 24 61 107 55 117 -4 7 -3 8 4
4 11 -6 16 6 13 27 0 4 4 7 9 7 6 0 10 5 10 10 0 6 15 32 34 59 56 79 149 281
130 281 -3 0 0 8 5 18 9 17 19 73 27 147 10 109 0 244 -20 257 -8 6 -8 8 0 8
16 0 119 104 152 153 27 40 55 104 69 158 9 34 8 207 -1 249 -4 19 -11 39 -17
44 -5 6 -9 18 -9 28 0 10 -15 41 -32 70 -54 87 -121 141 -216 173 -59 19 -164
21 -208 4 -16 -6 -30 -10 -32 -9 -10 5 -98 -47 -136 -81 -87 -77 -133 -198
-104 -279 20 -60 107 -120 172 -120 42 0 103 34 111 61 25 79 1 139 -56 139
-27 0 -29 2 -15 15 20 20 62 35 110 40 74 7 154 -55 176 -137 12 -44 6 -104
-13 -128 -16 -20 -74 -63 -112 -83 -41 -21 -87 -66 -80 -78 4 -5 4 -9 1 -9 -2
0 -14 20 -26 45 -29 59 -94 100 -145 91 -56 -11 -87 -44 -91 -99 -2 -26 -2
-47 0 -47 2 0 19 7 39 15 32 13 37 13 56 -3 32 -26 29 -105 -5 -139 -7 -7 -37
-26 -66 -41 -46 -23 -65 -27 -138 -27 -69 0 -94 5 -135 25 -56 27 -173 137
-199 188 -16 32 -16 33 8 65 56 74 75 203 42 297 -17 50 -14 60 14 42 27 -17
103 -15 148 3 20 9 49 29 65 45 l28 28 -23 8 c-35 11 -129 73 -166 110 -18 18
-44 58 -59 90 -45 99 -34 242 28 382 33 74 74 128 110 147 l27 14 -3 -54 c-6
-131 102 -232 292 -274 36 -7 43 -6 48 9 9 27 9 83 0 110 l-8 25 24 -20 c13
-11 32 -28 44 -38 11 -10 49 -32 84 -49 73 -35 161 -41 223 -15 84 35 158 136
158 214 0 141 -153 188 -278 87 l-33 -27 -48 50 c-41 42 -50 59 -55 99 -8 60
-3 84 29 149 50 101 138 169 247 190 71 13 198 13 308 0 200 -25 439 -17 500
15 10 5 20 7 23 4 12 -12 127 -4 164 11 71 30 139 117 157 200 4 17 10 44 13
60 4 17 8 71 8 120 0 79 -4 97 -28 145 -29 58 -91 130 -143 167 -50 36 -104
63 -124 63 -10 0 -22 5 -25 11 -7 10 -45 28 -75 34 -8 2 -15 4 -15 5 0 4 -46
10 -108 14 -37 3 -71 7 -76 10 -4 3 -10 4 -12 1z m44 -590 c-10 -13 -20 -21
-22 -19 -2 2 3 12 12 22 10 10 14 22 10 27 -5 4 -2 5 5 1 9 -6 8 -13 -5 -31z
m68 -172 c13 -16 12 -17 -3 -4 -10 7 -18 15 -18 17 0 8 8 3 21 -13z m-1103
-118 c-12 -12 -98 -52 -98 -45 0 4 21 17 48 28 49 22 59 25 50 17z m302 -5 c0
-5 -2 -10 -4 -10 -3 0 -8 5 -11 10 -3 6 -1 10 4 10 6 0 11 -4 11 -10z m-455
-210 c-3 -5 -12 -10 -18 -10 -7 0 -6 4 3 10 19 12 23 12 15 0z m-415 -324 c0
-2 -8 -10 -17 -17 -16 -13 -17 -12 -4 4 13 16 21 21 21 13z m231 -1903 c13
-16 12 -17 -3 -4 -10 7 -18 15 -18 17 0 8 8 3 21 -13z m428 -416 c-2 -1 -13
-9 -24 -17 -19 -14 -19 -14 -6 3 7 9 18 17 24 17 6 0 8 -1 6 -3z m-98 -120
c-10 -9 -11 -8 -5 6 3 10 9 15 12 12 3 -3 0 -11 -7 -18z m974 -547 c10 -11 16
-20 13 -20 -3 0 -13 9 -23 20 -10 11 -16 20 -13 20 3 0 13 -9 23 -20z m-178
-152 l38 -23 -43 -6 c-45 -6 -84 -30 -115 -71 -23 -31 -57 -130 -48 -140 4 -4
24 -3 45 3 117 32 207 -53 212 -203 3 -86 -12 -134 -58 -180 -41 -41 -68 -49
-68 -20 0 46 -85 107 -115 82 -8 -7 -12 -16 -9 -21 3 -5 2 -9 -3 -7 -4 1 -26
-15 -47 -36 -84 -81 -166 -114 -272 -110 -193 8 -352 145 -423 364 -6 19 -11
38 -12 42 0 4 -4 22 -9 39 -5 17 -12 56 -16 87 l-6 55 23 -24 c26 -28 44 -37
105 -54 54 -15 163 3 204 33 17 13 29 19 28 15 -4 -16 24 -113 33 -113 5 0 9
-7 9 -16 0 -24 56 -99 103 -138 91 -74 179 -92 258 -51 52 28 93 125 57 138
-19 6 -60 -11 -82 -35 -14 -15 -26 -18 -49 -14 -71 14 -117 93 -111 190 5 85
3 80 43 133 86 113 218 146 328 81z m-973 -104 c3 -8 2 -12 -4 -9 -6 3 -10 10
-10 16 0 14 7 11 14 -7z m1637 -391 c13 -16 12 -17 -3 -4 -10 7 -18 15 -18 17
0 8 8 3 21 -13z m50 -50 c13 -16 12 -17 -3 -4 -17 13 -22 21 -14 21 2 0 10 -8
17 -17z"/>
<path d="M3818 5675 c-2 -2 -21 -5 -43 -7 -22 -3 -69 -17 -105 -31 -124 -49
-200 -76 -200 -70 0 3 -6 1 -12 -4 -7 -6 -67 -27 -133 -47 -66 -21 -136 -42
-155 -48 -19 -6 -37 -11 -40 -11 -3 0 -16 -4 -29 -9 -61 -23 -533 -134 -608
-143 -12 -2 -25 -5 -30 -8 -4 -3 -28 -8 -53 -11 -25 -3 -56 -8 -70 -11 -35 -7
-69 -13 -115 -20 -23 -3 -52 -7 -65 -10 -30 -6 -79 -13 -145 -20 -67 -8 -103
-23 -110 -46 -4 -10 -10 -19 -14 -19 -12 0 -14 -60 -14 -460 0 -398 6 -594 27
-865 8 -94 10 -115 20 -205 3 -30 8 -75 11 -100 4 -41 8 -79 19 -168 3 -18 7
-45 10 -60 3 -15 8 -47 11 -72 2 -25 7 -56 10 -70 3 -14 8 -41 10 -60 2 -19 7
-46 10 -60 3 -14 9 -50 15 -80 6 -30 12 -66 15 -80 3 -14 8 -41 11 -60 3 -19
8 -44 11 -55 7 -21 8 -23 16 -65 30 -146 79 -318 124 -435 31 -82 107 -246
126 -270 4 -5 28 -41 54 -80 44 -67 166 -224 215 -278 13 -14 52 -58 88 -99
66 -74 305 -315 396 -399 40 -37 254 -215 289 -241 5 -4 24 -18 40 -31 54 -43
198 -142 277 -189 86 -53 145 -73 180 -65 27 7 301 184 306 198 2 5 8 9 13 9
10 0 229 162 290 214 19 17 47 40 61 51 128 99 413 382 545 542 28 34 56 68
62 75 6 7 27 33 46 58 19 25 40 50 45 57 6 7 10 17 10 23 0 5 3 10 8 10 4 0
25 28 47 63 22 34 42 64 45 67 10 8 97 193 128 271 76 190 152 503 187 769 3
25 8 52 10 60 4 15 14 99 20 170 2 19 6 49 9 65 2 17 8 62 12 100 3 39 8 86
10 105 2 19 6 60 9 90 2 30 7 75 10 100 3 25 8 79 11 120 2 41 7 109 10 150
19 262 26 498 28 825 1 297 0 312 -20 356 -24 51 -27 53 -139 64 -33 4 -125
18 -205 32 -80 14 -154 27 -165 28 -11 2 -65 13 -120 24 -55 12 -113 24 -129
27 -16 3 -32 7 -36 9 -4 2 -22 7 -41 10 -19 3 -42 8 -51 11 -9 3 -25 7 -35 9
-10 2 -36 8 -58 14 -22 5 -69 17 -105 26 -138 34 -371 105 -387 118 -7 5 -13
7 -13 3 0 -5 -79 20 -135 44 -129 54 -240 91 -278 94 -25 2 -47 2 -49 1z m141
-227 c94 -34 125 -46 156 -59 17 -7 32 -13 35 -14 3 -1 70 -23 150 -49 113
-37 451 -130 550 -151 102 -21 180 -38 200 -41 14 -3 32 -7 40 -9 8 -3 32 -7
54 -11 21 -3 48 -8 60 -10 81 -16 255 -43 316 -50 70 -7 78 -12 97 -62 16 -41
18 -79 17 -307 -1 -283 -11 -573 -29 -810 -3 -38 -8 -101 -10 -140 -3 -38 -7
-88 -10 -110 -2 -22 -7 -69 -11 -105 -3 -36 -8 -76 -10 -90 -3 -14 -7 -47 -9
-75 -3 -27 -7 -66 -9 -85 -13 -111 -18 -153 -21 -168 -1 -9 -6 -42 -10 -72 -4
-30 -9 -64 -11 -75 -3 -11 -7 -36 -10 -55 -13 -79 -67 -326 -75 -341 -4 -9
-11 -30 -14 -48 -20 -113 -164 -432 -237 -526 -4 -5 -40 -53 -80 -105 -40 -52
-77 -100 -83 -106 -5 -7 -30 -36 -55 -65 -161 -194 -529 -526 -745 -675 -16
-11 -61 -42 -100 -69 -128 -90 -238 -155 -262 -155 -72 0 -435 247 -647 439
-172 157 -324 309 -446 446 -29 33 -65 74 -81 92 -58 66 -160 203 -207 279
-52 85 -112 207 -112 227 0 7 -4 17 -9 23 -5 5 -18 41 -31 79 -12 39 -24 77
-28 85 -3 8 -7 20 -7 25 -1 6 -5 17 -8 25 -4 8 -9 26 -12 40 -2 14 -12 54 -20
90 -9 36 -18 74 -20 85 -2 11 -6 31 -10 45 -15 68 -17 77 -29 150 -3 14 -5 25
-6 25 -1 0 -3 11 -5 25 -2 14 -10 66 -19 115 -8 50 -18 110 -22 135 -3 25 -7
54 -9 65 -2 11 -6 41 -9 67 -3 26 -8 62 -10 80 -3 18 -8 60 -11 93 -3 33 -8
74 -10 90 -3 17 -7 64 -10 105 -3 41 -7 102 -10 135 -17 197 -27 991 -14 1083
11 77 32 89 189 108 19 2 46 6 60 9 14 3 43 7 65 10 22 3 51 8 65 11 55 10 69
13 101 18 19 3 48 9 64 12 17 3 37 7 45 8 8 1 26 5 40 9 21 5 86 19 240 53 14
3 30 6 35 8 6 2 24 6 40 11 17 4 93 25 170 47 77 22 145 41 150 42 6 2 17 6
25 9 8 3 47 15 85 28 39 12 124 42 190 67 66 24 129 46 140 48 120 24 130 24
214 -8z"/>
<path d="M3701 5317 c-277 -101 -559 -190 -668 -212 -10 -1 -45 -10 -78 -18
-33 -9 -73 -19 -90 -22 -16 -3 -39 -8 -50 -10 -106 -24 -202 -44 -240 -49 -36
-6 -68 -11 -115 -20 -8 -1 -37 -6 -65 -10 -27 -4 -61 -10 -75 -12 -14 -2 -47
-7 -75 -10 -120 -15 -117 -2 -111 -527 2 -238 7 -466 10 -507 3 -41 7 -110 10
-152 3 -43 8 -90 11 -105 2 -16 7 -62 9 -103 3 -41 8 -86 11 -100 3 -14 7 -47
10 -75 3 -27 7 -59 9 -70 2 -11 7 -42 10 -70 12 -92 51 -316 71 -407 3 -13 7
-34 10 -48 68 -311 144 -517 254 -690 33 -51 118 -169 131 -180 3 -3 30 -34
60 -70 88 -104 137 -157 275 -295 197 -196 287 -275 470 -411 44 -32 82 -62
83 -66 2 -5 7 -8 12 -8 4 0 32 -16 61 -36 30 -20 83 -51 119 -69 71 -35 104
-36 149 -6 14 10 76 51 136 91 140 93 375 269 375 281 0 5 6 9 14 9 8 0 16 4
18 8 2 5 41 42 88 83 296 260 558 578 673 819 57 121 130 337 153 455 2 11 7
34 11 50 3 17 8 37 9 45 1 8 5 26 7 40 6 26 32 189 41 251 6 41 18 142 21 179
1 14 3 25 4 25 1 0 4 18 5 40 2 22 7 69 11 105 10 80 14 119 19 190 3 30 8 84
11 120 3 36 8 106 11 155 3 50 7 117 9 150 7 108 17 497 17 635 0 214 -18 254
-117 264 -33 3 -76 8 -95 12 -98 16 -149 25 -225 39 -38 8 -86 17 -105 20 -19
3 -42 8 -51 11 -10 2 -30 7 -45 9 -16 2 -49 9 -74 16 -58 14 -79 19 -109 25
-14 3 -74 18 -135 35 -61 16 -118 31 -126 33 -108 26 -278 83 -503 170 -85 33
-151 31 -256 -7z"/>
</g>
</svg>
