<svg xmlns="http://www.w3.org/2000/svg" viewBox="0 0 766.31 738.79"><defs><style>.cls-1{fill:#c47d00;}.cls-2{fill:#ffb70f;}.cls-3{fill:#5a1414;}.cls-4{fill:#ffb302;}.cls-5{fill:#6e090c;}.cls-6,.cls-7,.cls-8{fill:none;stroke-miterlimit:10;}.cls-6{stroke:#ffb302;}.cls-7{stroke:#000;}.cls-7,.cls-8{stroke-width:0.25px;}.cls-8{stroke:#ffb70f;}</style></defs><g id="Layer_2" data-name="Layer 2"><g id="Layer_1-2" data-name="Layer 1"><path class="cls-1" d="M688.13,239.6c23.26,11.62,48.6,40.92,20.39,78.58l-1.74,2c-8.48,8.28-24.75,5.44-29.53-5.64C708.44,303.67,714.88,258.81,688.13,239.6Z"/><path class="cls-2" d="M573.32,565.73a25.42,25.42,0,0,1,21.54,24.51c-16.29-9.25-38.31,4.27-37.24,23.08h0A25.44,25.44,0,0,0,580.45,638a14,14,0,0,1-1.17-7.18h0a14.07,14.07,0,0,1,11.3-12.41c7.41,29.64,47.56,27.48,68.57,17.15,27.62-16.61,34.47-51.85,34.89-81.37a110.38,110.38,0,0,1,2.17,17.45h0v0A116.45,116.45,0,0,1,695,594.89c-32,78.5-91.18,85.19-132.5,60.07-1-.62-2-1.27-2.91-1.94,0,0,4.94-14.62-2.83-19.68s-19.37-2.53-19.37-2.53c4.24-4.06-1.23-10.76-1.23-10.76-12.17,14.65-22.23,8.88-22.23,8.88,1.06-5.24,7.18-12.29,7.18-12.29s-13.89-1.41-21.42,10.85,9.54,13.71,9.54,13.71c-1.76,4.8-7,7.67-7,7.67s8.47,7.06,15.88,3.06,0-13.94,0-13.94c11.3-2.53,20,6.41,20,6.41,2.16,13-8.71,25.08-21.86,24.25-15.12-.36-28.6-12.46-30.62-27.44h0a32.28,32.28,0,0,1,8.14-26.63h0c9.25-10.67,27-13.67,39.28-6.46a71.34,71.34,0,0,1-.7-8.9v0a66.79,66.79,0,0,1,28.4-52.36,56.11,56.11,0,0,1,29.53-10.17c1-.06,2.1-.07,3.16-.06l.29,0a49.05,49.05,0,0,1,22.64,6.51c.4.23.79.47,1.18.71s.87.55,1.3.83l1.15.78.34.24a46.07,46.07,0,0,1,4.66,3.81c.73.68,1.44,1.39,2.12,2.12l.13.12,0,0c26.25,24.35,2,70.08-33.05,61.7-9.48-2.06-9.26-16.71.24-18.5a9.57,9.57,0,0,1,11.64,9.48C629.52,582.43,598.81,546.21,573.32,565.73Z"/><path class="cls-1" d="M694.05,554.17c-.42,29.52-7.27,64.76-34.89,81.37-21,10.33-61.16,12.49-68.57-17.15a47.19,47.19,0,0,0,13.08,9.1c1.09.53,2.21,1,3.35,1.44,31.77,13.57,72.78-14.51,64.61-50.37l0,0c8.69-12.61,13.92-38.69,4.42-61,2.3,2.69,13.08,17.64,14.06,22.19A111.5,111.5,0,0,1,694.05,554.17Z"/><path class="cls-1" d="M631.52,462.68c11.6,13.37,33.31,49.67,32.32,74.85-.38,9.75-12.14,15.81-20.32,10.61a.8.8,0,0,0,0-.15A106.57,106.57,0,0,0,631.52,462.68Z"/><path class="cls-2" d="M613.47,387.85a73.05,73.05,0,0,0,12.45,6.47c10.63,41,29,52.17,49,38.54a13.26,13.26,0,0,0,7.28-2.31v0a13.41,13.41,0,0,0,5.89-11.23,20.5,20.5,0,0,1,9.52,14.57,20.53,20.53,0,0,0,16.37-15.83c11.95,10.68,10.33,32.72-3,41.54a25.85,25.85,0,0,1-4.9,2.83,13.27,13.27,0,0,1,5.92,3.19,13.39,13.39,0,0,1-4.16,8.95h0c-4.69,5-12,3.05-17.94,4.44-1.48.17-3,.3-4.45.38,8.58,3.62,10.88,16.52,4,22.88a14.41,14.41,0,0,0-17.26-3.3,43.13,43.13,0,0,1,31.51,42.62,13.59,13.59,0,0,1-13.53-1.91c-1-4.55-11.76-19.5-14.06-22.19,9.5,22.34,4.27,48.42-4.42,61l0,0a14.14,14.14,0,0,1-13,7.77c-7.6,0-15.33-5.18-15.7-14a36.83,36.83,0,0,0,21-34.85c1-25.18-20.72-61.48-32.32-74.85a114.68,114.68,0,0,0-6.58-9.6h0c-.72-.85-1.42-1.72-2.1-2.6,0,0,0,0,0,0-13.77-17.3-18.76-43.22-12.37-64.64C611.44,386.5,612.45,387.18,613.47,387.85Z"/><path class="cls-1" d="M674.88,432.86c-20,13.63-38.33,2.47-49-38.54a91.39,91.39,0,0,0,13.51,4.32h0l.18,0c.29,20.17,28.56,27.36,38.31,9.53a20.68,20.68,0,0,1,2.35,6.29v0a20.36,20.36,0,0,1-5.43,18.33Z"/><path class="cls-1" d="M562.5,655c41.32,25.12,100.55,18.43,132.5-60.07-4.58,31.08-22.06,57.11-46.35,76h0c-6,6.24-6.55,17.52-1.24,24.35C633,696.53,623.33,679,631.84,667.5a32.17,32.17,0,0,1-10.65,7.83h0c-21.07,8.72-39-9.85-55.88,20.07C555.11,685,553.86,666.64,562.5,655Z"/><path class="cls-1" d="M641.45,222.86c-1.68-20-28.06-29.08-44.66-30.43v0c22.14-.57,93.09,6.26,57.67,61.24-10.32,16.45-32.84,23.38-50.85,16.5-25.76-14.52,2.24-50.42,22.59-28.91A18.71,18.71,0,0,0,641.45,222.86Z"/><path class="cls-3" d="M578.72,254.5c0,5.27-.13,10.62-.2,15.83q-.25,22-1.1,44T575,358.27q-1.57,21.94-4,43.82C565.22,453.82,558.5,518,527.53,561.85q-1.78,2.5-3.58,5-4.19,5.73-8.58,11.31t-8.91,10.92c-3,3.57-6.1,7.09-9.23,10.55s-6.32,6.86-9.56,10.2-6.52,6.63-9.86,9.86-6.72,6.4-10.15,9.53-6.92,6.19-10.44,9.21-7.1,6-10.71,8.92-7.28,5.8-11,8.63-7.45,5.62-11.23,8.36-7.6,5.44-11.45,8.1-7.77,5.28-11.69,7.85q-6.3,4.13-12.66,8.09a8.8,8.8,0,0,1-5.09,1.36V669.61h0a8.21,8.21,0,0,0,5.12-1.22q5.86-3.66,11.65-7.45,5.42-3.55,10.76-7.23t10.55-7.46q5.21-3.78,10.32-7.69t10.1-7.94q5-4,9.86-8.21t9.61-8.48q4.74-4.32,9.35-8.77t9.07-9.08q4.49-4.62,8.8-9.38t8.5-9.72c2.8-3.3,5.52-6.65,8.21-10.05s5.31-6.89,7.89-10.41c1.11-1.52,2.2-3,3.29-4.58,28.51-40.36,34.7-99.45,40-147.07q2.25-20.12,3.68-40.33t2.23-40.45q.8-20.24,1-40.5c.06-4.8.21-9.72.19-14.57s0-9.81-1.24-14.57c-.64-2.55-1.4-5.75-3.37-7.63-1.69-1.59-4.13-1.43-6.27-1.51A100.69,100.69,0,0,1,542,243.93c-6.72-1-13.42-2.14-20.1-3.34q-13-2.34-25.85-5.08-14.82-3.15-29.48-6.85c-10.41-2.64-20.75-5.5-31-8.66s-20.41-6.62-30.41-10.51c-3.68-1.43-7.31-3-10.95-4.49,0,0-5.44-2.27-10.32-1.72l-.43,0V183.11h0c5.31-.61,11.2,1.86,11.21,1.86,3.95,1.66,7.9,3.32,11.9,4.88,10.86,4.22,21.89,8,33,11.41s22.38,6.55,33.68,9.41q15.94,4,32,7.44,14,3,28.08,5.52,10.9,2,21.84,3.64a110.53,110.53,0,0,0,11.71,1.48c2.34.09,5-.09,6.82,1.65,2.15,2,3,5.52,3.67,8.28C578.68,243.85,578.7,249.19,578.72,254.5Z"/><path class="cls-1" d="M567.38,114.53c27.19-1.15,51.65,19.24,51.74,46.84a44.81,44.81,0,0,1-1.32,10.78A45.2,45.2,0,0,0,605.72,142h0a49,49,0,0,0-8.66-7.46,16.91,16.91,0,0,1-4,10.38,47,47,0,0,0-19-26.5l-.22-.16s0,0,0,0A55,55,0,0,0,567.38,114.53Z"/><path class="cls-1" d="M590.36,536.64a56.11,56.11,0,0,0-29.53,10.17c5.76-6.77,4.55-14.49,1-18.9,12.54,2.36,24.41-8.39,23.28-21.11-7,5.77-12.46-7.79-3.35-8.43,8.92,3,12.51,14.44,13.77,22.82h0c.11,1.11.16,2.24.16,3.36a34.33,34.33,0,0,1-2.16,12C592.46,536.57,591.39,536.58,590.36,536.64Z"/><path class="cls-2" d="M561.81,527.91c3.57,4.41,4.78,12.13-1,18.9a66.79,66.79,0,0,0-28.4,52.36C531.09,553.63,565.27,545.15,561.81,527.91Z"/><path class="cls-2" d="M556,170.12a14.87,14.87,0,0,0-2.19-13.8,16.82,16.82,0,0,0-13.18-6.4c-5.3,0-10.33,2.65-10.87,8.41a9.17,9.17,0,0,0,.16,2.91,16.15,16.15,0,0,1-1.59-.72,15.1,15.1,0,0,1-1.35-.77,15.42,15.42,0,0,1-1.59-1.16c-.16-.14-.34-.28-.5-.43a15.5,15.5,0,0,1-1.55-1.59s0,0,0,0a15.44,15.44,0,0,1-2.56-4.36,14.62,14.62,0,0,1-.51-8.8,15.08,15.08,0,0,1,3.37-6.35h0c16.44-16.56,36.95,7,34.45,24.06v.06A31.74,31.74,0,0,1,556,170.12Z"/><path class="cls-2" d="M510.71,696.05c18-1.22,35.33-17.23,44.8-34.34-19.24,46-72.13,73.55-120.28,61.9h0a32.55,32.55,0,0,0-15.78.69A32.19,32.19,0,0,0,409,729.69a32.61,32.61,0,0,0-7.81,8.7c-4.31-13.1,9.3-26.32,22.22-21.72a17.64,17.64,0,0,1-8.23-7.18,17.54,17.54,0,0,1,10.51-3.36c6.81-5.65,18.31-4.59,23.95,2.25a17,17,0,0,1,1.05-5,45.27,45.27,0,0,0,41.93-5.83,22.65,22.65,0,0,0,10.78,1A24,24,0,0,0,510.71,696.05Z"/><path class="cls-1" d="M546.57,669.25c.26-.3,7.44-8.12,7.72-8.43,0,0,4.15-6,4.17-6h0a1.09,1.09,0,0,0,.14-.21c.27-.38.5-.74.69-1l.3-.55a71.46,71.46,0,0,1-4.08,8.69c-9.47,17.11-26.84,33.12-44.8,34.34a30.93,30.93,0,0,1-18.48-4.57,17.37,17.37,0,0,1,5.34-3.53,14.65,14.65,0,0,1-7.6-15.09,14.75,14.75,0,0,1,14.1,2.32,14.41,14.41,0,0,1,2-4.86,30.36,30.36,0,0,0,12.84,7.34l-.17,0,.19,0h0a22.65,22.65,0,0,0,3.85.68,25.71,25.71,0,0,0,10-1.07h0A36.88,36.88,0,0,0,546.57,669.25Z"/><path class="cls-1" d="M742.55,273.25c-38.37-66.39-118.95-104.13-194.58-91a30.23,30.23,0,0,0,3.28-3.51h0c1.6-.3,3.21-.59,4.83-.85,4.5-.73,9-1.28,13.59-1.66s9.1-.59,13.66-.63,9.12.09,13.66.39,9.09.75,13.6,1.38,9,1.4,13.46,2.34,8.88,2,13.27,3.29q5.46,1.56,10.84,3.46c.75.25,1.49.51,2.23.78q5.7,2.07,11.26,4.49t11,5.18q5.4,2.76,10.61,5.85t10.23,6.51c3.33,2.28,6.6,4.66,9.78,7.15,2,1.56,4,3.19,5.87,4.86,5.16,4.5,10,9.34,14.79,14.25,1.89,1.95,3.75,4,5.66,5.93a60.07,60.07,0,0,0,8.4,7.39,56.59,56.59,0,0,0,10.7,5.83,54.68,54.68,0,0,0,8.67,2.77c.75.18,8.87,1.72,8.94,1.32C764.54,269.49,752.84,276.57,742.55,273.25Z"/><path class="cls-1" d="M556.76,633.34c7.77,5.06,2.83,19.68,2.83,19.68l-.3.55c-.19.29-.42.65-.69,1a1.09,1.09,0,0,1-.14.21h0s-4.16,6-4.17,6c-.28.31-7.46,8.13-7.72,8.43a36.88,36.88,0,0,1-13.78,8c20.24-10.89,5.39-32.87,5.39-32.87s-8.72-8.94-20-6.41c0,0,7.42,9.94,0,13.94s-15.88-3.06-15.88-3.06,5.19-2.87,7-7.67c0,0-17.07-1.45-9.54-13.71s21.42-10.85,21.42-10.85-6.12,7.05-7.18,12.29c0,0,10.06,5.77,22.23-8.88,0,0,5.47,6.7,1.23,10.76C537.39,630.81,549,628.29,556.76,633.34Z"/><path class="cls-2" d="M525.62,113.12c38.85-17.9,90.51-1.56,112,35a.08.08,0,0,0,0,0v0h0c.34.58.67,1.14,1,1.7a68.9,68.9,0,0,0,38.74,29.88,16.89,16.89,0,0,1-26-.73,16.63,16.63,0,0,1-3.08-6.18c.58,2.24,1.1,4.5,1.51,6.78s.73,4.49,1,6.76a15.78,15.78,0,0,1-2.35-.57l-.76-.27a17,17,0,0,1-7.61-5.77,17,17,0,0,1-12.18-18.41,17,17,0,0,1-10.1,12.22l-.41.17q.23-.8.42-1.59a44.81,44.81,0,0,0,1.32-10.78c-.09-27.6-24.55-48-51.74-46.84-12.71-6.38-28.35-6.6-41.72-1.42Z"/><path class="cls-1" d="M552.5,117.28a19.47,19.47,0,0,1,9,13.69,18.4,18.4,0,0,1,.17,3.56c-3.5-19.9-48.63-12-41.42,8.83a14.62,14.62,0,0,0,.51,8.8,15.44,15.44,0,0,0,2.56,4.36s0,0,0,0a15.5,15.5,0,0,0,1.55,1.59c.16.15.34.29.5.43a15.42,15.42,0,0,0,1.59,1.16,15.1,15.1,0,0,0,1.35.77l-.56,1a16.17,16.17,0,0,0-4.16-1.16c-4,2.82-9.83,4.07-13.84.22a9.42,9.42,0,0,0,9.27-1.94c-2,1.53-7.2-1-8.67-2.14-5.47-4.34-5.42-14.33-3.89-20.43a32,32,0,0,1,13.43-18.62,45.57,45.57,0,0,1,25.07-3h0A19.59,19.59,0,0,1,552.5,117.28Z"/><path class="cls-2" d="M519.88,117.5a32,32,0,0,0-13.43,18.62c-1.53,6.1-1.58,16.09,3.89,20.43,1.47,1.16,6.66,3.67,8.67,2.14a9.42,9.42,0,0,1-9.27,1.94c4,3.85,9.85,2.6,13.84-.22a16.17,16.17,0,0,1,4.16,1.16c2.22,1,4.07,2.61,3.75,5.15-.26,2-1.86,3.44-3.23,4.77-5.39,5.2-13.18,8.4-20.74,6.81a15,15,0,0,1-9.55-6.6c-.06-.16-.13-.33-.2-.49a30.1,30.1,0,0,1-1.17-3.55c-.47-1.76-.77-3.58-1.1-5.37v-.17a44.64,44.64,0,0,1,6.76-30,0,0,0,0,1,0,0,45.36,45.36,0,0,1,3.35-4.6C509.36,123.5,514.62,119.06,519.88,117.5Z"/><path class="cls-3" d="M500.91,320.56c5.72-22.13,15.91-20.22,15.91-20.22C523.42,310.59,500.91,320.56,500.91,320.56Z"/><path class="cls-2" d="M567.38,114.53a55,55,0,0,1,6.4,3.69s0,0,0,0l.22.16a31.75,31.75,0,0,1,8.72,9.42h0a31.26,31.26,0,0,1,4.43,17.65,8.28,8.28,0,0,1-5.18-5.3c2.16,7.53-9.76,9.44-7,17.18a10.5,10.5,0,0,1-8.25-13.11c0-.09,0-.17.07-.26l-.2.08A7,7,0,0,1,559.3,143a18.58,18.58,0,0,0,1.83-4.83,20.17,20.17,0,0,0,.49-3.64,18.4,18.4,0,0,0-.17-3.56A19.38,19.38,0,0,0,545,114.55h0a45.57,45.57,0,0,0-25.07,3c-5.26,1.56-10.52,6-14.25,10a47.43,47.43,0,0,1,20-14.38h0C539,107.93,554.67,108.15,567.38,114.53Z"/><path class="cls-2" d="M550.07,163.12a15.61,15.61,0,0,1,5.38,8.52h0a27.44,27.44,0,0,1-4.16,7.12h0a30.23,30.23,0,0,1-3.28,3.51,31,31,0,0,1-13.21,7.26,31.53,31.53,0,0,1-18.71-.82,30.74,30.74,0,0,1-4.26-1.93,31.08,31.08,0,0,1-4.76-3.18,31.63,31.63,0,0,1-4.11-4,31.16,31.16,0,0,1-3-4.07,25.34,25.34,0,0,0,9.32,5.05,28.45,28.45,0,0,0,10.66,1.08,25.67,25.67,0,0,0,10.18-3,19.42,19.42,0,0,0,5.51-4.07,10.27,10.27,0,0,0,1.67-2.72,9.65,9.65,0,0,0,.7-3.09,10,10,0,0,0-.31-3.14,9.84,9.84,0,0,0-1.25-2.9,10.25,10.25,0,0,0-1.61-1.92,14.64,14.64,0,0,1,5-1.06,15.16,15.16,0,0,1,2.52.07A15.39,15.39,0,0,1,550.07,163.12Z"/><path class="cls-1" d="M540.6,149.92a16.82,16.82,0,0,1,13.18,6.4,14.87,14.87,0,0,1,2.19,13.8v0c-.15.5-.33,1-.51,1.48a15.61,15.61,0,0,0-5.38-8.52,15.39,15.39,0,0,0-7.71-3.29,15.16,15.16,0,0,0-2.52-.07,14.64,14.64,0,0,0-5,1.06,10.25,10.25,0,0,1,1.61,1.92,9.84,9.84,0,0,1,1.25,2.9,10,10,0,0,1,.31,3.14,9.65,9.65,0,0,1-.7,3.09,10.27,10.27,0,0,1-1.67,2.72,19.42,19.42,0,0,1-5.51,4.07,25.67,25.67,0,0,1-10.18,3,28.45,28.45,0,0,1-10.66-1.08,25.34,25.34,0,0,1-9.32-5.05c-.25-.42-.49-.85-.72-1.28s-.58-1.13-.85-1.7c-.14-.29-.28-.58-.41-.88a15,15,0,0,0,9.55,6.6c7.56,1.59,15.35-1.61,20.74-6.81,1.37-1.33,3-2.76,3.23-4.77.32-2.54-1.53-4.17-3.75-5.15l.56-1a16.15,16.15,0,0,0,1.59.72,9.17,9.17,0,0,1-.16-2.91C530.27,152.57,535.3,149.87,540.6,149.92Z"/><path class="cls-2" d="M502.92,179.63a31.63,31.63,0,0,0,4.11,4,31.08,31.08,0,0,0,4.76,3.18,30.74,30.74,0,0,0,4.26,1.93,31.53,31.53,0,0,0,18.71.82A31,31,0,0,0,548,182.29c75.63-13.17,156.21,24.57,194.58,91A191.61,191.61,0,0,1,762,319.67a18.74,18.74,0,0,1-12.33-11.27A46.84,46.84,0,0,1,752.47,333a50.76,50.76,0,0,1-5.19,15.87c-2.68,5-7.32,9-9.31,14.37a22.22,22.22,0,0,0,.48,16.34c.25.54.52,1.07.82,1.58-7,5.17-18.32,2.07-21.76-5.88a82,82,0,0,1-35.74,22,79.13,79.13,0,0,1-42.12,1.36l-.18,0h0a91.39,91.39,0,0,1-13.51-4.32,73.05,73.05,0,0,1-12.45-6.47c-1-.67-2-1.35-3-2.06-11.62-8.21-21.81-19.19-26.6-32.75-10.29-29.13,15.48-57.08,44.69-56.64a51.7,51.7,0,0,1,20.74,4.82c10,4.61,19.68,13.23,19.11,25.18a21.64,21.64,0,0,1-9,16.2c-5.3,3.82-13.83,5.58-19.51,1.55a10.59,10.59,0,0,1-4.16-10.48,10.76,10.76,0,0,1,9.38-8.36,18.34,18.34,0,0,0-18.78-4,18.1,18.1,0,0,0-11.48,15.36,17.91,17.91,0,0,0,9.36,16.7c2.93,1.52,6.24,2.18,9.15,3.73,2.55,1.35,4.88,3.72,5.24,6.5a11.82,11.82,0,0,0,0,1.19,6.74,6.74,0,0,0,0-1.19,12.54,12.54,0,0,1,4.28-9.14,13.07,13.07,0,0,1,15.23-.94,11.75,11.75,0,0,1,3.88,4.05,10.75,10.75,0,0,1,1.08,2.68c.08.32.23,2.77.34,2.83a8.72,8.72,0,0,0-2.26-.86c-5.12-1.12-10,3.25-10.59,8.15-.52,4.19,2,7.66,5.26,10a31.37,31.37,0,0,0,22.71,5.49c10.74-1.41,21-8.12,25.49-18.14,1.13-2.55,3.1-7.2,1.76-9.69-2-3.67-4.11-7.32-5-11.46a34.15,34.15,0,0,1-.27-11.93,30,30,0,0,1,5.65-13.55c.77-1,1.56-2,2.34-3,28.21-37.66,2.87-67-20.39-78.58h0a36,36,0,0,1-37.51,35.28,61.05,61.05,0,0,0,3.86-21.22c35.42-55-35.53-61.81-57.67-61.24h-.34a61,61,0,0,0-29.73,5.94h.09c-15.79,7.6-36.47,6.12-50.9-3.91l-.07,0a47.69,47.69,0,0,1-16.65-19.48c-.32-.81-.86-2.2-1.31-3.36l.08.14c.13.3.27.59.41.88.27.57.56,1.14.85,1.7s.47.86.72,1.28A31.16,31.16,0,0,0,502.92,179.63Z"/><path class="cls-2" d="M497.77,171.21c.07.16.14.33.2.49l-.08-.14Z"/><path class="cls-3" d="M491.33,346.94s24.78,6.6,11.68,20-34.46,15.43-34.46,15.43C476,374,491.33,346.94,491.33,346.94Z"/><path class="cls-1" d="M484.36,132.12c-11,14.85-34.18,14.56-44.77-.54a17.15,17.15,0,0,0,9.1-7.52c11.1,10.25,29.65,5.4,34.44-8.73A100,100,0,0,1,484.36,132.12Z"/><path class="cls-2" d="M476.24,91.37a99.24,99.24,0,0,1,6.89,24c-4.79,14.13-23.34,19-34.44,8.73l.68-1.26c11.6-4.63,16.78-19.78,10-30.63-.13-.24-.29-.47-.44-.71C454.2,84,455.21,73,461.05,66.58A100.53,100.53,0,0,1,476.24,91.37Z"/><path class="cls-3" d="M479.05,337.7l-9.24.92s1-5.89,3.86-5.69S479.05,337.7,479.05,337.7Z"/><polygon class="cls-3" points="472.65 345.83 467.37 350.5 467.37 345.83 472.65 345.83"/><path class="cls-3" d="M471.66,365.3,459.28,384c-2.91,2.44-4.6-1.08-4.6-1.08C456.54,375.63,471.2,365.61,471.66,365.3Z"/><path class="cls-1" d="M382,30.26a101.72,101.72,0,0,1,12.21.55,99.7,99.7,0,0,1,66.88,35.77C455.21,73,454.2,84,459,91.46c.15.24.31.47.44.71,6.76,10.85,1.58,26-10,30.63,5.54-11.34-3.08-24.8-15.54-24.68-10.76-.19-19.29,10.39-16.84,20.9-11.13-7.38-9.75-24.49,2.4-30h0a15.56,15.56,0,0,1,2-.76c16.2-3.52,22.26-24.25,10.37-35.95-8.11-8.45-22.72-8.24-30.61.4h0a21.37,21.37,0,0,0-4.93,8.44,17.27,17.27,0,0,0-5.65-17.39h0l0,0A16.56,16.56,0,0,1,388.05,42h0A17.12,17.12,0,0,1,382,30.26Z"/><path class="cls-3" d="M449.19,355.76s-.14,1.69-4.09,8-8.19,4.94-8.19,4.94C438.76,362.44,449.19,355.76,449.19,355.76Z"/><path class="cls-4" d="M418.33,539.27c-2.64-.07-3.91-3.5-4.59-5.55-7.27-21.9-1.24-46.25,5-67.65q3.68-12.7,8.62-25c7.15-17.78,16.78-34.06,27.15-50.25,0,0-10.35-3.86-6.29-11.57,3.92-7.46,24-24.22,25.31-25.34-.86.58-9.53,6.22-12-.46l-.61-4.6a19.72,19.72,0,0,0-2.31,1.62s-2.43,23.9-21,25.53c0,0-10-.21-7.45-9.82s18.33-18.95,18.33-18.95c.58-.35-.28-5.7-.39-6.47a16.6,16.6,0,0,0-2.17-6.46c-2.81-4.5-7.51-3-11.31-.58a42.07,42.07,0,0,0-8,6.92c-1.65,1.78-5.19,7.09-8,4.3-2.39-2.39,1.17-5.78,2.67-7.5.35-.4.71-.81,1.09-1.22,4-4.3,8.79-8.56,14.42-10.47,6.36-2.15,11.57.63,14.93,6.18a32.48,32.48,0,0,1,4.05,11.49s.38-.59,6.06-2.56c0,0,2-12.93,10.23-14.82s12.86,7.37,12.86,7.38c.17.34,2.61-1.44,2.73-1.54a19,19,0,0,0,3.08-3.32,13.79,13.79,0,0,0,1.87-5.07,62.35,62.35,0,0,1,8.7-19.53c5.18-7.71,13.07-13.83,22.84-11.95.19,0,1.33.16,1.39.31s8.41,20.56-31.47,41.84c0,0-.05,4.42-1.12,5.94,0,0,22.09,5.3,21,21.68s-51.4,30.73-51.4,30.73c-.56.16-1.42,1.6-1.78,2-1.66,2-3.24,4-4.75,6.07a182.81,182.81,0,0,0-22.63,42.5,223.5,223.5,0,0,0-7.19,22.25q-2.13,8-3.69,16.11a161.41,161.41,0,0,0-3.31,25.9c-.26,8.63,2.32,16.71,2.54,25.15C421.82,534.9,421.74,539.36,418.33,539.27Zm82.58-218.71s22.51-10,15.91-20.22C516.82,300.34,506.63,298.43,500.91,320.56ZM503,367c13.1-13.41-11.68-20-11.68-20s-15.3,27-22.78,35.44C468.55,382.38,489.91,380.35,503,367Zm-33.2-28.33,9.24-.92s-2.54-4.57-5.38-4.77S469.81,338.62,469.81,338.62Zm-2.44,11.88,5.28-4.67h-5.28ZM459.28,384l12.38-18.74c-.46.31-15.12,10.33-17,17.66C454.68,383,456.37,386.48,459.28,384ZM445.1,363.79c3.95-6.34,4.09-8,4.09-8s-10.43,6.68-12.28,13C436.91,368.73,441.13,370.14,445.1,363.79Z"/><path class="cls-3" d="M413.74,533.72c.68,2,1.95,5.48,4.59,5.55,3.41.09,3.49-4.37,3.43-6.78-.22-8.44-2.8-16.52-2.54-25.15a161.41,161.41,0,0,1,3.31-25.9q1.56-8.12,3.69-16.11a223.5,223.5,0,0,1,7.19-22.25A182.81,182.81,0,0,1,456,400.58c1.51-2.07,3.09-4.11,4.75-6.07.36-.41,1.22-1.85,1.78-2,0,0,50.32-14.35,51.4-30.73s-21-21.68-21-21.68c1.07-1.52,1.12-5.94,1.12-5.94,39.88-21.28,31.47-41.83,31.47-41.84s-1.2-.28-1.39-.31c-9.77-1.88-17.66,4.24-22.84,11.95a62.35,62.35,0,0,0-8.7,19.53,13.79,13.79,0,0,1-1.87,5.07,19,19,0,0,1-3.08,3.32c-.12.1-2.56,1.88-2.73,1.54,0,0-4.61-9.28-12.86-7.38s-10.23,14.82-10.23,14.82c-5.68,2-6.06,2.56-6.06,2.56a32.48,32.48,0,0,0-4.05-11.49c-3.36-5.55-8.57-8.33-14.93-6.18-5.63,1.91-10.45,6.17-14.42,10.47-.38.41-.74.82-1.09,1.22-1.5,1.72-5.06,5.11-2.67,7.5,2.8,2.79,6.34-2.52,8-4.3a42.07,42.07,0,0,1,8-6.92c3.8-2.42,8.5-3.92,11.31.58a16.6,16.6,0,0,1,2.17,6.46c.11.77,1,6.12.39,6.47,0,0-15.76,9.34-18.33,18.95s7.45,9.82,7.45,9.82c18.55-1.63,21-25.53,21-25.53a19.72,19.72,0,0,1,2.31-1.62l.61,4.6c2.44,6.68,11.11,1,12,.46-1.34,1.12-21.39,17.88-25.31,25.34-4.06,7.71,6.29,11.57,6.29,11.57-10.37,16.19-20,32.47-27.15,50.25q-4.92,12.29-8.62,25C412.5,487.47,406.47,511.82,413.74,533.72ZM554,278c0,4.59-.12,9.25-.17,13.79q-.24,19.19-1,38.34t-2.11,38.29q-1.38,19.13-3.49,38.18c-5,45.07-10.88,101-37.88,139.21q-1.53,2.18-3.11,4.34-3.64,5-7.47,9.85t-7.76,9.52q-3.94,4.66-8.05,9.19t-8.33,8.89q-4.21,4.37-8.59,8.59t-8.85,8.3q-4.49,4.08-9.1,8t-9.32,7.77q-4.74,3.82-9.56,7.52t-9.78,7.28q-5,3.59-10,7.05c-3.35,2.33-6.75,4.61-10.17,6.85q-5.48,3.59-11,7a7.78,7.78,0,0,1-4.85,1.16V215.77l.42,0c4.62-.52,9.76,1.63,9.76,1.63,3.45,1.44,6.89,2.89,10.37,4.25,9.46,3.68,19.08,6.95,28.78,9.94s19.5,5.71,29.34,8.2Q476,243.29,490,246.25q12.19,2.58,24.47,4.8c6.33,1.14,12.66,2.21,19,3.17a94.65,94.65,0,0,0,10.21,1.3c2,.08,4.34-.08,5.94,1.43,1.87,1.77,2.58,4.81,3.19,7.22C554,268.68,554,273.33,554,278Z"/><path class="cls-1" d="M397.75,108.19a8.35,8.35,0,0,0-10.34-6.58A22.79,22.79,0,0,1,396,89.94a4.62,4.62,0,0,1,6.17,6.64A16.69,16.69,0,0,0,399.47,108Z"/><path class="cls-1" d="M388.2,117.74a8.29,8.29,0,0,0,9.65-8.15,7.22,7.22,0,0,0-.1-1.4l1.72-.23a17.27,17.27,0,0,0,19,15.2,17.28,17.28,0,0,0,3.35,4.55C410.23,135.69,393.44,130.49,388.2,117.74Z"/><path class="cls-1" d="M382,19.29l-.63,0a15.09,15.09,0,0,1-11.09-6.78A14.83,14.83,0,0,1,368.76,0c4.53,13.25,23.36,13.25,27.89,0-.08.23.28,1,.34,1.26a14.69,14.69,0,0,1-13.66,18.1h-.1A10.69,10.69,0,0,0,382,19.29Z"/><circle class="cls-3" cx="382.65" cy="154.73" r="12.5"/><path class="cls-5" d="M381.69,689.49a30.43,30.43,0,0,1-5.3-2.17q-2.75-1.29-5.45-2.7a146.71,146.71,0,0,1-13.35-8.41c-34.23-23.09-65.37-52-92.78-82.81-15-16.84-29.73-34.54-39.37-55.06-9.89-21-15.44-43.81-20.21-66.46-10.68-50.79-16.16-103.36-17.74-155.24-.05-1.93,0-3.87,0-5.8V254.17c0-2.56,0-5.12,0-7.68-.06-4.67-.27-9.72,2.55-13.73a8.84,8.84,0,0,1,3.51-3.16c1.57-.72,3.59-.69,5.28-.92,3.91-.53,7.81-1.06,11.71-1.63q15.69-2.31,31.3-5.21,14.17-2.64,28.24-5.79,12.59-2.82,25.06-6.06,10.94-2.85,21.77-6,9.24-2.72,18.39-5.7,7.49-2.44,14.9-5.07,5.67-2,11.3-4.14c2.54-.95,5.07-1.93,7.61-2.89a38.59,38.59,0,0,1,3.78-1.35,55.54,55.54,0,0,1,10.53-1.69V203.3h0a53.49,53.49,0,0,0-9.26,1.55,32.64,32.64,0,0,0-3.48,1.23l-7,2.67q-5.19,2-10.41,3.8-6.82,2.43-13.71,4.67-8.43,2.75-16.93,5.25-10,2.94-20,5.56-11.49,3-23.07,5.58-12.94,2.91-26,5.33-14.35,2.67-28.82,4.79c-3.58.53-7.18,1-10.77,1.51-1.56.21-3.42.18-4.87.84a8.16,8.16,0,0,0-3.23,2.91c-2.59,3.69-2.4,8.34-2.34,12.64,0,2.35,0,4.71,0,7.07v52.16c0,1.78-.05,3.56,0,5.34C205,374,210,422.36,219.83,469.11c4.39,20.85,9.5,41.82,18.6,61.18,8.88,18.89,22.45,35.18,36.25,50.67,25.22,28.33,53.89,55,85.4,76.23a132.78,132.78,0,0,0,12.29,7.74q2.47,1.3,5,2.49a26.45,26.45,0,0,0,4.88,2,7.6,7.6,0,0,0,1.16.2v20.11h0A8.48,8.48,0,0,1,381.69,689.49Z"/><path class="cls-5" d="M383.42,657.16a8,8,0,0,1-1.09-.19,25.05,25.05,0,0,1-4.62-1.89q-2.4-1.12-4.75-2.35a127.63,127.63,0,0,1-11.63-7.33c-29.83-20.12-57-45.34-80.84-72.16-13.06-14.66-25.91-30.09-34.31-48-8.62-18.33-13.46-38.18-17.61-57.91-9.31-44.26-14.08-90.07-15.45-135.27-.05-1.69,0-3.38,0-5.06V277.67c0-2.23,0-4.47,0-6.7-.05-4.06-.23-8.47,2.22-12a7.82,7.82,0,0,1,3.06-2.76,16.94,16.94,0,0,1,4.61-.79c3.4-.46,6.8-.93,10.2-1.43q13.68-2,27.28-4.53,12.34-2.31,24.6-5.05,11-2.46,21.83-5.28,9.52-2.47,19-5.26,8-2.37,16-5,6.51-2.13,13-4.42,4.94-1.76,9.85-3.6c2.21-.84,4.41-1.69,6.62-2.52a30.92,30.92,0,0,1,3.3-1.18,48.91,48.91,0,0,1,8.76-1.45ZM339,482.16v-13L305.82,449.5,339,430V417L283.72,449.5Zm0-26.06v-13l-11,6.47Zm0-65.26v-13.1l-33.21-19.55L339,338.67l-11-6.57-44.33,26.09Zm0-26.13v-13l-11,6.47Zm0-39.12v-13l-11,6.47Zm0-25.95V286.55l-55.31,32.5,22.1,13.05,11-6.51-11-6.54ZM305.82,423.29,339,403.94l-33.21-19.62V397.4l11,6.54-11,6.33Zm22.23,78.63,11-6.68-33.21-19.41v13Zm-44.47,26.45,33.22-20.05-11-6.4L283.72,515Zm11.27-33.13V469.18l-11.13-6.43v39.17Zm0-65.27V377.74l-11.13-6.36v65Zm-11.13-84.74,11.13-6.54-11.13-6.47Z"/><path class="cls-2" d="M383.33,19.36a12.23,12.23,0,0,1,10.84,11.45A101.72,101.72,0,0,0,382,30.26a.28.28,0,0,0-.13,0,99.93,99.93,0,0,0-12.09.92,12.23,12.23,0,0,1,11.59-11.87c.35,0,.71.06,1.06.07a7.85,7.85,0,0,0,.84,0h.1Z"/><path class="cls-1" d="M382.65,167.23a12.5,12.5,0,1,0-12.5-12.5A12.5,12.5,0,0,0,382.65,167.23Zm-95.9-7c56.4-32.94,136.94-32.94,193.35,0a100.28,100.28,0,0,1-15,30.23c-49.21-23.05-114.11-23.05-163.33,0a100.08,100.08,0,0,1-15-30.2Z"/><path class="cls-1" d="M363.67,108.35a16.46,16.46,0,0,0-2.46-11.47l0,0c-.17-.27-.35-.54-.54-.79a4.7,4.7,0,0,1,6-6.52A22.9,22.9,0,0,1,376,101.47a8.33,8.33,0,0,0-9.78,7.13Z"/><path class="cls-1" d="M363.67,108.35l2.5.25a8.19,8.19,0,0,0,0,1,8.29,8.29,0,0,0,9.13,8.23c-5.27,12.87-22.26,18-33.83,9.83a17.29,17.29,0,0,0,3.31-4.49C354.63,124.31,362.39,116.94,363.67,108.35Z"/><path class="cls-1" d="M369.74,31.18a99.93,99.93,0,0,1,12.09-.92,17.14,17.14,0,0,1-6.28,11.94h0l0,0-.22.15c-5.67,4-9.11,10.47-7.82,17.53a21.38,21.38,0,0,0-20-13.85c-24.7.5-29.37,34.52-6.1,41.85a15.92,15.92,0,0,1,2.15.71h0l.77.34h0c12.37,5.63,13.48,23.14,1.88,30.28,2.63-10.58-5.91-21.3-16.78-21.13-12.28-.14-20.93,13-15.7,24.33-11.1-4.93-15.83-19.74-9.26-30.28a21.51,21.51,0,0,0-.18-23.68A99.69,99.69,0,0,1,369.74,31.18Z"/><polygon class="cls-4" points="339.03 469.18 339.03 482.16 283.72 449.5 339.03 417.03 339.03 429.97 305.82 449.5 339.03 469.18"/><polygon class="cls-4" points="339.03 443.09 339.03 456.1 328.05 449.56 339.03 443.09"/><polygon class="cls-4" points="339.03 377.74 339.03 390.84 283.72 358.19 328.05 332.1 339.03 338.67 305.82 358.19 339.03 377.74"/><polygon class="cls-4" points="339.03 351.7 339.03 364.71 328.05 358.17 339.03 351.7"/><polygon class="cls-4" points="339.03 312.58 339.03 325.59 328.05 319.05 339.03 312.58"/><polygon class="cls-4" points="339.03 286.55 339.03 299.64 305.82 319.05 316.8 325.59 305.82 332.1 283.72 319.05 339.03 286.55"/><polygon class="cls-4" points="339.03 403.94 305.82 423.29 305.82 410.27 316.8 403.94 305.82 397.4 305.82 384.32 339.03 403.94"/><polygon class="cls-4" points="339.03 495.24 328.05 501.92 305.82 488.84 305.82 475.83 339.03 495.24"/><path class="cls-2" d="M397.85,109.59a8.29,8.29,0,0,1-9.65,8.15c5.24,12.75,22,18,33.62,10a17.28,17.28,0,0,1-3.35-4.55,17.27,17.27,0,0,1-19-15.2,16.69,16.69,0,0,1,2.73-11.38A4.62,4.62,0,0,0,396,89.94a22.79,22.79,0,0,0-8.62,11.67,8.35,8.35,0,0,1,10.34,6.58A7.22,7.22,0,0,1,397.85,109.59ZM382,30.26A17.12,17.12,0,0,0,388,42h0a16.56,16.56,0,0,0,2.47,1.72l0,0h0a17.27,17.27,0,0,1,5.65,17.39,21.37,21.37,0,0,1,4.93-8.44h0c7.89-8.64,22.5-8.85,30.61-.4,11.89,11.7,5.83,32.43-10.37,36a15.56,15.56,0,0,0-2,.76h0c-12.15,5.49-13.53,22.6-2.4,30-2.45-10.51,6.08-21.09,16.84-20.9,12.46-.12,21.08,13.34,15.54,24.68l-.68,1.26a17.15,17.15,0,0,1-9.1,7.52c10.59,15.1,33.8,15.39,44.77.54a100.46,100.46,0,0,1-4.26,28.11c-56.41-32.93-137-32.93-193.35,0a99.63,99.63,0,0,1-4.17-24.44c11.8,11.28,32.08,9.14,41.33-4.11a17.23,17.23,0,0,1-8.69-6.53c-10.28,8.15-26.15,4.43-31.91-7.08a100.53,100.53,0,0,1,20.93-49.59,21.51,21.51,0,0,1,.18,23.68c-6.57,10.54-1.84,25.35,9.26,30.28-5.23-11.31,3.42-24.47,15.7-24.33,10.87-.17,19.41,10.55,16.78,21.13,11.6-7.14,10.49-24.65-1.88-30.28h0l-.77-.34h0a15.92,15.92,0,0,0-2.15-.71c-23.27-7.33-18.6-41.35,6.1-41.85a21.38,21.38,0,0,1,20,13.85c-1.29-7.06,2.15-13.54,7.82-17.53l.22-.15,0,0h0a17.14,17.14,0,0,0,6.28-11.94A.28.28,0,0,1,382,30.26ZM361.21,96.88a16.46,16.46,0,0,1,2.46,11.47c-1.28,8.59-9,16-18.93,14.81a17.29,17.29,0,0,1-3.31,4.49c11.57,8.17,28.56,3,33.83-9.83a8.29,8.29,0,0,1-9.13-8.23,8.19,8.19,0,0,1,0-1,8.33,8.33,0,0,1,9.78-7.13,22.9,22.9,0,0,0-9.33-11.94,4.7,4.7,0,0,0-6,6.52,4.25,4.25,0,0,0,.54.79Z"/><polygon class="cls-4" points="316.8 508.32 283.58 528.37 283.72 515 305.82 501.92 316.8 508.32"/><path class="cls-1" d="M282.58,135.8a100.85,100.85,0,0,1,.73-17.72c5.76,11.51,21.63,15.23,31.91,7.08a17.23,17.23,0,0,0,8.69,6.53C314.66,144.94,294.38,147.08,282.58,135.8Z"/><polygon class="cls-4" points="294.85 469.18 294.85 495.24 283.72 501.92 283.72 462.75 294.85 469.18"/><polygon class="cls-4" points="294.85 377.74 294.85 429.97 283.72 436.37 283.72 371.38 294.85 377.74"/><polygon class="cls-4" points="294.85 338.69 283.72 345.23 283.72 332.22 294.85 338.69"/><path class="cls-2" d="M268.54,171.61l-.12.35-.09.14Z"/><path class="cls-2" d="M236.2,179.06a25.62,25.62,0,0,0,10.18,3A28.45,28.45,0,0,0,257,181a25.34,25.34,0,0,0,9.32-5,31.16,31.16,0,0,1-3,4.07,31.63,31.63,0,0,1-4.11,4,31.08,31.08,0,0,1-4.76,3.18,30.33,30.33,0,0,1-4.27,1.93,31.5,31.5,0,0,1-18.7.82,31.44,31.44,0,0,1-16.49-10.77h0a27.44,27.44,0,0,1-4.16-7.12h0a15.61,15.61,0,0,1,5.38-8.52,15.39,15.39,0,0,1,7.71-3.29,15.16,15.16,0,0,1,2.52-.07,14.64,14.64,0,0,1,5,1.06,9.77,9.77,0,0,0-2.86,4.82,10,10,0,0,0-.31,3.14,9.65,9.65,0,0,0,.7,3.09,10.27,10.27,0,0,0,1.67,2.72A19.42,19.42,0,0,0,236.2,179.06Z"/><path class="cls-2" d="M238.57,162a16.17,16.17,0,0,1,4.16-1.16c4,2.82,9.83,4.07,13.84.22a9.42,9.42,0,0,1-9.27-1.94c2,1.53,7.2-1,8.67-2.14,5.47-4.34,5.42-14.33,3.89-20.43a32,32,0,0,0-13.43-18.62c5.26,1.56,10.52,6,14.25,10a45.36,45.36,0,0,1,3.35,4.6h0a44.64,44.64,0,0,1,6.76,30v.17c-.33,1.79-.63,3.61-1.1,5.37a30.1,30.1,0,0,1-1.17,3.55l-.21.49a15,15,0,0,1-9.54,6.6c-7.56,1.59-15.35-1.61-20.74-6.81-1.37-1.33-3-2.76-3.23-4.77C234.5,164.58,236.35,163,238.57,162Z"/><path class="cls-2" d="M240.69,113.52a47.43,47.43,0,0,1,20,14.38c-3.73-4-9-8.44-14.25-10a45.57,45.57,0,0,0-25.07-3h0a19.38,19.38,0,0,0-16.46,16.42,18.4,18.4,0,0,0-.17,3.56,20.16,20.16,0,0,0,.48,3.64A19,19,0,0,0,207,143.4a7,7,0,0,1-7.27,1l-.2-.08c0,.09.05.17.07.26a10.5,10.5,0,0,1-8.25,13.11c2.71-7.74-9.21-9.65-7.05-17.18a8.28,8.28,0,0,1-5.18,5.3,31.26,31.26,0,0,1,4.43-17.65h0a31.75,31.75,0,0,1,8.72-9.42l.22-.16h0a55,55,0,0,1,6.4-3.69c12.71-6.38,28.35-6.6,41.72-1.42Z"/><path class="cls-1" d="M242.73,160.81a16.17,16.17,0,0,0-4.16,1.16l-.56-1.05a15.1,15.1,0,0,0,1.35-.77A16.58,16.58,0,0,0,241,159c.16-.14.34-.28.5-.43A15.5,15.5,0,0,0,243,157s0,0,0-.05a15.44,15.44,0,0,0,2.56-4.36,14.62,14.62,0,0,0,.51-8.8c7.21-20.83-37.92-28.73-41.42-8.83a18.4,18.4,0,0,1,.17-3.56A19.38,19.38,0,0,1,221.32,115h0a45.57,45.57,0,0,1,25.07,3,32,32,0,0,1,13.43,18.62c1.53,6.1,1.58,16.09-3.89,20.43-1.47,1.16-6.66,3.67-8.67,2.14a9.42,9.42,0,0,0,9.27,1.94C252.56,164.88,246.72,163.63,242.73,160.81Z"/><path class="cls-2" d="M231.55,190a31.5,31.5,0,0,0,18.7-.82,30.33,30.33,0,0,0,4.27-1.93,31.08,31.08,0,0,0,4.76-3.18,31.63,31.63,0,0,0,4.11-4,31.16,31.16,0,0,0,3-4.07c.25-.42.49-.85.72-1.28s.58-1.13.85-1.7c.14-.29.28-.58.4-.88l.09-.14c-.45,1.16-1,2.55-1.31,3.36a47.69,47.69,0,0,1-16.65,19.48l0,0a0,0,0,0,1,0,0h0c-14.43,10-35.11,11.51-50.9,3.91h.09a61,61,0,0,0-29.73-5.94h-.34c-22.14-.57-93.09,6.26-57.67,61.24a60.82,60.82,0,0,0,3.86,21.22A36,36,0,0,1,78.19,240h0c-23.26,11.62-48.59,40.92-20.38,78.58.78,1,1.57,2,2.34,3a30,30,0,0,1,5.65,13.55A34.15,34.15,0,0,1,65.51,347c-.85,4.14-3,7.79-5,11.46-1.34,2.49.62,7.14,1.76,9.69,4.5,10,14.75,16.73,25.49,18.14a31.37,31.37,0,0,0,22.71-5.49c3.22-2.38,5.78-5.85,5.26-10-.61-4.9-5.47-9.27-10.6-8.15a8.79,8.79,0,0,0-2.25.86c.11-.06.26-2.51.34-2.83a10.75,10.75,0,0,1,1.08-2.68,11.75,11.75,0,0,1,3.88-4.05,13.07,13.07,0,0,1,15.23.94,12.54,12.54,0,0,1,4.28,9.14,5.9,5.9,0,0,0,0,1.19,11.82,11.82,0,0,0,0-1.19c.36-2.78,2.68-5.15,5.24-6.5,2.91-1.55,6.22-2.21,9.15-3.73a17.91,17.91,0,0,0,9.36-16.7A18.12,18.12,0,0,0,140,321.72a18.33,18.33,0,0,0-18.78,4,10.76,10.76,0,0,1,9.38,8.36,10.59,10.59,0,0,1-4.16,10.48c-5.69,4-14.21,2.27-19.51-1.55a21.64,21.64,0,0,1-9-16.2c-.57-11.95,9.1-20.57,19.11-25.18a51.7,51.7,0,0,1,20.74-4.82c29.21-.44,55,27.51,44.69,56.64-4.8,13.56-15,24.54-26.6,32.75-1,.71-2,1.39-3,2.06a73.05,73.05,0,0,1-12.45,6.47A91.39,91.39,0,0,1,126.88,399h0l-.18,0a79.12,79.12,0,0,1-42.12-1.36,82,82,0,0,1-35.74-22c-3.44,8-14.74,11.05-21.76,5.88.3-.51.57-1,.82-1.58a22.22,22.22,0,0,0,.48-16.34c-2-5.39-6.63-9.34-9.31-14.37a50.76,50.76,0,0,1-5.19-15.87A46.84,46.84,0,0,1,16.6,308.8,18.74,18.74,0,0,1,4.27,320.07a191.61,191.61,0,0,1,19.49-46.42c38.37-66.39,119-104.13,194.57-91A31.14,31.14,0,0,0,231.55,190Z"/><path class="cls-2" d="M228.13,644.8s8.72-8.94,20-6.41c0,0-7.42,9.94,0,13.94S264,649.27,264,649.27s-5.2-2.87-6.95-7.67c0,0,17.07-1.45,9.54-13.71S245.2,617,245.2,617s6.12,7.05,7.18,12.29c0,0-10.06,5.77-22.23-8.88,0,0-5.47,6.7-1.24,10.76,0,0-11.59-2.52-19.36,2.53s-2.83,19.68-2.83,19.68c-.95.67-1.92,1.32-2.91,1.94-41.32,25.12-100.56,18.43-132.5-60.07a116.45,116.45,0,0,1-1.23-23.24v0h0a111.55,111.55,0,0,1,2.16-17.45c.42,29.52,7.28,64.76,34.9,81.37,21,10.33,61.16,12.49,68.57-17.15A14.07,14.07,0,0,1,187,631.2h0a14,14,0,0,1-1.17,7.18,25.44,25.44,0,0,0,22.83-24.66h0c1.07-18.81-20.95-32.33-37.24-23.08A25.42,25.42,0,0,1,193,566.13c-25.49-19.52-56.2,16.7-32.86,38.69a9.57,9.57,0,0,1,11.64-9.48c9.5,1.79,9.72,16.44.24,18.5-35,8.38-59.3-37.35-33-61.7l0,0,.13-.12c.68-.73,1.39-1.44,2.12-2.12a45,45,0,0,1,4.66-3.81l.34-.24,1.15-.78c.43-.28.86-.56,1.3-.83s.78-.48,1.18-.71A49.05,49.05,0,0,1,172.5,537l.29,0c1.06,0,2.12,0,3.16.06a56.14,56.14,0,0,1,29.53,10.17,66.82,66.82,0,0,1,28.4,52.36v0a73.29,73.29,0,0,1-.7,8.9c12.27-7.21,30-4.21,39.28,6.46h0a32.28,32.28,0,0,1,8.14,26.63h0c-2,15-15.5,27.08-30.62,27.44C236.84,669.88,226,657.78,228.13,644.8Z"/><path class="cls-2" d="M210.8,662.11c9.47,17.11,26.84,33.12,44.8,34.34a24,24,0,0,0,7.3,2.49,22.6,22.6,0,0,0,10.77-1,45.3,45.3,0,0,0,41.94,5.83,17,17,0,0,1,1.05,5c5.64-6.84,17.14-7.9,23.95-2.25a17.54,17.54,0,0,1,10.51,3.36,17.64,17.64,0,0,1-8.23,7.18c12.92-4.6,26.52,8.62,22.22,21.72a32.61,32.61,0,0,0-7.81-8.7,32.19,32.19,0,0,0-10.44-5.38,32.55,32.55,0,0,0-15.78-.69h0C282.93,735.66,230,708.09,210.8,662.11Z"/><path class="cls-1" d="M230.15,620.45c12.17,14.65,22.23,8.88,22.23,8.88-1.06-5.24-7.18-12.29-7.18-12.29s13.89-1.41,21.42,10.85-9.54,13.71-9.54,13.71c1.75,4.8,6.95,7.67,6.95,7.67s-8.47,7.06-15.88,3.06,0-13.94,0-13.94c-11.3-2.53-20,6.41-20,6.41s-14.85,22,5.39,32.87a36.88,36.88,0,0,1-13.78-8c-.26-.3-7.44-8.12-7.72-8.43,0,0-4.15-6-4.17-6h0a1.09,1.09,0,0,1-.14-.21c-.27-.38-.5-.74-.69-1l-.3-.55s-4.94-14.62,2.83-19.68,19.36-2.53,19.36-2.53C224.68,627.15,230.15,620.45,230.15,620.45Z"/><path class="cls-1" d="M238.05,171.89c5.39,5.2,13.18,8.4,20.74,6.81a15,15,0,0,0,9.54-6.6c-.12.3-.26.59-.4.88-.27.57-.56,1.14-.85,1.7s-.47.86-.72,1.28a25.34,25.34,0,0,1-9.32,5,28.45,28.45,0,0,1-10.66,1.08,25.62,25.62,0,0,1-10.18-3,19.42,19.42,0,0,1-5.51-4.07,10.27,10.27,0,0,1-1.67-2.72,9.65,9.65,0,0,1-.7-3.09,10,10,0,0,1,.31-3.14,9.77,9.77,0,0,1,2.86-4.82,14.64,14.64,0,0,0-5-1.06,15.16,15.16,0,0,0-2.52.07,15.39,15.39,0,0,0-7.71,3.29,15.61,15.61,0,0,0-5.38,8.52c-.19-.49-.36-1-.51-1.48a14.89,14.89,0,0,1,2.18-13.84,16.82,16.82,0,0,1,13.18-6.4c5.3,0,10.33,2.65,10.87,8.41a8.89,8.89,0,0,1-.17,2.91,15.32,15.32,0,0,0,1.6-.72l.56,1.05c-2.22,1-4.07,2.61-3.75,5.15C235.08,169.13,236.68,170.56,238.05,171.89Z"/><path class="cls-1" d="M218.33,182.69c-75.62-13.17-156.2,24.57-194.57,91C13.47,277,1.77,269.89,0,259.2c.07.4,8.19-1.14,8.94-1.32a54.68,54.68,0,0,0,8.67-2.77,56.59,56.59,0,0,0,10.7-5.83,60.07,60.07,0,0,0,8.4-7.39c1.91-2,3.77-4,5.66-5.93,4.77-4.91,9.63-9.75,14.79-14.25,1.91-1.67,3.87-3.3,5.87-4.86,3.18-2.49,6.45-4.87,9.78-7.15s6.75-4.45,10.23-6.51,7-4,10.61-5.85,7.26-3.56,11-5.18,7.46-3.11,11.26-4.49c.74-.27,1.48-.53,2.23-.78.25-.1.51-.18.76-.27,3.33-1.16,6.7-2.22,10.08-3.19q6.57-1.87,13.27-3.29t13.46-2.34q6.76-.95,13.6-1.38t13.66-.39c4.56,0,9.11.24,13.66.63s9.09.93,13.59,1.66c1.62.26,3.22.55,4.83.85h0A31,31,0,0,0,218.33,182.69Z"/><path class="cls-2" d="M239.36,160.15a15.1,15.1,0,0,1-1.35.77,15.32,15.32,0,0,1-1.6.72,8.89,8.89,0,0,0,.17-2.91c-.54-5.76-5.57-8.46-10.87-8.41a16.82,16.82,0,0,0-13.18,6.4,14.89,14.89,0,0,0-2.18,13.84,32,32,0,0,1-2-9v-.06c-2.5-17.06,18-40.62,34.45-24.06h0a15.08,15.08,0,0,1,3.37,6.35,14.62,14.62,0,0,1-.51,8.8,15.44,15.44,0,0,1-2.56,4.36s0,0,0,.05a15.5,15.5,0,0,1-1.55,1.59c-.16.15-.34.29-.5.43A16.58,16.58,0,0,1,239.36,160.15Z"/><path class="cls-1" d="M247.42,678.07l.19,0-.17,0a30.36,30.36,0,0,0,12.84-7.34,14.41,14.41,0,0,1,2,4.86,14.74,14.74,0,0,1,14.09-2.32,14.64,14.64,0,0,1-7.59,15.09,17.37,17.37,0,0,1,5.34,3.53,30.93,30.93,0,0,1-18.48,4.57c-18-1.22-35.33-17.23-44.8-34.34a70,70,0,0,1-4.08-8.69l.3.55c.19.29.42.65.69,1a1.09,1.09,0,0,0,.14.21h0s4.16,6,4.17,6c.28.31,7.46,8.13,7.72,8.43a36.88,36.88,0,0,0,13.78,8h0a25.71,25.71,0,0,0,10,1.07,22.65,22.65,0,0,0,3.85-.68Z"/><path class="cls-2" d="M204.5,528.31C201,545.55,235.22,554,233.88,599.57a66.82,66.82,0,0,0-28.4-52.36C199.72,540.44,200.93,532.72,204.5,528.31Z"/><path class="cls-1" d="M205.48,547.21A56.14,56.14,0,0,0,176,537c-1-.06-2.1-.07-3.16-.06a34.33,34.33,0,0,1-2.16-12c0-1.12.05-2.25.16-3.36h0c1.26-8.38,4.85-19.82,13.77-22.82,9.1.64,3.67,14.2-3.35,8.43-1.13,12.72,10.74,23.47,23.28,21.11C200.93,532.72,199.72,540.44,205.48,547.21Z"/><path class="cls-1" d="M148.51,172.55a44.81,44.81,0,0,1-1.32-10.78c.09-27.6,24.55-48,51.74-46.84a55,55,0,0,0-6.4,3.69h0l-.22.16a47,47,0,0,0-19,26.5,16.85,16.85,0,0,1-4-10.38,49,49,0,0,0-8.66,7.46h0A45.2,45.2,0,0,0,148.51,172.55Z"/><path class="cls-1" d="M169.51,192.81v0c-16.61,1.35-43,10.41-44.66,30.43a18.71,18.71,0,0,0,15.24,18.38c20.35-21.51,48.35,14.39,22.59,28.91-18,6.88-40.53-.05-50.85-16.5C76.42,199.07,147.37,192.24,169.51,192.81Z"/><path class="cls-1" d="M71.31,595.29c31.94,78.5,91.18,85.19,132.5,60.07,8.64,11.68,7.39,30.07-2.81,40.45-16.87-29.92-34.81-11.35-55.88-20.07h0a32.17,32.17,0,0,1-10.65-7.83c8.51,11.5-1.16,29-15.56,27.76,5.32-6.83,4.75-18.11-1.24-24.35h0C93.37,652.4,75.89,626.37,71.31,595.29Z"/><path class="cls-2" d="M128.73,148.53c21.45-36.57,73.11-52.91,112-35h0c-13.37-5.18-29-5-41.72,1.42-27.19-1.15-51.65,19.24-51.74,46.84a44.81,44.81,0,0,0,1.32,10.78q.19.8.42,1.59l-.41-.17a17,17,0,0,1-10.1-12.22l-.06-.32,0,.32a17,17,0,0,1-12.17,18.41,17,17,0,0,1-7.61,5.77l-.76.27a15.78,15.78,0,0,1-2.35.57c.24-2.27.56-4.53,1-6.76s.92-4.54,1.51-6.78a16.66,16.66,0,0,1-3.09,6.18,16.82,16.82,0,0,1-9.42,6,17,17,0,0,1-16.55-5.29,69.1,69.1,0,0,0,38.74-29.88c.35-.56.68-1.12,1-1.7l0,0v0Z"/><path class="cls-1" d="M134.79,463.08a106.61,106.61,0,0,0-12,85.31c0,.05,0,.1,0,.15-8.18,5.2-19.94-.86-20.32-10.61C101.48,512.75,123.19,476.45,134.79,463.08Z"/><path class="cls-1" d="M140.39,394.72c-10.63,41-28.95,52.17-49,38.54A20.36,20.36,0,0,1,86,414.93v0a20.68,20.68,0,0,1,2.35-6.29c9.75,17.83,38,10.64,38.31-9.53l.18,0h0A91.39,91.39,0,0,0,140.39,394.72Z"/><path class="cls-2" d="M84.15,431a13.26,13.26,0,0,0,7.28,2.31c20,13.63,38.33,2.47,49-38.54a73.05,73.05,0,0,0,12.45-6.47c1-.67,2-1.35,3-2.06,6.39,21.42,1.4,47.34-12.37,64.64,0,0,0,0,0,0-.68.88-1.38,1.75-2.1,2.6h0a114.68,114.68,0,0,0-6.58,9.6c-11.6,13.37-33.31,49.67-32.32,74.85a36.83,36.83,0,0,0,21,34.85c-.37,8.77-8.1,14-15.7,14a14.17,14.17,0,0,1-13-7.77v0c-8.69-12.61-13.92-38.69-4.42-61-2.3,2.69-13.08,17.64-14.06,22.19A13.59,13.59,0,0,1,62.65,542a43.13,43.13,0,0,1,31.51-42.62,14.41,14.41,0,0,0-17.26,3.3c-6.85-6.36-4.55-19.26,4-22.88-1.49-.08-3-.21-4.45-.38C70.55,478,63.23,480,58.54,475h0A13.39,13.39,0,0,1,54.37,466a13.27,13.27,0,0,1,5.92-3.19,25.85,25.85,0,0,1-4.9-2.83c-13.35-8.82-15-30.86-3-41.54a20.53,20.53,0,0,0,16.37,15.83,20.52,20.52,0,0,1,9.51-14.57A13.44,13.44,0,0,0,84.15,431Z"/><path class="cls-1" d="M94.67,579c-8.16,35.86,32.85,63.94,64.62,50.37,1.14-.44,2.26-.91,3.35-1.44a47.19,47.19,0,0,0,13.08-9.1c-7.41,29.64-47.56,27.48-68.57,17.15-27.62-16.61-34.48-51.85-34.9-81.37a113.16,113.16,0,0,1,3.93-14.47c1-4.55,11.76-19.5,14.06-22.19-9.5,22.34-4.27,48.42,4.42,61Z"/><path class="cls-1" d="M89.06,315c-4.78,11.08-21,13.92-29.53,5.64l-1.74-2c-28.21-37.66-2.88-67,20.38-78.58C51.43,259.21,57.87,304.07,89.06,315Z"/><polygon class="cls-6" points="339.03 286.55 283.72 319.05 305.82 332.1 316.8 325.59 305.82 319.05 339.03 299.64 339.03 286.55"/><polygon class="cls-6" points="339.03 312.58 328.05 319.05 339.03 325.59 339.03 312.58"/><polygon class="cls-6" points="339.03 390.84 339.03 377.74 305.82 358.19 339.03 338.67 328.05 332.1 283.72 358.19 339.03 390.84"/><polygon class="cls-6" points="294.85 377.74 294.85 429.97 283.72 436.37 283.72 371.38 294.85 377.74"/><polygon class="cls-6" points="305.82 423.29 339.03 403.94 305.82 384.32 305.82 397.4 316.8 403.94 305.82 410.27 305.82 423.29"/><polygon class="cls-6" points="339.03 469.18 305.82 449.5 339.03 429.97 339.03 417.03 283.72 449.5 339.03 482.16 339.03 469.18"/><polygon class="cls-6" points="328.05 501.92 339.03 495.24 305.82 475.83 305.82 488.84 328.05 501.92"/><polygon class="cls-6" points="294.85 469.18 294.85 495.24 283.72 501.92 283.72 462.75 294.85 469.18"/><polygon class="cls-6" points="316.8 508.32 305.82 501.92 283.72 515 283.58 528.37 316.8 508.32"/><polygon class="cls-6" points="339.03 351.7 328.05 358.17 339.03 364.71 339.03 351.7"/><polygon class="cls-6" points="339.03 443.09 328.05 449.56 339.03 456.1 339.03 443.09"/><polygon class="cls-6" points="294.85 338.69 283.72 345.23 283.72 332.22 294.85 338.69"/><path class="cls-7" d="M515.85,194.4l0,0h0"/><path class="cls-8" d="M628,161l-.06.32a17,17,0,0,1-10.1,12.22l-.41.17q.23-.8.42-1.59a44.81,44.81,0,0,0,1.32-10.78c-.09-27.6-24.55-48-51.74-46.84"/><path class="cls-8" d="M637.59,148.12s0,0,0,0h0c.34.58.67,1.14,1,1.7a68.9,68.9,0,0,0,38.74,29.88,16.89,16.89,0,0,1-26-.73,16.63,16.63,0,0,1-3.08-6.18c.58,2.24,1.1,4.5,1.51,6.78s.73,4.49,1,6.76a15.78,15.78,0,0,1-2.35-.57l-.76-.27a17,17,0,0,1-7.61-5.77,17,17,0,0,1-12.18-18.41"/><path class="cls-8" d="M525.62,113.12c38.85-17.9,90.51-1.56,112,35a.08.08,0,0,0,0,0v0"/><path class="cls-8" d="M505.63,127.5a47.43,47.43,0,0,1,20-14.38h0c13.37-5.18,29-5,41.72,1.42a55,55,0,0,1,6.4,3.69s0,0,0,0l.22.16a31.75,31.75,0,0,1,8.72,9.42h0a31.26,31.26,0,0,1,4.43,17.65,8.28,8.28,0,0,1-5.18-5.3c2.16,7.53-9.76,9.44-7,17.18a10.5,10.5,0,0,1-8.25-13.11c0-.09,0-.17.07-.26l-.2.08A7,7,0,0,1,559.3,143a18.58,18.58,0,0,0,1.83-4.83,20.17,20.17,0,0,0,.49-3.64"/><line class="cls-7" x1="573.32" y1="565.73" x2="573.31" y2="565.73"/><path class="cls-7" d="M532.79,677.27h0"/><path class="cls-7" d="M532.43,599.21a0,0,0,0,1,0,0"/><path class="cls-7" d="M250.43,194.82a0,0,0,0,1,0,0h0"/><path class="cls-8" d="M240.69,113.52c-38.85-17.9-90.51-1.56-112,35l0,0v0l0,0c-.34.58-.67,1.14-1,1.7a68.9,68.9,0,0,1-38.74,29.88,17,17,0,0,0,16.55,5.29,16.82,16.82,0,0,0,9.42-6,16.66,16.66,0,0,0,3.09-6.18c-.59,2.24-1.1,4.5-1.51,6.78s-.73,4.49-1,6.76a15.78,15.78,0,0,0,2.35-.57l.76-.27a17,17,0,0,0,7.61-5.77,17,17,0,0,0,12.17-18.41l0-.32.06.32A17,17,0,0,0,148.52,174l.41.17q-.23-.79-.42-1.59a44.81,44.81,0,0,1-1.32-10.78c.09-27.6,24.55-48,51.74-46.84"/><path class="cls-8" d="M260.68,127.9a47.43,47.43,0,0,0-20-14.38h0c-13.37-5.18-29-5-41.72,1.42a55,55,0,0,0-6.4,3.69h0l-.22.16a31.75,31.75,0,0,0-8.72,9.42h0a31.26,31.26,0,0,0-4.43,17.65,8.28,8.28,0,0,0,5.18-5.3c-2.16,7.53,9.76,9.44,7.05,17.18a10.5,10.5,0,0,0,8.25-13.11c0-.09-.05-.17-.07-.26l.2.08a7,7,0,0,0,7.27-1,19,19,0,0,1-1.84-4.83,20.16,20.16,0,0,1-.48-3.64"/><line class="cls-7" x1="210.63" y1="178.44" x2="210.63" y2="178.43"/><line class="cls-7" x1="192.99" y1="566.13" x2="193" y2="566.13"/><path class="cls-7" d="M233.52,677.67h0"/><path class="cls-7" d="M233.88,599.61a0,0,0,0,0,0,0"/></g></g></svg>